SplineFontDB: 3.0
FontName: ltfont
FullName: ltfont
FamilyName: ltfont
Weight: Regular
Copyright: Copyright (c) 2017 Uruwi
UComments: "2017-10-21: Created with FontForge (http://fontforge.org)"
Version: 001.000
ItalicAngle: 0
UnderlinePosition: -99
UnderlineWidth: 49
Ascent: 1050
Descent: 200
InvalidEm: 0
LayerCount: 2
Layer: 0 0 "Back" 1
Layer: 1 0 "Fore" 0
XUID: [1021 881 2055310830 19285]
FSType: 0
OS2Version: 0
OS2_WeightWidthSlopeOnly: 0
OS2_UseTypoMetrics: 1
CreationTime: 1508636382
ModificationTime: 1508814662
PfmFamily: 17
TTFWeight: 400
TTFWidth: 5
LineGap: 90
VLineGap: 0
OS2TypoAscent: 0
OS2TypoAOffset: 1
OS2TypoDescent: 0
OS2TypoDOffset: 1
OS2TypoLinegap: 90
OS2WinAscent: 0
OS2WinAOffset: 1
OS2WinDescent: 0
OS2WinDOffset: 1
HheadAscent: 0
HheadAOffset: 1
HheadDescent: 0
HheadDOffset: 1
OS2Vendor: 'PfEd'
Lookup: 4 0 1 "ltligs" { "ltligs2"  "ltligs1"  } ['liga' ('latn' <'dflt' > ) ]
MarkAttachClasses: 1
DEI: 91125
LangName: 1033
Encoding: ISO8859-1
UnicodeInterp: none
NameList: Adobe Glyph List
DisplaySize: -48
AntiAlias: 1
FitToEm: 0
WinInfo: 38 38 14
BeginPrivate: 0
EndPrivate
Grid
-1346 1675 m 0
 -1346 -825 l 1024
-1250 1471 m 0
 2500 1471 l 1024
-1250 1485 m 0
 2500 1485 l 1024
EndSplineSet
BeginChars: 1038 846

StartChar: W
Encoding: 87 87 0
Width: 999
VWidth: 0
Flags: W
HStem: 131 50<169 383.558 473.605 564.795 651.992 844> 602 51<170 361.878 450.205 541.174 632.606 846> 802 20G<480.571 504.941>
LayerCount: 2
Fore
SplineSet
472 787 m 1
 492 822 l 1
 514 788 l 1
 600.324156165 653.621338766 l 1
 890 654 l 1
 934 654 l 1
 912 616 l 1
 773.306396965 384.344198175 l 1
 911 170 l 1
 936 132 l 1
 890 132 l 1
 622.01680779 131.649695174 l 1
 542 -2 l 1
 522 -37 l 1
 502 -2 l 1
 415.822558827 131.380160208 l 1
 125 131 l 1
 82 131 l 1
 103 169 l 1
 241.570311113 401.077106418 l 1
 104 614 l 1
 79 653 l 1
 125 653 l 1
 392.198841662 653.349279532 l 1
 472 787 l 1
473.604874781 131.455692647 m 1
 521 58 l 1
 564.794580283 131.574894876 l 1
 473.604874781 131.455692647 l 1
269.480002586 447.820166932 m 1
 361.877792965 602.567685778 l 1
 170 602 l 1
 269.480002586 447.820166932 l 1
299.826159057 400.787947216 m 1
 441.377506795 181.403522232 l 1
 594.589585172 181.630503089 l 1
 714.6760812 383.375816417 l 1
 573.508560902 603.19381231 l 1
 420.035565592 602.739750194 l 1
 299.826159057 400.787947216 l 1
632.606218434 603.368657451 m 1
 743.17345287 431.251400822 l 1
 846 604 l 1
 632.606218434 603.368657451 l 1
651.99150631 181.715542972 m 1
 844 182 l 1
 744.718746262 336.595095107 l 1
 651.99150631 181.715542972 l 1
450.205419717 653.425105124 m 1
 541.173566593 653.544017734 l 1
 494 727 l 1
 450.205419717 653.425105124 l 1
271.981379998 354.008718396 m 1
 169 181 l 1
 383.557614405 181.317863132 l 1
 271.981379998 354.008718396 l 1
EndSplineSet
Validated: 524289
EndChar

StartChar: T
Encoding: 84 84 1
Width: 999
VWidth: 0
Flags: W
HStem: 640 50<286 459.316 550.267 701> 760 51<473 532>
VStem: 470 51<-10 535.818> 480.528 49.0922<120.057 641.875>
LayerCount: 2
Fore
SplineSet
504 714 m 1xc0
 532 760 l 1
 473 760 l 1
 504 714 l 1xc0
227 582 m 1
 204 593 l 1
 216 616 l 1
 248 677 l 1
 254 690 l 1
 270 690 l 1
 459.315964953 691.713266651 l 1
 406 770 l 1
 379 808 l 1
 426 809 l 1
 576 811 l 1
 620 812 l 1
 598 773 l 1
 550.267329786 692.536355926 l 1
 712 694 l 1
 725 694 l 1
 733 684 l 1
 779 623 l 1
 794 602 l 1
 774 588 l 1
 754 574 l 1
 739 593 l 1
 701 644 l 1
 529.620630116 642.348150652 l 1xd0
 521 14 l 1
 521 -10 l 1
 496 -10 l 1
 470 -10 l 1
 470 14 l 1xe0
 480.528391306 641.874972446 l 1xd0
 286 640 l 1
 260 592 l 1
 248 570 l 1
 227 582 l 1
EndSplineSet
Validated: 8912897
EndChar

StartChar: P
Encoding: 80 80 2
Width: 999
VWidth: 0
Flags: W
VStem: 230 51<98.4688 234.557>
LayerCount: 2
Fore
SplineSet
233 637 m 1
 216 655 l 1
 233 672 l 1
 232 671 234 672 233 672 c 1
 313 750 414 803 542 780 c 0
 578 773 618 759 654 739 c 0
 721 702 794 631 750 552 c 0
 707.156156336 476.653930107 640.303341994 446.051851022 572.819661208 410.212988177 c 1
 772 392 l 1
 768 342 l 1
 499.771926989 366.431626805 l 1
 384.582989836 285.689145373 275.032021802 261.308329081 280 154 c 0
 280 152 281 148 281 146 c 0
 291 74 400 35 498 47 c 0
 599 59 663 136 725 228 c 2
 739 248 l 1
 760 235 l 1
 781 221 l 1
 767 200 l 2
 705 108 629 14 504 -2 c 0
 402 -14 244 18 230 140 c 0
 229 142 230 149 230 151 c 0
 223.457780374 273.666617992 325.254674769 323.438400007 415.073382901 374.146416674 c 1
 252 389 l 1
 258 439 l 1
 485.564068439 418.191612419 l 1
 581.599495862 481.560253265 662.053747264 499.661027732 706 578 c 0
 726 615 697 658 630 695 c 0
 599 713 563 725 534 730 c 0
 427 750 342 707 268 636 c 2
 250 618 l 1
 233 637 l 1
EndSplineSet
Validated: 524325
EndChar

StartChar: K
Encoding: 75 75 3
Width: 999
VWidth: 0
Flags: W
HStem: 26 52<611 829> 772 20G<795.29 868.844>
LayerCount: 2
Fore
SplineSet
808 536 m 1
 782 542 l 1
 758 547 l 1
 766 572 l 1
 791 689 l 1
 107 22 l 1
 88 5 l 1
 71 22 l 1
 53 41 l 1
 72 58 l 1
 734 706 l 1
 611 674 l 1
 599 722 l 1
 630 730 l 1
 874 792 l 1
 808 536 l 1
704 257 m 1
 611 78 l 1
 829 82 l 1
 704 257 l 1
679 316 m 1
 698 352 l 1
 722 318 l 1
 898 72 l 1
 925 34 l 1
 878 34 l 1
 569 26 l 1
 528 26 l 1
 547 62 l 1
 679 316 l 1
EndSplineSet
Validated: 1
EndChar

StartChar: S
Encoding: 83 83 4
Width: 999
VWidth: 0
Flags: W
HStem: 324 50<143 476.105> 333.889 50.0259<526.348 758.728> 406 50<805.114 851.037> 806 20G<472 493.538>
VStem: 480 50<-8 332.607 383.915 710>
LayerCount: 2
Fore
SplineSet
505 -8 m 1x78
 480 -8 l 1
 480 17 l 1
 476.638010686 332.606746861 l 1
 143 324 l 1
 142 374 l 1xb8
 476.105119625 382.631895188 l 1
 472 768 l 1
 472 826 l 1
 514 787 l 1
 768 557 l 1
 787 540 l 1
 769 521 l 1
 752 502 l 1
 734 518 l 1
 522 710 l 1
 525.769768504 383.915024414 l 1
 755.006418588 389.837551848 l 1
 758.446076859 420.193142214 774.234929027 454.470574193 814 456 c 0
 862 460 897 421 902 379 c 0
 908 337 879 292 832 290 c 0
 795.016051171 288.459002132 772.280148915 313.039422981 761.505188087 339.95536904 c 1
 526.348102875 333.889101288 l 1
 530 18 l 1
 530 -8 l 1
 505 -8 l 1x78
805 372 m 0
 807 349 820 339 828 340 c 0
 842 341 855 354 853 372 c 0
 851 394 835 408 817 406 c 0
 811 406 803 396 805 372 c 0
EndSplineSet
Validated: 8912929
EndChar

StartChar: X
Encoding: 88 88 5
Width: 999
VWidth: 0
Flags: W
HStem: 752 20G<838 862>
VStem: 150 50<651.095 713.51> 320.012 49.9082<157.989 367.976> 812 50<128.25 770> 822 50<14 657.75>
LayerCount: 2
Fore
SplineSet
294 74 m 0xe0
 291.017386039 97.8609116891 295.818759864 136.177800695 320.012436796 154.954886433 c 1
 318.380645359 223.817631904 291.406797079 287.048403627 330 368 c 0
 398 514 563 496 538 598 c 0
 512 702 392 694 254 719 c 0
 250 720 245 720 239 719 c 0
 213 714 198 694 200 677 c 2
 204 652 l 1
 179 648 l 1
 155 643 l 1
 150 668 l 2
 140 722 187 760 230 768 c 0
 241 770 251 770 263 768 c 0
 381 746 549 758 586 610 c 0
 621 468 414 430 376 348 c 0
 347.697849985 287.743809646 367.739798135 244.15799797 369.920590325 165.495929563 c 1
 408.983568551 159.923917716 437.642725053 125.601109556 442 89 c 0
 448 47 418 2 371 0 c 0
 323 -2 299 40 294 74 c 0xe0
344 82 m 0
 346 59 360 49 368 50 c 0
 382 51 394 64 392 82 c 0
 390 104 376 118 358 116 c 0
 352 116 342 106 344 82 c 0
838 770 m 1
 862 772 l 1
 862 746 l 1xf0
 872 40 l 1
 872 14 l 1
 848 14 l 1
 822 14 l 1
 822 40 l 1xe8
 812 746 l 1
 812 770 l 1xf0
 838 770 l 1
EndSplineSet
Validated: 8912929
EndChar

StartChar: F
Encoding: 70 70 6
Width: 999
VWidth: 0
Flags: W
HStem: 17 21G<474 524> 22 21G<134 170> 311.185 58.5789<415.887 472.144 522.455 741.232> 415.742 59.9227<521.855 667.325> 765 20G<479 515.143 762 788>
VStem: 474 50<18 310.045 369.763 415.742 480.557 681.757> 762 50<595.75 781> 878 47<579.046 646>
LayerCount: 2
Fore
SplineSet
479 766 m 1x7f
 498 785 l 1
 516 764 l 1
 706.764069741 543.429044362 l 1
 755.574415811 604.062924925 760.39573975 659.942254857 762 757 c 2
 762 782 l 1
 788 781 l 1
 812 781 l 1
 812 756 l 2
 810 634 799 550 696 458 c 0
 641.436754311 409.28281635 580.228089471 409.456930745 521.855141418 415.74160785 c 1
 522.119004523 369.763461857 l 1
 603.502030776 369.070641358 676.235771324 336.612194191 730 385 c 0
 822 468 838 524 878 646 c 2
 886 670 l 1
 910 662 l 1
 932 654 l 1
 925 630 l 1
 885 509 864 439 763 348 c 0
 686.664386512 279.843202243 598.250865414 305.98699082 522.455181895 311.184554855 c 1
 524 42 l 1
 524 18 l 1
 499 17 l 1
 474 17 l 1xbf
 474 42 l 1
 472.46172221 310.044904821 l 1
 456.168283342 307.546279233 440.904489737 302.377446567 427 293 c 0
 306 214 265 155 170 40 c 1
 154 22 l 1
 134 37 l 1
 116 52 l 1
 132 72 l 2
 226 184 271 252 398 335 c 0
 423.094236132 351.407769778 447.89037963 360.661316367 472.143878731 365.42913108 c 1
 471.820777793 421.729469607 l 1
 429.239841269 426.46300393 389.904064502 427.516694664 358 406 c 0
 237 327 197 267 102 152 c 2
 86 132 l 1
 68 148 l 1
 48 166 l 1
 62 184 l 1
 156 296 205 363 332 446 c 0
 380.396254774 477.643705045 427.406593882 482.816420862 471.483175915 480.556596771 c 1
 470.320565807 683.141408115 l 1
 300 505 l 1
 282 522 l 1
 263 539 l 1
 479 766 l 1x7f
520.328513323 681.756553499 m 1
 521.511252411 475.664267429 l 1
 575.415470049 468.969642152 623.370886343 462.233797709 662 497 c 0
 676.680004606 510.228136019 689.174015617 522.805678706 699.81368417 535.106260354 c 2
 689 526 l 1
 670 508 l 1
 520.328513323 681.756553499 l 1
EndSplineSet
Validated: 524321
EndChar

StartChar: N
Encoding: 78 78 7
Width: 1002
VWidth: 0
Flags: W
HStem: 22 51<226 766> 766 20G<816.18 835.357>
VStem: 787 48<296 662> 797 51<113 548>
LayerCount: 2
Fore
SplineSet
500 430 m 1xd0
 835 786 l 1xe0
 848 58 l 1
 848 22 l 1
 822 22 l 1
 799 22 l 1
 109 16 l 1
 466 394 l 1
 157 725 l 1
 193 758 l 1
 500 430 l 1xd0
787 662 m 1
 534 395 l 1
 797 113 l 1xd0
 787 662 l 1
766 73 m 1
 499 358 l 1
 226 68 l 1
 766 73 l 1
EndSplineSet
Validated: 8388609
EndChar

StartChar: M
Encoding: 77 77 8
Width: 999
VWidth: 0
Flags: W
HStem: 10 50<238 812> 214 49<504.772 779> 503 51<238 423.789> 771 20G<189.923 239>
VStem: 187 51<60 503 554 791>
LayerCount: 2
Fore
SplineSet
239 791 m 1
 238 554 l 1
 332 556 434 558 510 472 c 0
 516 465 520 456 522 446 c 0
 532 388 440 339 430 326 c 1
 530 252 595 273 758 263 c 2
 782 262 l 1
 781 238 l 1
 779 212 l 1
 754 214 l 2
 602 224 516 199 398 288 c 0
 388 296 380 306 378 319 c 0
 376 336 385 348 392 358 c 0
 420 394 468 425 472 438 c 1
 413 508 334 505 238 503 c 1
 238 60 l 1
 812 64 l 1
 814 14 l 1
 187 10 l 1
 190 791 l 1
 239 791 l 1
EndSplineSet
Validated: 33
EndChar

StartChar: H
Encoding: 72 72 9
Width: 999
VWidth: 0
Flags: W
HStem: 762 20G<752 785>
LayerCount: 2
Fore
SplineSet
487 718 m 1
 498 696 l 1
 475 684 l 2
 327 610 195 545 215 463 c 0
 231 397 500 457 512 319 c 0
 525.97559319 157.282421657 370.543406519 87.244347709 242.669698162 2.44441642803 c 0
 242.446381037 2.29632283594 242.223147963 2.14818422208 242 2 c 1
 243 2 243 3 242 2 c 1
 222 -11 l 1
 209 10 l 1
 194 31 l 1
 216 44 l 1
 356 138 473 193 462 314 c 0
 454 397 203 300 167 452 c 0
 135 590 324 665 452 730 c 1
 475 740 l 1
 487 718 l 1
786 760 m 1
 798 738 l 1
 775 727 l 2
 627 653 495 588 515 506 c 0
 531 440 800 500 812 362 c 0
 826 200 670 131 542 46 c 1
 522 31 l 1
 508 52 l 1
 494 72 l 1
 516 86 l 1
 656 180 773 237 762 358 c 0
 754 441 503 342 467 494 c 0
 435 632 624 707 752 772 c 1
 775 782 l 1
 786 760 l 1
EndSplineSet
Validated: 524325
EndChar

StartChar: Z
Encoding: 90 90 10
Width: 999
VWidth: 0
Flags: W
HStem: 778 20G<158 162 635.667 670>
VStem: 485 50<285.82 513.14>
LayerCount: 2
Fore
SplineSet
670 758 m 1
 690 743 l 1
 674 722 l 2
 629.056746848 659.84443713 594.171825992 611.176183476 570.547509174 561.458680712 c 1
 675.374445399 500.738678541 779.888076823 440.172098272 856 396 c 1
 567.72493166 236.92384184 l 1
 596.80886584 176.057975618 643.313010721 122.984687756 700 47 c 2
 715 26 l 1
 695 12 l 1
 674 -2 l 1
 660 17 l 2
 605.523948029 89.2399819614 555.956563749 145.702103487 523.54698174 212.545533341 c 1
 142 2 l 1
 134 16 126 32 118 46 c 1
 246.784507017 117.681942585 375.569014034 188.62583563 504.353521051 259.728371081 c 1
 493.226938312 293.462452865 486.370638861 330.687811995 485 374 c 0
 482.994341785 438.582194515 491.608518839 491.579114191 508.712555176 540.155223705 c 1
 138 755 l 1
 146 769 154 784 162 798 c 1
 162 798 339.237663575 695.428415974 527.906983985 586.156318857 c 1
 554.072175562 640.494167848 590.905298436 691.956151062 635 752 c 2
 649 773 l 1
 670 758 l 1
549.283018627 284.542005674 m 1
 617.522012418 322.243053204 685.761006209 360.01791855 754 398 c 1
 552.038472571 515.045885215 l 1
 538.996510767 474.434743489 533.123059603 430.431271522 535 376 c 0
 536.23049765 341.546065797 541.155459 311.755634951 549.283018627 284.542005674 c 1
EndSplineSet
Validated: 524321
EndChar

StartChar: Y
Encoding: 89 89 11
Width: 999
VWidth: 0
Flags: W
HStem: -2 49<404.486 616.737> 634 49<447.358 575.018> 786 20G<491 523>
VStem: 192 50<220.91 449.5> 797 50<227.969 460.051>
LayerCount: 2
Fore
SplineSet
508 634 m 0
 363 636 246 492 242 338 c 0
 240 192 357 49 499 47 c 0
 662 45 792 172 797 336 c 0
 799.732756739 424.54131833 761.839814383 504.718522141 700.300725739 559.552058627 c 1
 682 574 l 1
 679.398246343 576.526558465 l 1
 631.473029589 611.934075584 572.220147507 633.21202273 508 634 c 0
446.431106888 676.710720231 m 1
 466.181522034 681.042894668 486.746044254 683.23485034 508 683 c 0
 531.912742606 682.74828692 555.25524994 680.073073934 577.782315221 675.205612964 c 1
 509 742 l 1
 446.431106888 676.710720231 l 1
731.746613062 597.63801866 m 1
 804.537093045 533.727049514 849.745915733 439.443164133 847 334 c 0
 842 144 689 -4 498 -2 c 0
 323 0 188 168 192 338 c 0
 194.155310585 431.217182807 233.183195685 524.724700847 297.037725257 590.832559085 c 1
 296 592 l 1
 314 610 l 1
 491 792 l 1
 506 806 l 1
 523 793 l 1
 708.540629032 616.294639017 l 2
 714.788116319 611.703233277 720.872981367 606.905546241 726.78484578 601.911365665 c 2
 732 598 l 1
 731.746613062 597.63801866 l 1
EndSplineSet
Validated: 524321
EndChar

StartChar: C
Encoding: 67 67 12
Width: 999
VWidth: 0
Flags: W
HStem: 4 50<172 820> 754 50<480.724 527.037>
LayerCount: 2
Fore
SplineSet
498 580 m 1
 172 54 l 1
 820 53 l 1
 498 580 l 1
431 712 m 0
 427 744 438 802 490 804 c 0
 538 808 573 770 578 728 c 0
 583.540056435 689.219604958 559.240449385 647.028962661 518.483693779 639.213997609 c 1
 886 42 l 1
 910 2 l 1
 865 2 l 1
 127 4 l 1
 82 4 l 1
 106 42 l 1
 478 640 l 1
 479.530885466 642.602505291 l 1
 450.282200226 654.250059417 434.890228009 685.546449542 431 712 c 0
481 720 m 0
 483 697 496 687 504 688 c 0
 518 689 531 703 529 721 c 0
 527 743 511 756 493 754 c 0
 487 754 479 744 481 720 c 0
EndSplineSet
Validated: 524321
EndChar

StartChar: L
Encoding: 76 76 13
Width: 999
VWidth: 0
Flags: W
HStem: -5 51<537.541 827.482> 783 20G<438.696 470.93>
VStem: 418 49<140.398 386 442 715>
LayerCount: 2
Fore
SplineSet
418 442 m 1
 420 528 424 613 422 715 c 1
 184 566 l 1
 418 442 l 1
467 397 m 2
 466 313 468 230 482 136 c 0
 494 62 591 48 706 46 c 0
 802 44 825 63 907 128 c 2
 926 143 l 1
 942 122 l 1
 958 104 l 1
 938 88 l 2
 856 23 812 -7 704 -5 c 0
 601 -3 452 3 433 128 c 0
 419 220 417 304 418 386 c 1
 122 542 l 1
 84 563 l 1
 121 586 l 1
 434 780 l 1
 470 803 l 1
 472 760 l 2
 476 628 470 519 468 415 c 1
 467 409 l 1
 467 397 l 2
EndSplineSet
Validated: 33
EndChar

StartChar: G
Encoding: 71 71 14
Width: 999
VWidth: 0
Flags: W
HStem: 798 20G<170 202.182 718.5 724>
VStem: 724 52<722.68 786>
LayerCount: 2
Fore
SplineSet
486 341 m 0
 484 339 481 333 479 331 c 0
 453 289 435 234 427 146 c 0
 425 130 428 119 434 108 c 0
 466 47 617 28 706 76 c 0
 748 98 784 137 808 178 c 0
 849 248 845 304 810 326 c 0
 728 374 626 372 506 346 c 0
 499 344 493 343 486 341 c 0
97 288 m 2
 215 314 331 354 440 382 c 0
 445 384 464 390 466 394 c 0
 470 400 496 414 500 420 c 0
 504 426 497 422 502 428 c 1
 490 424 458 420 446 418 c 0
 252 392 212 638 157 778 c 2
 148 802 l 1
 170 810 l 1
 194 818 l 1
 203 796 l 2
 268 629 300 441 438 460 c 0
 504 470 590 531 646 613 c 0
 694 681 713 764 724 786 c 1
 724 786 776 807 776 782 c 0
 776 762 772 774 770 766 c 0
 768 764 766 758 764 752 c 0
 722 654 680 583 642 530 c 0
 602 475 564 437 533 402 c 1
 642 421 747 420 836 368 c 0
 912 324 893 224 851 152 c 0
 823 104 782 60 730 32 c 0
 629 -22 444 -18 390 84 c 0
 380 103 376 128 378 152 c 0
 385 226 397 280 419 324 c 1
 321 298 217 264 108 240 c 2
 83 234 l 1
 78 258 l 1
 72 283 l 1
 97 288 l 2
EndSplineSet
Validated: 33
EndChar

StartChar: Q
Encoding: 81 81 15
Width: 999
VWidth: 0
Flags: W
HStem: 788 20G<746 772>
VStem: 246 50<-16 355.176 405.537 532> 722 50<370 806>
LayerCount: 2
Fore
SplineSet
746 806 m 1
 772 808 l 1
 772 782 l 1
 778 343 l 1
 778 316 l 1
 750 318 l 1
 299.97529718 355.175953711 l 1
 296 8 l 1
 296 -17 l 1
 271 -16 l 1
 246 -16 l 1
 246 10 l 1
 246 11 245 10 246 10 c 1
 253 564 l 1
 253 595 l 1
 283 588 l 1
 503 539 l 1
 528 534 l 1
 522 509 l 1
 517 485 l 1
 492 491 l 1
 302 532 l 1
 300.551954242 405.537337146 l 1
 727 370 l 1
 722 782 l 1
 722 806 l 1
 746 806 l 1
EndSplineSet
Validated: 8912901
EndChar

StartChar: D
Encoding: 68 68 16
Width: 999
VWidth: 0
Flags: W
HStem: 774 20G<184 218 781 816>
LayerCount: 2
Fore
SplineSet
184 778 m 1
 203 794 l 1
 218 775 l 1
 499.5 428.285833333 l 1
 781 775 l 1
 797 794 l 1
 816 778 l 1
 835 762 l 1
 818 743 l 1
 530.99052774 389.5 l 1
 818 36 l 1
 835 17 l 1
 816 1 l 1
 797 -14 l 1
 781 4 l 1
 499.5 350.714166667 l 1
 218 4 l 1
 203 -14 l 1
 184 1 l 1
 166 17 l 1
 181 36 l 1
 468.00947226 389.5 l 1
 181 743 l 1
 166 762 l 1
 184 778 l 1
EndSplineSet
Validated: 524289
EndChar

StartChar: B
Encoding: 66 66 17
Width: 999
VWidth: 0
Flags: W
HStem: 26 50<552.408 760.196>
VStem: 136 50<173.98 584.043> 360 49<461.269 584.4> 768 49<76.5814 161.425>
LayerCount: 2
Fore
SplineSet
778 662 m 1
 756 648 l 1
 742 668 l 2
 720 698 687 744 670 743 c 0
 472 731 360 747 251 635 c 0
 168 550 185 514 186 398 c 0
 187 279 174 190 260 104 c 0
 368 -5 510 64 752 76 c 1
 759 88 766 126 768 144 c 2
 772 169 l 1
 797 166 l 1
 821 160 l 1
 817 136 l 2
 816 128 818 28 760 26 c 0
 534 15 361 -68 224 70 c 0
 122 173 137 285 136 397 c 0
 135 509 115 568 215 670 c 0
 351 809 485 785 671 793 c 0
 721 795 760 728 782 698 c 2
 797 677 l 1
 778 662 l 1
385 587 m 1
 409 590 l 1
 412 565 l 2
 423 485 428 438 462 440 c 0
 500 444 501 519 499 580 c 2
 499 586 l 1
 548 582 l 2
 555 581 561 517 563 503 c 0
 586 405 585 338 523 253 c 0
 511 236 492 231 476 232 c 0
 436 234 381 275 385 322 c 2
 388 348 l 1
 412 346 l 1
 438 342 l 1
 434 318 l 2
 435 310 468 280 482 282 c 1
 520 336 534 405 529 457 c 1
 517 439 494 392 468 390 c 0
 371 380 370 506 362 558 c 2
 360 583 l 1
 385 587 l 1
EndSplineSet
Validated: 33
EndChar

StartChar: A
Encoding: 65 65 18
Width: 999
VWidth: 0
Flags: W
HStem: -2 50<190 821> 565 49<474.011 524.038> 724 50<277.896 372.889 640.038 712.466>
LayerCount: 2
Fore
SplineSet
168 578 m 1
 146 592 l 1
 158 614 l 2
 196 680 236 776 342 774 c 0
 464 772 450 615 497 614 c 0
 533 613 567 773 661 769 c 0
 756 764 801 680 850 614 c 2
 864 595 l 1
 844 580 l 1
 824 565 l 1
 809 586 l 2
 754 660 721 717 659 719 c 0
 629 721 592 563 494 565 c 0
 379 567 403 722 341 724 c 0
 274 726 249 666 202 588 c 2
 190 566 l 1
 168 578 l 1
502 440 m 1
 190 48 l 1
 821 47 l 1
 502 440 l 1
482 496 m 1
 502 520 l 1
 520 496 l 1
 892 38 l 1
 926 -2 l 1
 874 -2 l 1
 137 -2 l 1
 85 -2 l 1
 118 38 l 1
 482 496 l 1
EndSplineSet
Validated: 33
EndChar

StartChar: E
Encoding: 69 69 19
Width: 999
VWidth: 0
Flags: W
HStem: -14 48.6928<172 239.16 289.333 358>
VStem: 239.16 50.1729<34.6928 240.716> 546 48<52.8125 117.339>
LayerCount: 2
Fore
SplineSet
172 10 m 1
 172 35 l 1
 198 35 l 1
 239.159859163 34.6928368719 l 1
 231.557396178 186.053199177 194.344741032 298.291523839 202 438 c 0
 204 480 210 525 222 574 c 0
 251 684 332 803 462 781 c 0
 478 779 494 774 512 769 c 0
 634 735 820 646 780 498 c 0
 725 295 417 396 251 412 c 1
 249.072929934 294.448725973 282.425050741 185.253049785 289.33270959 34.318412615 c 1
 332 34 l 1
 358 32 l 1
 358 8 l 1
 358 -18 l 1
 332 -17 l 1
 197 -14 l 1
 172 -14 l 1
 172 10 l 1
253 462 m 1
 453 443 694 368 732 511 c 0
 757 605 629 686 499 721 c 0
 483 725 468 730 454 732 c 0
 366 748 299 665 271 562 c 0
 261 527 255 494 253 462 c 1
598 218 m 0
 599 228 600 237 598 248 c 0
 597 252 587 262 571 260 c 0
 569 259 564 258 562 257 c 0
 516 228 498 198 509 185 c 0
 519 173 534 183 588 212 c 0
 590 214 596 216 598 218 c 0
644 192 m 1
 648 186 l 1
 642 182 l 2
 641 177 640 174 638 170 c 0
 626 133 610 105 600 67 c 2
 594 42 l 1
 570 49 l 1
 546 55 l 1
 552 79 l 2
 560 107 570 129 578 149 c 1
 550 135 504 113 470 154 c 0
 421 216 500 276 536 299 c 0
 546 305 553 308 563 310 c 0
 595 314 641 297 647 254 c 0
 649 231 648 211 644 192 c 1
EndSplineSet
Validated: 524321
EndChar

StartChar: I
Encoding: 73 73 20
Width: 999
VWidth: 0
Flags: W
LayerCount: 2
Fore
SplineSet
121 578 m 1
 98 588 l 1
 108 612 l 2
 122 644 147 678 175 710 c 0
 236 777 337 842 419 768 c 0
 450.595280854 738.835125365 478.754930684 708.916822875 503.34815408 678.12476075 c 1
 527.643622402 711.663485884 555.902822253 740.653863594 588 763 c 0
 688 833 803 750 864 664 c 0
 866 662 868 657 870 655 c 2
 883 634 l 1
 862 620 l 1
 842 607 l 1
 828 628 l 2
 826 630 824 633 822 635 c 0
 764 717 678 764 617 722 c 0
 585.888479526 700.175500563 558.604247765 669.94174705 535.522770677 634.302467136 c 1
 626.631909658 498.509398894 650.905481865 345.580579287 598 166 c 0
 587.136052077 129.605774458 572.436279809 98.8177537286 554.381516225 73.6359378116 c 1
 633.407533355 22.8139646297 745.062848338 24.2049974385 842 122 c 1
 860 142 l 1
 878 122 l 1
 895 106 l 1
 878 88 l 1
 762.877592192 -28.0012048146 619.952953973 -31.2489196331 520.487592822 36.178632082 c 1
 514.552198196 31.0333116852 508.386391125 26.3071009912 502 22 c 0
 386 -56 227 14 132 156 c 2
 118 178 l 1
 139 191 l 1
 160 205 l 1
 173 184 l 1
 261 53 392 8 474 62 c 0
 476.722302837 63.8715832006 479.40118224 65.8589622252 482.035406837 67.9645998185 c 1
 482.023603558 67.9763986608 482.011801279 67.9881987213 482 68 c 0
 447 103 420 148 408 200 c 0
 377.344282628 329.752106087 401.580660886 504.739365054 475.273874537 634.374106273 c 1
 449.856082455 667.660230063 419.73185587 700.095155654 385 732 c 0
 339 774 272 744 212 677 c 0
 187 649 166 616 154 590 c 2
 143 568 l 1
 121 578 l 1
515.768382085 105.265910199 m 1
 529.149333182 125.157901787 540.653214686 149.882580656 550 180 c 0
 596.320477766 336.507068816 581.07109039 467.401073733 508.400122335 586.163939261 c 1
 452.368537062 471.769807894 432.572298016 323.078908667 458 212 c 0
 467.732787519 170.14901367 488.832833383 133.034384985 515.768382085 105.265910199 c 1
EndSplineSet
Validated: 524321
EndChar

StartChar: U
Encoding: 85 85 21
Width: 999
VWidth: 0
Flags: W
HStem: 362 51<531.58 826.489> 715 51<263.749 743.305> 754 49<150 169>
LayerCount: 2
Fore
SplineSet
455 389 m 1x80
 377 401 303 418 211 432 c 1
 460 94 l 1
 446 182 417 287 455 389 c 1x80
148 778 m 1
 150 803 l 1xa0
 175 802 l 1
 309 788 380 768 512 766 c 0
 626 764 691 781 810 791 c 2
 872 796 l 1
 830 749 l 2
 710 613 603 561 529 428 c 1
 584 420 642 415 710 413 c 0
 775 411 807 431 880 460 c 2
 902 469 l 1
 912 446 l 1
 922 422 l 1
 898 414 l 2
 831 388 788 360 709 362 c 0
 632 364 567 374 506 382 c 1
 454 261 501 188 512 40 c 2
 518 -44 l 1
 457 19 l 1
 134 450 l 1
 98 498 l 1
 158 490 l 2
 285 472 380 452 478 436 c 1
 550 575 647 634 748 734 c 1
 671 724 607 713 512 715 c 0xc0
 375 717 300 737 169 751 c 2
 144 754 l 1xa0
 148 778 l 1
EndSplineSet
Validated: 8388641
EndChar

StartChar: R
Encoding: 82 82 22
Width: 999
VWidth: 0
Flags: W
HStem: 1 48<593.49 661.102> 788 20G<382 413.565 584.174 614>
VStem: 78 50<296.348 533.196> 836 50<146.232 247.902 535.226 644.73>
LayerCount: 2
Fore
SplineSet
415 785 m 1
 427 763 l 1
 404 752 l 1
 250 673 126 581 128 418 c 0
 130 240 248 138 418 60 c 1
 439 49 l 1
 428 26 l 1
 418 4 l 1
 396 14 l 2
 220 96 80 215 78 418 c 0
 76 612 228 717 382 796 c 1
 404 808 l 1
 415 785 l 1
583 782 m 1
 592 805 l 1
 614 797 l 2
 720 759 885 726 887 578 c 0
 889 451 646 420 638 408 c 1
 648 389 886 334 886 202 c 0
 886 68 712 34 618 8 c 2
 594 1 l 1
 587 25 l 1
 580 49 l 1
 604 56 l 2
 714 88 836 120 836 202 c 0
 836 298 587 305 587 408 c 0
 587 517 840 488 838 577 c 0
 836 679 719 707 598 749 c 1
 575 758 l 1
 583 782 l 1
EndSplineSet
Validated: 33
EndChar

StartChar: O
Encoding: 79 79 23
Width: 999
VWidth: 0
Flags: W
HStem: 280 50<470.955 515.037> 814 20G<493.786 510.276>
LayerCount: 2
Fore
SplineSet
188 -1 m 1
 166 8 l 1
 175 32 l 1
 479 778 l 1
 502 834 l 1
 526 776 l 1
 822 28 l 1
 830 4 l 1
 808 -5 l 1
 784 -14 l 1
 775 10 l 1
 502 700 l 1
 221 12 l 1
 212 -11 l 1
 188 -1 l 1
419 238 m 0
 415 270 426 328 478 330 c 0
 526 334 561 295 566 253 c 0
 572 211 543 166 496 164 c 0
 448 162 424 204 419 238 c 0
469 245 m 0
 471 222 484 213 492 214 c 0
 506 215 520 229 518 247 c 0
 516 269 499 282 481 280 c 0
 475 280 467 269 469 245 c 0
EndSplineSet
Validated: 33
EndChar

StartChar: ltd01
Encoding: 256 -1 24
Width: 999
VWidth: 0
Flags: W
HStem: 772 20G<795.29 868.844>
LayerCount: 2
Fore
SplineSet
808 536 m 1
 782 542 l 1
 758 547 l 1
 766 572 l 1
 791 689 l 1
 107 22 l 1
 88 5 l 1
 71 22 l 1
 53 41 l 1
 72 58 l 1
 734 706 l 1
 611 674 l 1
 599 722 l 1
 630 730 l 1
 874 792 l 1
 808 536 l 1
EndSplineSet
Validated: 1
EndChar

StartChar: V
Encoding: 86 86 25
Width: 999
VWidth: 0
Flags: W
HStem: 794 20G<647 673.625>
VStem: 277 49<305.347 538.566> 437 50<308.53 508.06>
LayerCount: 2
Fore
SplineSet
584 734 m 1
 420 664 320 559 326 425 c 0
 332 273 415 146 582 70 c 1
 480 202 439 349 437 422 c 0
 435 502 507 626 584 734 c 1
683 782 m 1
 673 770 l 1
 579 650 485 489 487 424 c 0
 489 352 544 161 686 29 c 1
 694 22 l 1
 674 -17 l 1
 662 -13 l 1
 414 57 285 223 277 422 c 0
 269 613 433 743 647 810 c 1
 658 814 l 1
 683 782 l 1
EndSplineSet
Validated: 33
EndChar

StartChar: ltd02
Encoding: 257 -1 26
Width: 999
VWidth: 0
Flags: W
HStem: 640 50<286 459.316 550.267 701> 760 51<473 532>
LayerCount: 2
Fore
SplineSet
504 714 m 1
 532 760 l 1
 473 760 l 1
 504 714 l 1
227 582 m 1
 204 593 l 1
 216 616 l 1
 248 677 l 1
 254 690 l 1
 270 690 l 1
 459.315964953 691.713266651 l 1
 406 770 l 1
 379 808 l 1
 426 809 l 1
 576 811 l 1
 620 812 l 1
 598 773 l 1
 550.267329786 692.536355926 l 1
 712 694 l 1
 725 694 l 1
 733 684 l 1
 779 623 l 1
 794 602 l 1
 774 588 l 1
 754 574 l 1
 739 593 l 1
 701 644 l 1
 286 640 l 1
 260 592 l 1
 248 570 l 1
 227 582 l 1
EndSplineSet
Validated: 8912897
EndChar

StartChar: ltd03
Encoding: 258 -1 27
Width: 999
VWidth: 0
Flags: W
HStem: 324 50<58 486.328> 339.67 49.899<396.648 808.509> 406 50<853.089 899.037>
LayerCount: 2
Fore
SplineSet
56 349 m 1xa0
 55 374 l 1
 80 374 l 1
 79 374 80 373 80 374 c 1xa0
 802.976276913 389.568802733 l 1
 806.353060301 419.990465141 822.117532277 454.466058934 862 456 c 0
 910 460 945 421 950 379 c 0
 956 337 927 292 880 290 c 0
 843.146906668 288.464454444 820.441214254 312.865810573 809.62000832 339.669758232 c 1x60
 82 325 l 1
 82 326 81 325 82 325 c 1
 58 324 l 1
 56 349 l 1xa0
852 372 m 0
 854 349 869 339 877 340 c 0
 891 341 903 354 901 372 c 0
 899 394 883 408 865 406 c 0
 859 406 850 396 852 372 c 0
EndSplineSet
Validated: 8912933
EndChar

StartChar: ltd04
Encoding: 259 -1 28
Width: 999
VWidth: 0
Flags: W
HStem: 752 20G<874 898.769>
VStem: 850 49<248.591 770> 859 51<14 601.591>
LayerCount: 2
Fore
SplineSet
874 770 m 1xc0
 898 772 l 1
 899 746 l 1xc0
 910 40 l 1
 910 14 l 1
 884 14 l 1
 859 14 l 1
 859 40 l 1xa0
 850 746 l 1
 848 770 l 1
 874 770 l 1xc0
EndSplineSet
Validated: 8388609
EndChar

StartChar: ltd05
Encoding: 260 -1 29
Width: 999
VWidth: 0
Flags: W
HStem: -158 136
VStem: 454 153
LayerCount: 2
Fore
SplineSet
469 -41 m 1
 485 -22 l 1
 607 -119 l 1
 590 -139 l 1
 575 -158 l 1
 454 -61 l 1
 469 -41 l 1
EndSplineSet
Validated: 1
EndChar

StartChar: ltd06
Encoding: 261 -1 30
Width: 999
VWidth: 0
Flags: W
HStem: -64 50<468.724 515.037>
VStem: 419 147
LayerCount: 2
Fore
SplineSet
419 -106 m 0
 415 -74 426 -16 478 -14 c 0
 526 -10 561 -49 566 -91 c 0
 572 -133 543 -178 496 -180 c 0
 448 -182 424 -140 419 -106 c 0
468 -98 m 0
 470 -121 484 -131 492 -130 c 0
 506 -129 520 -116 518 -98 c 0
 516 -76 499 -62 481 -64 c 0
 475 -64 466 -74 468 -98 c 0
EndSplineSet
Validated: 33
EndChar

StartChar: ltd07
Encoding: 262 -1 31
Width: 999
VWidth: 0
Flags: W
HStem: 22 21G<134 170> 762 20G<762 788>
VStem: 762 50<595.75 781> 878 47<579.046 646>
LayerCount: 2
Fore
SplineSet
788 781 m 1
 812 781 l 1
 812 756 l 2
 810 634 799 550 696 458 c 0
 584 358 444 464 358 406 c 0
 237 327 197 267 102 152 c 2
 86 132 l 1
 68 148 l 1
 48 166 l 1
 62 184 l 1
 156 296 205 363 332 446 c 0
 462 531 582 425 662 497 c 0
 753 579 760 636 762 757 c 2
 762 782 l 1
 788 781 l 1
910 662 m 1
 932 654 l 1
 925 630 l 1
 885 509 864 439 763 348 c 0
 651 248 513 351 427 293 c 0
 306 214 265 155 170 40 c 1
 154 22 l 1
 134 37 l 1
 116 52 l 1
 132 72 l 2
 226 184 271 252 398 335 c 0
 528 420 650 313 730 385 c 0
 822 468 838 524 878 646 c 2
 886 670 l 1
 910 662 l 1
EndSplineSet
Validated: 33
EndChar

StartChar: ltd08
Encoding: 263 -1 32
Width: 999
VWidth: 0
Flags: W
HStem: 753 20G<635.667 670>
VStem: 485 50<258.112 534.958>
LayerCount: 2
Fore
SplineSet
670 758 m 1
 690 743 l 1
 674 722 l 1
 580 592 530 521 535 376 c 0
 540 236 606 173 700 47 c 2
 715 26 l 1
 695 12 l 1
 674 -2 l 1
 660 17 l 2
 568 139 490 216 485 374 c 0
 480 535 541 624 635 752 c 1
 649 773 l 1
 670 758 l 1
EndSplineSet
Validated: 33
EndChar

StartChar: lt_ZA
Encoding: 264 -1 33
Width: 999
VWidth: 0
Flags: W
HStem: -2 49.336<190 612.408 649.065 821> 565 49<474.011 524.038> 724 50<277.896 372.889 640.038 712.466>
VStem: 608.089 40.1665<-54.0664 -2 47.336 97.2743>
LayerCount: 2
Fore
SplineSet
168 578 m 1
 146 592 l 1
 158 614 l 2
 196 680 236 776 342 774 c 0
 464 772 450 615 497 614 c 0
 533 613 567 773 661 769 c 0
 756 764 801 680 850 614 c 2
 864 595 l 1
 844 580 l 1
 824 565 l 1
 809 586 l 2
 754 660 721 717 659 719 c 0
 629 721 592 563 494 565 c 0
 379 567 403 722 341 724 c 0
 274 726 249 666 202 588 c 2
 190 566 l 1
 168 578 l 1
502 440 m 1
 190 48 l 1
 608.964371115 47.3360311076 l 1
 611.435535792 63.665783752 615.997062794 78.193244427 622 92 c 0
 633 118 650 141 670 169 c 1
 674 178 l 1
 682 185 l 1
 688 179 l 1
 697 173 l 1
 706 168 l 1
 713 162 l 1
 707 154 l 1
 701 146 l 2
 681 120 668 100 658 78 c 0
 653.956816813 68.3974399309 650.935341769 58.2840257905 649.064667154 47.2724807177 c 1
 821 47 l 1
 502 440 l 1
482 496 m 1
 502 520 l 1
 520 496 l 1
 892 38 l 1
 926 -2 l 1
 874 -2 l 1
 648.255781926 -2 l 1
 649.309774325 -8.26905887103 650.826905887 -14.1345294355 652 -20 c 0
 662 -52 681 -75 710 -113 c 1
 718 -121 l 1
 722 -130 l 1
 715 -134 l 1
 707 -142 l 1
 698 -146 l 1
 691 -154 l 1
 685 -145 l 1
 679 -137 l 2
 654 -103 630 -77 617 -41 c 0
 612.44972111 -28.8659229599 609.624862051 -16.1567059761 608.0892483 -2 c 1
 137 -2 l 1
 85 -2 l 1
 118 38 l 1
 482 496 l 1
EndSplineSet
Validated: 524321
Ligature2: "ltligs1" Z A
EndChar

StartChar: lt_ZB
Encoding: 265 -1 34
Width: 999
VWidth: 0
Flags: W
HStem: 26 50<642.4 760.196>
VStem: 136 50<173.98 584.043> 360 49<461.269 584.4> 593.876 40.085<65.7435 134.217> 768 49<76.5814 161.425>
LayerCount: 2
Fore
SplineSet
684 214 m 1
 692 208 l 1
 700 202 l 1
 694 194 l 1
 688 187 l 2
 668 161 656 140 646 118 c 0
 639.254671909 101.979845783 634.642130586 85.9596915665 633.960669344 65.7435196201 c 1
 670.48915102 70.0667668188 709.718257509 73.9033846699 752 76 c 1
 759 88 766 126 768 144 c 2
 772 169 l 1
 797 166 l 1
 821 160 l 1
 817 136 l 2
 816 128 818 28 760 26 c 0
 718.448141395 23.9775644042 678.687878032 19.5212635752 640.613553714 14.4521131129 c 1
 651.415979153 -13.935147762 671.323202232 -37.0441960284 698 -72 c 2
 704 -80 l 1
 710 -88 l 1
 702 -94 l 1
 694 -100 l 1
 686 -106 l 1
 678 -112 l 1
 672 -104 l 1
 666 -96 l 2
 641 -62 615 -36 602 0 c 0
 600.916639453 2.88896145804 599.996288639 5.77792291608 599.209514505 8.69043081585 c 0
 449.225273168 -12.7757374138 326.530792064 -33.2791920065 224 70 c 0
 122 173 137 285 136 397 c 0
 135 509 115 568 215 670 c 0
 351 809 485 785 671 793 c 0
 721 795 760 728 782 698 c 2
 797 677 l 1
 778 662 l 1
 756 648 l 1
 742 668 l 2
 720 698 687 744 670 743 c 0
 472 731 360 747 251 635 c 0
 168 550 185 514 186 398 c 0
 187 279 174 190 260 104 c 0
 342.034145376 21.2062792036 443.684754595 41.1105161708 593.875713788 60.7261466434 c 1
 593.967520316 88.7831025156 598.924761156 112.126950659 608 133 c 0
 619 159 636 182 656 210 c 2
 662 218 l 1
 668 227 l 1
 676 221 l 1
 684 214 l 1
385 587 m 1
 409 590 l 1
 412 565 l 2
 423 485 428 438 462 440 c 0
 500 444 501 519 499 580 c 2
 499 586 l 1
 548 582 l 2
 555 581 561 517 563 503 c 0
 586 405 585 338 523 253 c 0
 511 236 492 231 476 232 c 0
 436 234 381 275 385 322 c 2
 388 348 l 1
 412 346 l 1
 438 342 l 1
 434 318 l 2
 435 310 468 280 482 282 c 1
 520 336 534 405 529 457 c 1
 517 439 494 392 468 390 c 0
 371 380 370 506 362 558 c 2
 360 583 l 1
 385 587 l 1
EndSplineSet
Validated: 524321
Ligature2: "ltligs1" Z B
EndChar

StartChar: lt_ZC
Encoding: 266 -1 35
Width: 999
VWidth: 0
Flags: W
HStem: 2.5941 50.6929<172 593.961 645.777 820> 754 50<480.724 527.037>
VStem: 593.961 40.041<53.3488 134.217>
LayerCount: 2
Fore
SplineSet
498 580 m 1
 172 54 l 1
 593.961307229 53.3488251432 l 1
 593.141866119 84.7319486435 598.140873847 110.324009849 608 133 c 0
 619 159 636 182 656 210 c 2
 662 218 l 1
 668 227 l 1
 676 221 l 1
 684 214 l 1
 692 208 l 1
 700 202 l 1
 694 194 l 1
 688 187 l 2
 668 161 656 140 646 118 c 0
 638 99 633 80 634 54 c 0
 634 53.7615600651 634.00235321 53.5239097637 634.00235321 53.2870334055 c 2
 820 53 l 1
 498 580 l 1
431 712 m 0
 427 744 438 802 490 804 c 0
 538 808 573 770 578 728 c 0
 583.540056435 689.219604958 559.240449385 647.028962661 518.483693779 639.213997609 c 1
 886 42 l 1
 910 2 l 1
 865 2 l 1
 645.77676386 2.59410091095 l 1
 657.224164829 -20.7584184844 675.12283251 -42.0230219098 698 -72 c 2
 704 -80 l 1
 710 -88 l 1
 702 -94 l 1
 694 -100 l 1
 686 -106 l 1
 678 -112 l 1
 672 -104 l 1
 666 -96 l 2
 641 -62 615 -36 602 0 c 0
 601.660669402 0.904881594354 601.337331201 1.80976318871 601.029080944 2.71536834432 c 2
 127 4 l 1
 82 4 l 1
 106 42 l 1
 478 640 l 1
 479.530885466 642.602505291 l 1
 450.282200226 654.250059417 434.890228009 685.546449542 431 712 c 0
481 720 m 0
 483 697 496 687 504 688 c 0
 518 689 531 703 529 721 c 0
 527 743 511 756 493 754 c 0
 487 754 479 744 481 720 c 0
EndSplineSet
Validated: 524321
Ligature2: "ltligs1" Z C
EndChar

StartChar: lt_ZD
Encoding: 267 -1 36
Width: 999
VWidth: 0
Flags: W
HStem: 774 20G<184 218 781 816>
VStem: 588 40<12.0714 127.918>
LayerCount: 2
Fore
SplineSet
184 778 m 1
 203 794 l 1
 218 775 l 1
 499.5 428.285833333 l 1
 781 775 l 1
 797 794 l 1
 816 778 l 1
 835 762 l 1
 818 743 l 1
 530.99052774 389.5 l 1
 671.596977234 216.319723041 l 1
 683.871626109 225.413125646 696.28295557 232.470850248 709 238 c 0
 735 249 764 253 798 258 c 2
 806 259 l 1
 817 262 l 1
 818 251 l 1
 820 241 l 1
 822 230 l 1
 823 221 l 1
 814 218 l 1
 803 218 l 1
 769 213 747 208 725 200 c 0
 715.339944105 195.932608044 706.196878125 191.089731214 697.176526945 184.814244312 c 1
 818 36 l 1
 835 17 l 1
 816 1 l 1
 797 -14 l 1
 781 4 l 1
 662.050853355 150.505698952 l 1
 658.220216413 145.400086139 654.937526918 140.70004307 652 136 c 0
 636 108 635 76 628 28 c 2
 626 18 l 1
 624 8 l 1
 614 10 l 1
 605 11 l 1
 595 12 l 1
 586 14 l 1
 587 24 l 1
 588 34 l 2
 594 76 595 111 612 146 c 0
 617.837129702 157.674259405 625.760305313 170.739216082 635.769526831 182.875532787 c 1
 499.5 350.714166667 l 1
 218 4 l 1
 203 -14 l 1
 184 1 l 1
 166 17 l 1
 181 36 l 1
 468.00947226 389.5 l 1
 181 743 l 1
 166 762 l 1
 184 778 l 1
EndSplineSet
Validated: 524289
Ligature2: "ltligs1" Z D
EndChar

StartChar: lt_ZE
Encoding: 268 -1 37
Width: 999
VWidth: 0
Flags: W
HStem: -14 48.6928<172 239.16 289.333 358>
VStem: 239.16 50.1729<34.6928 240.716> 316 40<336.396 396.744> 546 48<52.8125 117.339>
LayerCount: 2
Fore
SplineSet
172 10 m 1
 172 35 l 1
 198 35 l 1
 239.159859163 34.6928368719 l 1
 231.557396178 186.053199177 194.344741032 298.291523839 202 438 c 0
 204 480 210 525 222 574 c 0
 251 684 332 803 462 781 c 0
 478 779 494 774 512 769 c 0
 634 735 820 646 780 498 c 0
 735.234801432 332.775721649 522.8687699 368.937424409 355.877859718 396.744231753 c 1
 355.858735423 394.221260531 355.898400081 391.641597896 356 389 c 0
 356 377 359 368 361 358 c 0
 371 326 391 301 420 263 c 2
 426 254 l 1
 432 248 l 1
 424 242 l 1
 416 235 l 1
 408 229 l 1
 400 223 l 1
 394 232 l 1
 388 239 l 2
 363 273 339 299 326 335 c 0
 320 351 317 368 316 388 c 0
 315.835172294 393.274486604 315.990065923 398.358795998 315.990065923 403.275318521 c 1
 292.745579401 406.955918417 270.856860715 410.086085714 251 412 c 1
 249.072929934 294.448725973 282.425050741 185.253049785 289.33270959 34.318412615 c 1
 332 34 l 1
 358 32 l 1
 358 8 l 1
 358 -18 l 1
 332 -17 l 1
 197 -14 l 1
 172 -14 l 1
 172 10 l 1
598 218 m 0
 599 228 600 237 598 248 c 0
 597 252 587 262 571 260 c 0
 569 259 564 258 562 257 c 0
 516 228 498 198 509 185 c 0
 519 173 534 183 588 212 c 0
 590 214 596 216 598 218 c 0
644 192 m 1
 648 186 l 1
 642 182 l 2
 641 177 640 174 638 170 c 0
 626 133 610 105 600 67 c 2
 594 42 l 1
 570 49 l 1
 546 55 l 1
 552 79 l 2
 560 107 570 129 578 149 c 1
 550 135 504 113 470 154 c 0
 421 216 500 276 536 299 c 0
 546 305 553 308 563 310 c 0
 595 314 641 297 647 254 c 0
 649 231 648 211 644 192 c 1
406 550 m 1
 414 544 l 1
 422 538 l 1
 416 530 l 1
 410 522 l 2
 390 496 378 476 368 454 c 0
 367.110541501 451.887536065 366.258167522 449.762710623 365.447001205 447.618651771 c 1
 534.422979586 422.847976579 700.955421089 394.174347784 732 511 c 0
 757 605 629 686 499 721 c 0
 483 725 468 730 454 732 c 0
 366 748 299 665 271 562 c 0
 261 527 255 494 253 462 c 1
 276.389655624 459.777982716 300.340064138 456.790059045 324.460950013 453.474489214 c 1
 326.08889975 458.430565934 327.938171451 463.257794337 330 468 c 0
 341 494 358 518 378 546 c 2
 384 553 l 1
 390 562 l 1
 398 556 l 1
 406 550 l 1
EndSplineSet
Validated: 524321
Ligature2: "ltligs1" Z E
EndChar

StartChar: lt_ZF
Encoding: 269 -1 38
Width: 999
VWidth: 0
Flags: W
HStem: 17 21G<474 524> 22 21G<134 170> 302.084 67.6796<410.912 472.144 523.952 621.992> 415.742 59.9227<521.855 667.325> 765 20G<479 515.143 762 788>
VStem: 474 50<18 310.045 369.763 415.742 480.557 681.757> 622 40<207.531 302.084> 762 50<595.75 781> 878 47<579.046 646>
LayerCount: 2
Fore
SplineSet
479 766 m 1x7f80
 498 785 l 1
 516 764 l 1
 706.764069741 543.429044362 l 1
 755.574415811 604.062924925 760.39573975 659.942254857 762 757 c 2
 762 782 l 1
 788 781 l 1
 812 781 l 1
 812 756 l 2
 810 634 799 550 696 458 c 0
 641.436754311 409.28281635 580.228089471 409.456930745 521.855141418 415.74160785 c 1
 522.119004523 369.763461857 l 1
 563.820609541 369.408452611 603.251209438 360.712881691 639.022303775 358.827739145 c 1
 649.849570137 382.258839287 664.761586419 404.466221002 683 430 c 2
 689 438 l 1
 695 446 l 1
 703 440 l 1
 710 434 l 1
 719 428 l 1
 728 422 l 1
 722 414 l 1
 716 407 l 2
 703.211805629 390.375347317 692.876679987 375.794918576 684.471784411 361.690197795 c 1
 700.805973894 365.324874897 716.042237254 372.438013522 730 385 c 0
 822 468 838 524 878 646 c 2
 886 670 l 1
 910 662 l 1
 932 654 l 1
 925 630 l 1
 885 509 864 439 763 348 c 0
 731.148085803 319.560790896 697.193321209 307.539990666 662.929808283 303.565123005 c 1
 661.865407054 294.598653983 661.580141931 284.916309784 662 274 c 0
 662 262 664 251 666 241 c 0
 676 209 696 186 725 148 c 2
 732 140 l 1
 738 132 l 1
 730 126 l 1
 722 120 l 1
 713 113 l 1
 706 108 l 1
 698 116 l 1
 694 122 l 2
 669 156 644 184 631 220 c 0
 625 236 623 252 622 272 c 0
 621.663891972 282.755456899 622.005595583 292.720133552 622.987141178 302.083878238 c 1
 588.469085647 303.103012203 554.345324736 308.997740886 522.455181895 311.184554855 c 1
 524 42 l 1
 524 18 l 1
 499 17 l 1
 474 17 l 1xbf80
 474 42 l 1
 472.46172221 310.044904821 l 1
 456.168283342 307.546279233 440.904489737 302.377446567 427 293 c 0
 306 214 265 155 170 40 c 1
 154 22 l 1
 134 37 l 1
 116 52 l 1
 132 72 l 2
 226 184 271 252 398 335 c 0
 423.094236132 351.407769778 447.89037963 360.661316367 472.143878731 365.42913108 c 1
 471.820777793 421.729469607 l 1
 429.239841269 426.46300393 389.904064502 427.516694664 358 406 c 0
 237 327 197 267 102 152 c 2
 86 132 l 1
 68 148 l 1
 48 166 l 1
 62 184 l 1
 156 296 205 363 332 446 c 0
 380.396254774 477.643705045 427.406593882 482.816420862 471.483175915 480.556596771 c 1
 470.320565807 683.141408115 l 1
 300 505 l 1
 282 522 l 1
 263 539 l 1
 479 766 l 1x7f80
520.328513323 681.756553499 m 1
 521.511252411 475.664267429 l 1
 575.415470049 468.969642152 623.370886343 462.233797709 662 497 c 0
 676.680004606 510.228136019 689.174015617 522.805678706 699.81368417 535.106260354 c 2
 689 526 l 1
 670 508 l 1
 520.328513323 681.756553499 l 1
EndSplineSet
Validated: 524321
Ligature2: "ltligs1" Z F
EndChar

StartChar: lt_ZG
Encoding: 270 -1 39
Width: 999
VWidth: 0
Flags: W
HStem: 798 20G<170 202.182 718.5 724>
VStem: 594 40.0076<52.7199 134.217> 724 52<722.68 786>
LayerCount: 2
Fore
SplineSet
486 341 m 0
 484 339 481 333 479 331 c 0
 453 289 435 234 427 146 c 0
 425 130 428 119 434 108 c 0
 454.473308363 68.972755934 523.657169734 47.1374717536 594.150014478 49.0413255855 c 1
 594.09959799 50.0179599601 594.049798995 51.0040201002 594 52 c 0
 593 84 598 110 608 133 c 0
 619 159 636 182 656 210 c 2
 662 218 l 1
 668 227 l 1
 676 221 l 1
 684 214 l 1
 692 208 l 1
 700 202 l 1
 694 194 l 1
 688 187 l 2
 668 161 656 140 646 118 c 0
 638 99 633 80 634 54 c 0
 634 53.5707586732 634.007585469 53.144076348 634.007585469 52.7198614886 c 1
 659.899941554 56.8780063991 684.721903501 64.524172675 706 76 c 0
 748 98 784 137 808 178 c 0
 849 248 845 304 810 326 c 0
 728 374 626 372 506 346 c 0
 499 344 493 343 486 341 c 0
97 288 m 2
 215 314 331 354 440 382 c 0
 445 384 464 390 466 394 c 0
 470 400 496 414 500 420 c 0
 504 426 497 422 502 428 c 1
 490 424 458 420 446 418 c 0
 252 392 212 638 157 778 c 2
 148 802 l 1
 170 810 l 1
 194 818 l 1
 203 796 l 2
 268 629 300 441 438 460 c 0
 504 470 590 531 646 613 c 0
 694 681 713 764 724 786 c 1
 724 786 776 807 776 782 c 0
 776 762 772 774 770 766 c 0
 768 764 766 758 764 752 c 0
 722 654 680 583 642 530 c 0
 602 475 564 437 533 402 c 1
 642 421 747 420 836 368 c 0
 912 324 893 224 851 152 c 0
 823 104 782 60 730 32 c 0
 705.641426348 18.9766041858 676.397001379 9.32677237536 645.282715119 3.61161899172 c 1
 656.705980875 -20.143375985 674.791004935 -41.5882133628 698 -72 c 2
 704 -80 l 1
 710 -88 l 1
 702 -94 l 1
 694 -100 l 1
 686 -106 l 1
 678 -112 l 1
 672 -104 l 1
 666 -96 l 2
 641.383602172 -62.5216989533 615.797657076 -36.7997760448 602.60755101 -1.6501631783 c 1
 515.762664007 -7.25414221576 425.141734211 17.6211687118 390 84 c 0
 380 103 376 128 378 152 c 0
 385 226 397 280 419 324 c 1
 321 298 217 264 108 240 c 2
 83 234 l 1
 78 258 l 1
 72 283 l 1
 97 288 l 2
EndSplineSet
Validated: 524321
Ligature2: "ltligs1" Z G
EndChar

StartChar: lt_ZH
Encoding: 271 -1 40
Width: 999
VWidth: 0
Flags: W
HStem: 762 20G<752 785>
VStem: 590 40.9526<161.953 231.637>
LayerCount: 2
Fore
SplineSet
487 718 m 1
 498 696 l 1
 475 684 l 2
 327 610 195 545 215 463 c 0
 231 397 500 457 512 319 c 0
 525.97559319 157.282421657 370.543406519 87.244347709 242.669698162 2.44441642803 c 0
 242.446381037 2.29632283594 242.223147963 2.14818422208 242 2 c 1
 243 2 243 3 242 2 c 1
 222 -11 l 1
 209 10 l 1
 194 31 l 1
 216 44 l 1
 356 138 473 193 462 314 c 0
 454 397 203 300 167 452 c 0
 135 590 324 665 452 730 c 1
 475 740 l 1
 487 718 l 1
786 760 m 1
 798 738 l 1
 775 727 l 2
 627 653 495 588 515 506 c 0
 531 440 800 500 812 362 c 0
 822.545124882 239.977840653 736.641566133 170.718784703 638.902162362 107.643037162 c 1
 649.625678173 79.6239157576 668.57708868 56.6231251773 695 22 c 2
 701 14 l 1
 708 7 l 1
 698 1 l 1
 691 -6 l 1
 683 -12 l 1
 674 -18 l 1
 670 -10 l 1
 662 -2 l 1
 638.965747236 29.3265837589 617.629340234 53.8617844727 604.248156339 85.6847011723 c 1
 583.321125308 72.5690095792 562.308152096 59.4858822513 542 46 c 2
 522 31 l 1
 508 52 l 1
 494 72 l 1
 516 86 l 2
 541.97268486 103.438802691 567.153770319 119.604162869 590.872822841 135.140973743 c 0
 590.480722144 138.637503454 590.18758108 142.248378404 590 146 c 0
 589 178 595 205 605 228 c 0
 616 254 633 277 653 305 c 2
 659 312 l 1
 665 322 l 1
 673 314 l 1
 682 310 l 1
 689 302 l 1
 698 298 l 1
 692 289 l 1
 685 281 l 2
 665 255 652 236 642 214 c 0
 635.481872632 198.519447502 631.619119288 181.711207991 630.952617034 161.952650273 c 1
 713.779501495 219.093112781 769.762720784 272.610071372 762 358 c 0
 754 441 503 342 467 494 c 0
 435 632 624 707 752 772 c 1
 775 782 l 1
 786 760 l 1
EndSplineSet
Validated: 524325
Ligature2: "ltligs1" Z H
EndChar

StartChar: lt_ZI
Encoding: 272 -1 41
Width: 999
VWidth: 0
Flags: W
HStem: -8.1858 48.696<570.748 670.903 710.545 763.261>
LayerCount: 2
Fore
SplineSet
121 578 m 1
 98 588 l 1
 108 612 l 2
 122 644 147 678 175 710 c 0
 236 777 337 842 419 768 c 0
 450.595280854 738.835125365 478.754930684 708.916822875 503.34815408 678.12476075 c 1
 527.643622402 711.663485884 555.902822253 740.653863594 588 763 c 0
 688 833 803 750 864 664 c 0
 866 662 868 657 870 655 c 2
 883 634 l 1
 862 620 l 1
 842 607 l 1
 828 628 l 2
 826 630 824 633 822 635 c 0
 764 717 678 764 617 722 c 0
 585.888479526 700.175500563 558.604247765 669.94174705 535.522770677 634.302467136 c 1
 626.631909658 498.509398894 650.905481865 345.580579287 598 166 c 0
 587.136052077 129.605774458 572.436279809 98.8177537286 554.381516225 73.6359378116 c 1
 587.706486847 52.204505168 626.833849796 40.0579902311 668.213054203 40.5102404803 c 1
 669.473679719 63.4262407299 674.225939407 83.1196606365 682 101 c 0
 693 127 710 150 730 178 c 2
 736 186 l 1
 742 193 l 1
 750 188 l 1
 758 182 l 1
 766 176 l 1
 774 170 l 1
 768 162 l 1
 762 154 l 2
 742 128 729 108 719 86 c 0
 713.546642962 73.0482770339 709.95197986 60.0965540678 708.532764497 44.9275544881 c 1
 753.164430437 54.2404300432 799.028345011 78.6480648785 842 122 c 2
 860 142 l 1
 878 122 l 1
 895 106 l 1
 878 88 l 2
 825.693046381 35.2937566584 767.646530598 5.86462653583 710.544718183 -4.23429001501 c 0
 711.009571287 -6.92523780427 711.504785643 -9.52392821689 712 -12 c 0
 722 -44 743 -68 772 -106 c 1
 778 -112 l 1
 784 -121 l 1
 776 -127 l 1
 768 -132 l 1
 760 -139 l 1
 752 -145 l 1
 746 -137 l 1
 740 -130 l 2
 715 -96 691 -68 678 -32 c 0
 675.080809283 -24.2154914207 672.871758103 -16.4309828415 671.257677973 -8.18580031908 c 1
 616.625434685 -9.53444538235 564.333953313 6.45519162678 520.487592822 36.178632082 c 1
 514.552198196 31.0333116852 508.386391125 26.3071009912 502 22 c 0
 386 -56 227 14 132 156 c 2
 118 178 l 1
 139 191 l 1
 160 205 l 1
 173 184 l 1
 261 53 392 8 474 62 c 0
 476.722302837 63.8715832006 479.40118224 65.8589622252 482.035406837 67.9645998185 c 1
 482.023603558 67.9763986608 482.011801279 67.9881987213 482 68 c 0
 447 103 420 148 408 200 c 0
 377.344282628 329.752106087 401.580660886 504.739365054 475.273874537 634.374106273 c 1
 449.856082455 667.660230063 419.73185587 700.095155654 385 732 c 0
 339 774 272 744 212 677 c 0
 187 649 166 616 154 590 c 2
 143 568 l 1
 121 578 l 1
515.768382085 105.265910199 m 1
 529.149333182 125.157901787 540.653214686 149.882580656 550 180 c 0
 596.320477766 336.507068816 581.07109039 467.401073733 508.400122335 586.163939261 c 1
 452.368537062 471.769807894 432.572298016 323.078908667 458 212 c 0
 467.732787519 170.14901367 488.832833383 133.034384985 515.768382085 105.265910199 c 1
EndSplineSet
Validated: 524321
Ligature2: "ltligs1" Z I
EndChar

StartChar: lt_ZK
Encoding: 273 -1 42
Width: 999
VWidth: 0
Flags: W
HStem: 34 48<611 653.262 710.898 829> 772 20G<795.29 868.844>
VStem: 652 40<-65.5104 28.1815>
LayerCount: 2
Fore
SplineSet
808 536 m 1
 782 542 l 1
 758 547 l 1
 766 572 l 1
 791 689 l 1
 107 22 l 1
 88 5 l 1
 71 22 l 1
 53 41 l 1
 72 58 l 1
 734 706 l 1
 611 674 l 1
 599 722 l 1
 630 730 l 1
 874 792 l 1
 808 536 l 1
704 257 m 1
 611 78 l 1
 667.441236181 79.0356190125 l 1
 678.426004922 104.638654104 694.265811478 128.372136069 714 156 c 2
 720 163 l 1
 726 172 l 1
 734 166 l 1
 742 160 l 1
 750 154 l 1
 758 148 l 1
 752 140 l 1
 746 132 l 2
 730.870693209 112.331901172 719.747065088 96.0972412029 710.897597307 79.8329834368 c 1
 829 82 l 1
 704 257 l 1
679 316 m 1
 698 352 l 1
 722 318 l 1
 898 72 l 1
 925 34 l 1
 878 34 l 1
 693.348727516 29.2193845312 l 1
 692.050956259 19.9709409475 691.575965959 10.0248850788 692 -1 c 0
 692 -13 695 -24 697 -34 c 0
 707 -66 727 -89 756 -127 c 2
 762 -134 l 1
 768 -142 l 1
 760 -148 l 1
 752 -154 l 1
 744 -161 l 1
 736 -167 l 1
 730 -158 l 1
 724 -151 l 2
 699 -117 675 -90 662 -54 c 0
 656 -38 653 -22 652 -2 c 0
 651.662723215 8.79285712256 652.121735838 18.7894248368 653.26193647 28.1815388083 c 1
 569 26 l 1
 528 26 l 1
 547 62 l 1
 679 316 l 1
EndSplineSet
Validated: 524289
Ligature2: "ltligs1" Z K
EndChar

StartChar: lt_ZL
Encoding: 274 -1 43
Width: 999
VWidth: 0
Flags: W
HStem: -4.43584 51.1682<536.489 683.167 720.454 830.034> 783 20G<438.696 470.93>
VStem: 418 49<140.398 386 442 715> 680.185 41.8147<-53.6191 -5.05052 46.7323 108.328>
LayerCount: 2
Fore
SplineSet
418 442 m 1
 420 528 424 613 422 715 c 1
 184 566 l 1
 418 442 l 1
467 397 m 2
 466 313 468 230 482 136 c 0
 493.042521769 67.9044490903 576.06191435 50.6161011064 678.85032195 46.7323130925 c 1
 680.711823118 65.7945471411 685.199865998 82.359691795 692 98 c 0
 703 124 720 148 740 176 c 1
 746 182 l 1
 752 192 l 1
 760 186 l 1
 768 180 l 1
 776 174 l 1
 784 168 l 1
 778 160 l 1
 772 152 l 2
 752 126 740 106 730 84 c 0
 724.985282776 72.0900465919 721.149349403 59.7871652331 719.231108343 45.8598418224 c 1
 804.324102804 45.9137006414 828.904507361 66.0950363228 907 128 c 2
 926 143 l 1
 942 122 l 1
 958 104 l 1
 938 88 l 2
 860.29385435 26.4036650337 816.712234686 -3.76218547231 720.454143119 -5.05052204408 c 1
 720.944962796 -7.72481397952 721.472481398 -10.3624069898 722 -13 c 0
 732 -45 753 -69 782 -107 c 2
 788 -115 l 1
 794 -122 l 1
 786 -128 l 1
 778 -134 l 1
 770 -142 l 1
 762 -146 l 1
 756 -138 l 1
 750 -131 l 2
 725 -97 701 -71 688 -35 c 0
 684.371873545 -25.3249961192 681.840688887 -15.2843449723 680.185343608 -4.43584171983 c 1
 579.434398593 -1.43631669628 450.578625613 12.3511472805 433 128 c 0
 419 220 417 304 418 386 c 1
 122 542 l 1
 84 563 l 1
 121 586 l 1
 434 780 l 1
 470 803 l 1
 472 760 l 2
 476 628 470 519 468 415 c 1
 467 409 l 1
 467 397 l 2
EndSplineSet
Validated: 524321
Ligature2: "ltligs1" Z L
EndChar

StartChar: lt_ZM
Encoding: 275 -1 44
Width: 999
VWidth: 0
Flags: W
HStem: 14 50<238 603.654 646.094 812> 214 49<504.772 779> 503.301 50.0886<238.699 419.731> 771 20G<190 239>
VStem: 187 51<60 503.301 553.39 791> 604.318 41.7767<62.968 107.259>
LayerCount: 2
Fore
SplineSet
214 791 m 1
 239 791 l 1
 239 766 l 1
 239 767 240 766 239 766 c 1
 238.698852442 553.389823701 l 1
 331.541244741 555.697493354 434.55559248 558.761068648 510 472 c 0
 516 465 520 456 522 446 c 0
 532 388 440 339 430 326 c 1
 530 252 595 273 758 263 c 2
 782 262 l 1
 781 238 l 1
 779 212 l 1
 754 214 l 2
 602 224 516 199 398 288 c 0
 388 296 380 306 378 319 c 0
 376 336 385 348 392 358 c 0
 420 394 468 425 472 438 c 1
 412.989349964 506.528496816 334.049030315 505.30314999 238.62790545 503.301247428 c 1
 238 60 l 1
 604.317631881 62.6641282319 l 1
 606.478777915 73.7516397787 609.679347927 84.0625002327 614 94 c 0
 625 120 642 144 662 172 c 1
 670 180 l 1
 674 188 l 1
 682 182 l 1
 691 176 l 1
 698 170 l 1
 707 164 l 1
 701 156 l 1
 695 148 l 2
 675 122 662 102 652 80 c 0
 649.689894588 74.5134996459 647.713325864 68.8602309476 646.094372107 62.9679590699 c 1
 788 64 l 1
 812 64 l 1
 814 38 l 1
 814 14 l 1
 788 14 l 1
 641.007212157 12.9792167511 l 1
 641.170122834 1.43021846173 644.056978154 -8.28489076914 646 -18 c 0
 656 -50 677 -72 706 -110 c 1
 710 -118 l 1
 718 -127 l 1
 709 -132 l 1
 701 -138 l 1
 694 -145 l 1
 685 -151 l 1
 679 -142 l 1
 673 -134 l 2
 648 -100 624 -74 611 -38 c 0
 605.130376363 -22.3476703012 602.131792863 -6.69534060248 601.068031441 12.7018613294 c 1
 212 10 l 1
 187 10 l 1
 187 35 l 1
 190 766 l 1
 189 766 190 767 190 766 c 1
 190 791 l 1
 214 791 l 1
EndSplineSet
Validated: 8912933
Ligature2: "ltligs1" Z M
EndChar

StartChar: lt_ZN
Encoding: 276 -1 45
Width: 1002
VWidth: 0
Flags: W
HStem: 18.9819 51.1571<226 451.924 498.682 766> 766 20G<816.18 835.357>
VStem: 452 40<-35.6039 18.9819> 787 48<296 662> 797 51<113 548>
LayerCount: 2
Fore
SplineSet
500 430 m 1xe8
 835 786 l 1xf0
 848 58 l 1
 848 22 l 1
 822 22 l 1
 799 22 l 1
 491.953006104 19.33002614 l 2
 491.967206874 18.8887147344 491.98286983 18.4453844167 492 18 c 0
 492 6 495 -4 497 -14 c 0
 507 -46 527 -71 556 -109 c 2
 562 -118 l 1
 568 -125 l 1
 560 -131 l 1
 552 -137 l 1
 544 -142 l 1
 536 -149 l 1
 530 -142 l 1
 524 -132 l 2
 499 -98 475 -73 462 -37 c 0
 456 -21 453 -4 452 16 c 0
 451.968755979 16.9998086878 451.94336909 17.9937602423 451.923808835 18.9819461638 c 2
 109 16 l 1
 466 394 l 1
 157 725 l 1
 193 758 l 1
 500 430 l 1xe8
787 662 m 1
 534 395 l 1
 797 113 l 1xe8
 787 662 l 1
766 73 m 1
 499 358 l 1
 226 68 l 1
 457.016931526 70.1390456623 l 1
 459.295761044 79.6026048567 462.306907152 88.5058864501 466 97 c 0
 477 123 494 145 514 173 c 2
 520 182 l 1
 526 190 l 1
 534 182 l 1
 542 178 l 1
 550 172 l 1
 558 166 l 1
 552 158 l 1
 546 150 l 2
 526 124 513 104 503 82 c 0
 501.39734866 78.1937030678 499.955228028 74.3874061357 498.681677938 70.5248303513 c 2
 766 73 l 1
EndSplineSet
Validated: 8912897
Ligature2: "ltligs1" Z N
EndChar

StartChar: lt_ZO
Encoding: 277 -1 46
Width: 999
VWidth: 0
Flags: W
HStem: 178.049 38.5514<762.622 869.514> 280 50<470.955 515.037> 814 20G<493.786 510.276>
LayerCount: 2
Fore
SplineSet
188 -1 m 1
 166 8 l 1
 175 32 l 1
 479 778 l 1
 502 834 l 1
 526 776 l 1
 747.366720196 216.60031518 l 1
 770.547078233 221.213000048 791.918749698 219.606500024 812 218 c 0
 840 214 866 204 898 192 c 2
 907 188 l 1
 917 184 l 1
 912 175 l 1
 910 166 l 1
 905 157 l 1
 902 148 l 1
 892 151 l 1
 883 154 l 2
 852 166 828 177 806 179 c 0
 791.733047369 180.426695263 778.483824425 180.835660839 762.62235586 178.048911544 c 1
 822 28 l 1
 830 4 l 1
 808 -5 l 1
 784 -14 l 1
 775 10 l 1
 714.280193548 163.467642682 l 2
 712.75608379 162.654147288 711.32331783 161.827073644 710 161 c 0
 682 144 666 118 635 80 c 2
 629 72 l 1
 622 64 l 1
 614 71 l 1
 607 77 l 1
 599 83 l 1
 592 89 l 1
 598 98 l 1
 604 106 l 2
 630 140 650 168 682 190 c 0
 687.354088775 194.118529827 693.217046188 197.558568136 699.588872238 200.599553683 c 1
 502 700 l 1
 221 12 l 1
 212 -11 l 1
 188 -1 l 1
419 238 m 0
 415 270 426 328 478 330 c 0
 526 334 561 295 566 253 c 0
 572 211 543 166 496 164 c 0
 448 162 424 204 419 238 c 0
469 245 m 0
 471 222 484 213 492 214 c 0
 506 215 520 229 518 247 c 0
 516 269 499 282 481 280 c 0
 475 280 467 269 469 245 c 0
EndSplineSet
Validated: 524321
Ligature2: "ltligs1" Z O
EndChar

StartChar: lt_ZP
Encoding: 278 -1 47
Width: 999
VWidth: 0
Flags: W
HStem: 389 50<256.6 282>
VStem: 230 51<98.4688 234.909> 553 39.9606<81.9992 148.429>
LayerCount: 2
Fore
SplineSet
233 637 m 1
 216 655 l 1
 233 672 l 1
 232 671 234 672 233 672 c 1
 313 750 414 803 542 780 c 0
 578 773 618 759 654 739 c 0
 721 702 794 631 750 552 c 0
 707.35242567 476.99909342 640.915348893 446.333168674 573.747055439 410.705201012 c 1
 748 395 l 1
 772 392 l 1
 770 368 l 1
 768 342 l 1
 742 346 l 1
 501.653851575 367.755470332 l 1
 385.779286418 285.952170212 275.004973612 261.892569987 280 154 c 0
 280 152 281 148 281 146 c 0
 291 74 400 35 498 47 c 0
 517.750582647 49.3466038789 536.086287925 54.1788031376 553.268839898 61.1227062531 c 0
 553.171341445 62.7289010867 553.082285288 64.3542942404 553 66 c 0
 552 98 558 123 568 146 c 0
 579 172 594 195 614 223 c 2
 622 232 l 1
 626 240 l 1
 635 234 l 1
 643 228 l 1
 650 222 l 1
 659 216 l 1
 653 208 l 1
 648 200 l 2
 628 174 614 154 604 132 c 0
 597.507486082 116.580279446 593.649518225 101.160558891 592.960622272 81.9991574384 c 1
 644.091226035 115.434570766 684.962624321 168.589700606 725 228 c 2
 739 248 l 1
 760 235 l 1
 781 221 l 1
 767 200 l 2
 722.731342649 134.311024577 671.325329334 67.6024268726 600.041590469 28.9950516488 c 1
 610.704665997 0.0124935073594 630.845145813 -22.4177772727 658 -58 c 1
 662 -67 l 1
 670 -74 l 1
 661 -82 l 1
 653 -86 l 1
 646 -92 l 1
 638 -98 l 1
 631 -91 l 1
 625 -82 l 2
 600.221401445 -48.3011059652 575.44280289 -23.4435087579 562.348201391 12.046120048 c 1
 544.141824836 5.45940353471 524.745758439 0.655457080255 504 -2 c 0
 402 -14 244 18 230 140 c 0
 229 142 230 149 230 151 c 0
 223.404184011 274.671549802 326.92986408 324.249006576 417.278392533 375.392904124 c 1
 278 388 l 1
 252 389 l 1
 254 414 l 1
 258 439 l 1
 282 437 l 1
 486.17994242 418.597515919 l 1
 581.943416476 481.637942297 662.147722154 499.828548187 706 578 c 0
 726 615 697 658 630 695 c 0
 599 713 563 725 534 730 c 0
 427 750 342 707 268 636 c 2
 250 618 l 1
 233 637 l 1
EndSplineSet
Validated: 524325
Ligature2: "ltligs1" Z P
EndChar

StartChar: lt_ZQ
Encoding: 279 -1 48
Width: 999
VWidth: 0
Flags: W
HStem: 788 20G<746 772>
VStem: 246 50<-16 355.176 405.537 532> 532 40<253.579 332.705> 722 50<370 806>
LayerCount: 2
Fore
SplineSet
746 806 m 1
 772 808 l 1
 772 782 l 1
 778 343 l 1
 778 316 l 1
 750 318 l 1
 571.98751436 332.705379248 l 1
 571.800012322 328.042746766 572 323.159184236 572 318 c 0
 572 306 575 296 577 286 c 0
 587 254 607 230 636 192 c 1
 642 182 l 1
 648 176 l 1
 640 169 l 1
 632 163 l 1
 624 158 l 1
 616 152 l 1
 610 158 l 1
 604 168 l 2
 579 202 555 227 542 263 c 0
 536 279 533 296 532 316 c 0
 531.783356234 322.932600507 531.895254117 329.583593885 532.305189435 335.983484351 c 1
 299.97529718 355.175953711 l 1
 296 8 l 1
 296 -17 l 1
 271 -16 l 1
 246 -16 l 1
 246 10 l 1
 246 11 245 10 246 10 c 1
 253 564 l 1
 253 595 l 1
 283 588 l 1
 503 539 l 1
 528 534 l 1
 522 509 l 1
 517 485 l 1
 492 491 l 1
 302 532 l 1
 300.551954242 405.537337146 l 1
 542.39977085 385.383352429 l 1
 543.815847254 389.345799181 545.35371879 393.213553218 547 397 c 0
 558 423 574 445 594 473 c 2
 600 482 l 1
 606 490 l 1
 614 484 l 1
 622 478 l 1
 630 472 l 1
 638 466 l 1
 632 458 l 1
 626 450 l 2
 606 424 593 404 583 382 c 1
 727 370 l 1
 722 782 l 1
 722 806 l 1
 746 806 l 1
EndSplineSet
Validated: 8912901
Ligature2: "ltligs1" Z Q
EndChar

StartChar: lt_ZR
Encoding: 280 -1 49
Width: 999
VWidth: 0
Flags: W
HStem: 1 48<593.49 661.102> 788 20G<382 413.565 584.174 614>
VStem: 78 50<294.391 533.196> 290 41<-25.4772 47.1258> 836 50<146.232 247.902 535.226 644.73>
LayerCount: 2
Fore
SplineSet
415 785 m 1
 427 763 l 1
 404 752 l 1
 250 673 126 581 128 418 c 0
 129.523074034 282.446411013 198.319028907 190.968157749 306.12260173 120.599714109 c 1
 317.139380209 145.608274082 333.668253523 168.935554932 353 196 c 2
 359 203 l 1
 365 212 l 1
 372 206 l 1
 382 200 l 1
 389 194 l 1
 397 188 l 1
 391 180 l 1
 385 172 l 2
 365 146 352 126 342 104 c 0
 341.403255821 102.582732575 340.828768118 101.154336911 340.276951934 99.7135678743 c 0
 364.662041103 85.7106790892 390.658476191 72.544934456 418 60 c 2
 439 49 l 1
 428 26 l 1
 418 4 l 1
 396 14 l 2
 373.633589702 24.4207138889 351.848572325 35.4389705031 330.854287298 47.1512301666 c 1
 330.83197804 44.1693946877 330.879972545 41.1207138185 331 38 c 0
 331 26 334 17 336 7 c 0
 346 -25 366 -48 395 -86 c 2
 401 -95 l 1
 408 -102 l 1
 398 -108 l 1
 391 -115 l 1
 383 -121 l 1
 374 -127 l 1
 370 -118 l 1
 362 -110 l 1
 337 -76 314 -50 301 -14 c 0
 295 2 291 18 290 38 c 0
 289.634543889 49.6945955372 290.20399496 60.4542838934 291.561924265 70.5231133127 c 1
 167.633568165 149.256999147 79.5831294388 257.312361964 78 418 c 0
 76 612 228 717 382 796 c 1
 404 808 l 1
 415 785 l 1
583 782 m 1
 592 805 l 1
 614 797 l 2
 720 759 885 726 887 578 c 0
 889 451 646 420 638 408 c 1
 648 389 886 334 886 202 c 0
 886 68 712 34 618 8 c 2
 594 1 l 1
 587 25 l 1
 580 49 l 1
 604 56 l 2
 714 88 836 120 836 202 c 0
 836 298 587 305 587 408 c 0
 587 517 840 488 838 577 c 0
 836 679 719 707 598 749 c 1
 575 758 l 1
 583 782 l 1
EndSplineSet
Validated: 524321
Ligature2: "ltligs1" Z R
EndChar

StartChar: lt_ZS
Encoding: 281 -1 50
Width: 999
VWidth: 0
Flags: W
HStem: 324 50<143 476.111> 333.812 49.6188<526.349 576.023 615.707 758.643> 406 50<805.08 851.037> 806 20G<472 493.538>
VStem: 480 50<-8 332.589 383.431 710> 572.447 39.8904<279.124 334.945 385.801 425.258>
LayerCount: 2
Fore
SplineSet
505 -8 m 1x7c
 480 -8 l 1
 480 17 l 1
 476.638194793 332.589463806 l 1
 168 325 l 1
 168 326 167 325 168 325 c 1
 143 324 l 1
 143 349 l 1
 142 374 l 1
 168 374 l 1
 167 374 168 373 168 374 c 1xbc
 476.110556268 382.121530313 l 1
 472 768 l 1
 472 826 l 1
 514 787 l 1
 768 557 l 1
 787 540 l 1
 769 521 l 1
 752 502 l 1
 734 518 l 1
 522 710 l 1
 525.775368183 383.430652209 l 1
 575.248210648 384.734713954 l 1
 577.870355188 398.110142646 581.918807186 410.313256527 587 422 c 0
 598 448 614 471 634 499 c 2
 640 508 l 1
 646 516 l 1
 654 510 l 1
 662 504 l 1
 670 498 l 1
 678 492 l 1
 672 484 l 1
 667 476 l 2
 647 450 633 430 623 408 c 0
 619.981978412 400.832198729 617.533235219 393.52207786 615.707460872 385.80118513 c 1
 754.965562178 389.471909382 l 1
 758.319609389 419.917214161 774.075184224 454.464430162 814 456 c 0
 862 460 897 421 902 379 c 0
 908 337 879 292 832 290 c 0
 795.179829793 288.465826241 772.481794316 312.822232821 761.649038515 339.597927177 c 1
 612.337064466 335.926321257 l 1
 613.176162608 326.942246619 615.405775338 318.97112331 617 311 c 0
 627 279 647 256 676 218 c 2
 682 209 l 1
 688 202 l 1
 680 194 l 1
 672 190 l 1
 664 182 l 1
 656 178 l 1
 650 185 l 1
 644 193 l 2
 619 227 595 253 582 289 c 0
 576.718004619 303.085321017 573.760965505 317.945627456 572.446637754 334.945409125 c 1
 526.348995832 333.811860553 l 1
 530 18 l 1
 530 -8 l 1
 505 -8 l 1x7c
805 372 m 0
 807 349 820 339 828 340 c 0
 842 341 855 354 853 372 c 0
 851 394 835 408 817 406 c 0
 811 406 803 396 805 372 c 0
EndSplineSet
Validated: 8912933
Ligature2: "ltligs1" Z S
EndChar

StartChar: lt_ZT
Encoding: 282 -1 51
Width: 999
VWidth: 0
Flags: W
HStem: 640 50<286 459.316 550.267 607.722 643.992 701> 760 51<473 532> 814 20G<670 684>
VStem: 470 51<-10 535.818> 480.528 49.0922<120.057 641.875> 603.456 40.5357<593.356 643.06 693.381 746.831>
LayerCount: 2
Fore
SplineSet
504 714 m 1xe4
 532 760 l 1
 473 760 l 1
 504 714 l 1xe4
227 582 m 1
 204 593 l 1
 216 616 l 1
 248 677 l 1
 254 690 l 1
 270 690 l 1
 459.315964953 691.713266651 l 1
 406 770 l 1
 379 808 l 1
 426 809 l 1
 576 811 l 1
 620 812 l 1
 598 773 l 1
 550.267329786 692.536355926 l 1
 603.547514544 693.018529543 l 1
 605.900381356 711.134228802 610.6416076 727.375697479 617 742 c 0
 628 768 644 790 664 818 c 2
 670 826 l 1
 676 834 l 1
 684 828 l 1
 692 822 l 1
 700 816 l 1
 708 810 l 1
 702 802 l 1
 697 794 l 2
 677 768 663 748 653 726 c 0
 648.586800429 715.518651018 645.390871511 705.037302036 643.580090069 693.380815295 c 1
 712 694 l 1
 725 694 l 1
 733 684 l 1
 779 623 l 1
 794 602 l 1
 774 588 l 1
 754 574 l 1
 739 593 l 1
 701 644 l 1
 643.991559439 643.450521055 l 1
 644.946038836 638.421638998 646.079040271 633.604798646 647 629 c 0
 657 597 677 574 706 536 c 2
 712 528 l 1
 718 518 l 1
 710 514 l 1
 702 508 l 1
 694 502 l 1
 686 496 l 1
 680 503 l 1
 674 512 l 2
 649 546 625 572 612 608 c 0
 607.790223513 619.226070632 605.057298532 630.452141265 603.455824237 643.059815173 c 1
 529.620630116 642.348150652 l 1xec
 521 14 l 1
 521 -10 l 1
 496 -10 l 1
 470 -10 l 1
 470 14 l 1xf4
 480.528391306 641.874972446 l 1xec
 286 640 l 1
 260 592 l 1
 248 570 l 1
 227 582 l 1
EndSplineSet
Validated: 8912897
Ligature2: "ltligs1" Z T
EndChar

StartChar: lt_ZU
Encoding: 283 -1 52
Width: 999
VWidth: 0
Flags: W
HStem: 362 51<531.58 709> 715 51<263.749 743.305> 754 49<150 169>
VStem: 709 40.0006<299.579 362>
LayerCount: 2
Fore
SplineSet
455 389 m 1x90
 377 401 303 418 211 432 c 1
 460 94 l 1
 446 182 417 287 455 389 c 1x90
148 778 m 1
 150 803 l 1xb0
 175 802 l 1
 309 788 380 768 512 766 c 0
 626 764 691 781 810 791 c 2
 872 796 l 1
 830 749 l 2
 710 613 603 561 529 428 c 1
 584 420 642 415 710 413 c 0
 710.887679337 412.97268679 711.76920408 412.949476642 712.644762705 412.930336447 c 0
 714.79698896 423.598374383 717.892298011 433.552285426 722 443 c 0
 733 469 750 493 770 521 c 1
 778 528 l 1
 782 538 l 1
 791 530 l 1
 799 526 l 1
 806 518 l 1
 815 514 l 1
 809 505 l 1
 803 497 l 2
 783 471 770 452 760 430 c 0
 758.035760342 425.334930813 756.312660524 420.549291707 754.84550231 415.59867739 c 1
 794.163100024 421.878160546 825.767084396 438.455417089 880 460 c 2
 902 469 l 1
 912 446 l 1
 922 422 l 1
 898 414 l 2
 843.221073289 392.742506053 804.485260741 370.148085925 749.000600587 363.705786036 c 1
 749.04903547 351.836325094 752.016367493 341.918162471 754 332 c 0
 764 300 785 276 814 238 c 1
 818 230 l 1
 826 222 l 1
 818 217 l 1
 809 211 l 1
 802 204 l 1
 793 198 l 1
 788 206 l 1
 781 214 l 2
 756 248 732 275 719 311 c 0
 713 327 710 342 709 362 c 1
 632 364 567 374 506 382 c 1
 454 261 501 188 512 40 c 2
 518 -44 l 1
 457 19 l 1
 134 450 l 1
 98 498 l 1
 158 490 l 2
 285 472 380 452 478 436 c 1
 550 575 647 634 748 734 c 1
 671 724 607 713 512 715 c 0xd0
 375 717 300 737 169 751 c 2
 144 754 l 1xb0
 148 778 l 1
EndSplineSet
Validated: 8912929
Ligature2: "ltligs1" Z U
EndChar

StartChar: lt_ZV
Encoding: 284 -1 53
Width: 999
VWidth: 0
Flags: W
HStem: 203 39<560.167 640.821> 794 20G<647 673.625>
VStem: 277 49<301.958 538.566> 437 50<308.521 508.06>
LayerCount: 2
Fore
SplineSet
584 734 m 1
 420 664 320 559 326 425 c 0
 329.92043163 325.682398704 366.715123838 237.038258634 438.336823458 166.320639457 c 1
 444.656518722 174.49359909 452.001882396 182.57317651 460 190 c 0
 471.351488179 200.857945214 482.702976357 208.792874537 494.17468403 215.006982909 c 1
 455.429450991 298.718513819 438.276101737 375.422286605 437 422 c 0
 435 502 507 626 584 734 c 1
683 782 m 1
 673 770 l 1
 579 650 485 489 487 424 c 0
 488.072789244 385.379587201 504.394695598 312.520590705 541.212973965 232.893933248 c 1
 565.572480635 238.533274118 590.532830004 240.266637059 620 242 c 1
 630 244 l 1
 640 245 l 1
 641 235 l 1
 642 226 l 1
 642 215 l 1
 643 205 l 1
 634 204 l 1
 623 203 l 2
 597.581259297 201.504779959 577.19280528 200.009559917 559.327509462 196.425066135 c 1
 590.088991546 138.625791357 631.678696625 79.495859475 686 29 c 2
 694 22 l 1
 674 -17 l 1
 662 -13 l 1
 575.986165772 11.2780983708 504.286964442 47.1041358861 446.985837082 91.8497187721 c 1
 441.828997226 74.3798457155 437.727957108 53.9947219271 432 29 c 2
 430 19 l 1
 428 10 l 1
 418 12 l 1
 408 14 l 1
 398 16 l 1
 388 18 l 1
 391 28 l 1
 394 38 l 2
 401.31717342 68.0004110226 404.88647496 94.7883604336 413.718591128 120.322693126 c 1
 327.36395873 201.389819516 281.659383392 306.097838129 277 422 c 0
 269 613 433 743 647 810 c 1
 658 814 l 1
 683 782 l 1
469.369670392 138.583049034 m 1
 501.398891057 112.623331919 538.902229883 89.6133564605 582 70 c 1
 554.530087937 105.549297964 531.484470395 142.186537203 512.433419056 178.173271343 c 1
 504.364942794 172.885759966 496.212963217 166.291666896 487 158 c 0
 478.909603764 151.527683011 474.091933091 145.055366023 469.369670392 138.583049034 c 1
EndSplineSet
Validated: 524321
Ligature2: "ltligs1" Z V
EndChar

StartChar: lt_ZW
Encoding: 285 -1 54
Width: 999
VWidth: 0
Flags: W
HStem: 131 50<169 383.558 473.605 564.795 723.369 844> 602 51<170 361.878 450.205 541.174 632.606 649.388 741.951 846> 802 20G<480.571 504.941>
VStem: 588 49<274.67 481.623>
LayerCount: 2
Fore
SplineSet
472 787 m 1
 492 822 l 1
 514 788 l 1
 600.324156165 653.621338766 l 1
 680.711393297 653.726420122 l 1
 697.645765875 679.064687832 716.515571878 705.106310642 737 733 c 2
 752 754 l 1
 772 738 l 1
 792 724 l 1
 778 704 l 2
 765.191029154 686.285465852 753.161928027 669.666462975 741.950649994 653.806471438 c 1
 890 654 l 1
 934 654 l 1
 912 616 l 1
 773.306396965 384.344198175 l 1
 911 170 l 1
 936 132 l 1
 890 132 l 1
 723.369179844 131.782181934 l 1
 746.204521763 100.419922688 772.746345511 67.2123453788 802 28 c 2
 817 8 l 1
 797 -8 l 1
 778 -22 l 1
 762 -2 l 2
 724.958011247 47.1208981289 690.347690023 88.9467936721 661.889475943 131.701816308 c 1
 622.01680779 131.649695174 l 1
 542 -2 l 1
 522 -37 l 1
 502 -2 l 1
 415.822558827 131.380160208 l 1
 125 131 l 1
 82 131 l 1
 103 169 l 1
 241.570311113 401.077106418 l 1
 104 614 l 1
 79 653 l 1
 125 653 l 1
 392.198841662 653.349279532 l 1
 472 787 l 1
473.604874781 131.455692647 m 1
 521 58 l 1
 564.794580283 131.574894876 l 1
 473.604874781 131.455692647 l 1
269.480002586 447.820166932 m 1
 361.877792965 602.567685778 l 1
 170 602 l 1
 269.480002586 447.820166932 l 1
299.826159057 400.787947216 m 1
 441.377506795 181.403522232 l 1
 594.589585172 181.630503089 l 1
 615.748861303 217.17808699 l 1
 599.689841061 257.071353857 589.697169096 301.369456565 588 355 c 0
 585.790631671 426.141660198 596.272665217 483.225152164 616.771517803 535.827207993 c 1
 573.508560902 603.19381231 l 1
 420.035565592 602.739750194 l 1
 299.826159057 400.787947216 l 1
632.606218434 603.368657451 m 1
 641.609789814 589.353022406 l 1
 644.124994658 594.048871704 646.718338158 598.734755213 649.387688341 603.41830677 c 1
 632.606218434 603.368657451 l 1
743.17345287 431.251400822 m 1
 846 604 l 1
 707.854286199 603.59128487 l 1
 694.215724302 582.323576432 682.402951631 561.878624277 672.533426005 541.21496909 c 1
 743.17345287 431.251400822 l 1
714.6760812 383.375816417 m 1
 650.470899186 483.352456982 l 1
 640.007880969 446.512138627 635.331926823 406.374122138 637 358 c 0
 638.124877807 326.503421391 642.337209814 298.85350703 649.261227865 273.478862813 c 1
 714.6760812 383.375816417 l 1
744.718746262 336.595095107 m 1
 671.66092151 214.568782414 l 1
 677.109605938 203.46255548 683.133685421 192.591488944 689.689114159 181.77139128 c 1
 844 182 l 1
 744.718746262 336.595095107 l 1
450.205419717 653.425105124 m 1
 541.173566593 653.544017734 l 1
 494 727 l 1
 450.205419717 653.425105124 l 1
271.981379998 354.008718396 m 1
 169 181 l 1
 383.557614405 181.317863132 l 1
 271.981379998 354.008718396 l 1
EndSplineSet
Validated: 524321
Ligature2: "ltligs1" Z W
EndChar

StartChar: lt_ZX
Encoding: 286 -1 55
Width: 999
VWidth: 0
Flags: W
HStem: 752 20G<838 862>
VStem: 150 50<651.095 713.51> 320.012 49.9082<157.989 374.062> 812 50<128.25 770> 822 50<14 657.75>
LayerCount: 2
Fore
SplineSet
294 74 m 0xe0
 291.017386039 97.8609116891 295.818759864 136.177800695 320.012436796 154.954886433 c 1
 318.380645359 223.817631904 291.406797079 287.048403627 330 368 c 0
 345.445550447 401.162505372 365.895600846 425.863794331 387.986853364 445.432008285 c 1
 387.045140277 477.234141271 392.045038852 503.103589411 402 526 c 0
 413 552 430 574 450 602 c 2
 456 611 l 1
 462 618 l 1
 470 612 l 1
 478 607 l 1
 486 601 l 1
 494 595 l 1
 488 587 l 1
 482 578 l 2
 462 552 449 533 439 511 c 0
 434.387252952 500.044725761 431.104345612 488.756991595 429.342972173 476.178326535 c 1
 493.181927796 516.859060439 553.869159937 533.253827458 538 598 c 0
 512 702 392 694 254 719 c 0
 250 720 245 720 239 719 c 0
 213 714 198 694 200 677 c 2
 204 652 l 1
 179 648 l 1
 155 643 l 1
 150 668 l 2
 140 722 187 760 230 768 c 0
 241 770 251 770 263 768 c 0
 381 746 549 758 586 610 c 0
 611.725517733 505.627899485 506.711323178 457.441460449 434.161138815 406.671459223 c 1
 444.854802498 377.845213752 464.946292659 355.449685481 492 320 c 2
 498 312 l 1
 504 304 l 1
 496 298 l 1
 488 292 l 1
 480 286 l 1
 472 280 l 1
 466 288 l 1
 460 296 l 2
 437.478342828 326.629453754 415.768245722 350.766426974 402.180779724 381.570847531 c 1
 390.703005954 371.011644974 381.549395041 359.975010352 376 348 c 0
 347.697849985 287.743809646 367.739798135 244.15799797 369.920590325 165.495929563 c 1
 408.983568551 159.923917716 437.642725053 125.601109556 442 89 c 0
 448 47 418 2 371 0 c 0
 323 -2 299 40 294 74 c 0xe0
344 82 m 0
 346 59 360 49 368 50 c 0
 382 51 394 64 392 82 c 0
 390 104 376 118 358 116 c 0
 352 116 342 106 344 82 c 0
838 770 m 1
 862 772 l 1
 862 746 l 1xf0
 872 40 l 1
 872 14 l 1
 848 14 l 1
 822 14 l 1
 822 40 l 1xe8
 812 746 l 1
 812 770 l 1xf0
 838 770 l 1
EndSplineSet
Validated: 8912929
Ligature2: "ltligs1" Z X
EndChar

StartChar: lt_ZY
Encoding: 287 -1 56
Width: 999
VWidth: 0
Flags: W
HStem: -2 49<404.486 618.564> 634 49<447.358 576.726> 786 20G<491 523>
VStem: 192 50<220.91 449.5> 624 50<243.273 520.546> 797 50<224.119 458.246>
LayerCount: 2
Fore
SplineSet
508 634 m 0
 363 636 246 492 242 338 c 0
 240 192 357 49 499 47 c 0
 579.311741394 46.0145798602 651.61229676 76.3456141955 704.897373171 126.988810079 c 1
 658.940796861 193.984215967 627.133639699 261.976985521 624 361 c 0
 621.214437903 450.695099515 638.913576161 518.043253188 671.391274285 582.237842659 c 1
 624.942147746 614.212003704 568.689097303 633.255348499 508 634 c 0
809 745 m 1
 829 730 l 1
 814 710 l 2
 782.798393447 666.848842001 756.334477117 629.977878019 735.083685474 594.669335299 c 1
 805.915617424 530.825842359 849.703706876 437.822344022 847 334 c 0
 844.89314116 253.939364085 816.508265627 181.336003178 770.075167853 124.270079103 c 1
 790.614082466 96.9556100826 813.800941691 67.7774611379 839 34 c 2
 854 13 l 1
 834 -2 l 1
 814 -17 l 1
 799 2 l 2
 776.244440148 32.1758511087 754.34538042 59.7210232617 734.195614492 86.4816321913 c 1
 672.236208766 30.4908400285 589.476270352 -2.95786670526 498 -2 c 0
 323 0 188 168 192 338 c 0
 194.155310585 431.217182807 233.183195685 524.724700847 297.037725257 590.832559085 c 1
 296 592 l 1
 314 610 l 1
 491 792 l 1
 506 806 l 1
 523 793 l 1
 696.811738133 627.465011302 l 1
 718.680667382 663.096443523 744.741793175 699.159037515 774 739 c 2
 788 758 l 1
 809 745 l 1
446.431106888 676.710720231 m 1
 466.181522034 681.042894668 486.746044254 683.23485034 508 683 c 0
 531.912742606 682.74828692 555.25524994 680.073073934 577.782315221 675.205612964 c 1
 509 742 l 1
 446.431106888 676.710720231 l 1
739.687437058 166.621516926 m 1
 774.135104445 213.840244323 795.052215302 272.11266189 797 336 c 0
 799.575280601 419.439091456 766.072099469 495.450264321 710.700552061 549.823423138 c 1
 684.234145867 494.620597735 671.369970369 438.270859308 674 362 c 0
 676.947776328 279.462262829 701.097652732 224.035407722 739.687437058 166.621516926 c 1
EndSplineSet
Validated: 524321
Ligature2: "ltligs1" Z Y
EndChar

StartChar: ltd09
Encoding: 288 -1 57
Width: 999
VWidth: 0
Flags: W
HStem: 754 50<480.724 527.037>
VStem: 431 147
LayerCount: 2
Fore
SplineSet
431 712 m 0
 427 744 438 802 490 804 c 0
 538 808 573 770 578 728 c 0
 584 686 555 640 508 638 c 0
 460 636 436 678 431 712 c 0
481 720 m 0
 483 697 496 687 504 688 c 0
 518 689 531 703 529 721 c 0
 527 743 511 756 493 754 c 0
 487 754 479 744 481 720 c 0
EndSplineSet
Validated: 33
EndChar

StartChar: lt_WA
Encoding: 289 -1 58
Width: 999
VWidth: 0
Flags: W
HStem: -74 50<293.514 375.961 634.72 737.656> 131.432 49.9257<190 422.072 595.249 821> 546.37 50.5185<190 416.402 587.926 822> 760 50<277.896 372.889 637.57 712.466>
LayerCount: 2
Fore
SplineSet
842 115 m 1
 864 102 l 1
 851 82 l 1
 813 16 776 -81 670 -79 c 0
 548.633871188 -77.0103913309 560.868557015 77.3831095931 514.727757093 79.9719036959 c 1
 510 74 l 1
 506.612233292 78.06532005 l 1
 472.939275744 60.023945865 436.574386409 -77.7265696344 349 -74 c 0
 254 -69 211 14 162 80 c 2
 146 100 l 1
 167 115 l 1
 187 130 l 1
 202 110 l 2
 257 36 290 -22 352 -24 c 0
 377.163098125 -25.677539875 405.84387129 85.2105215385 472.26835235 119.830899526 c 1
 462.74327202 131.558014556 l 1
 137 132 l 1
 85 132 l 1
 118 172 l 1
 272.422932085 365.877142755 l 1
 118 556 l 1
 85 598 l 1
 138 598 l 1
 456.618915391 597.13418773 l 1
 463.558377487 605.846644262 l 1
 382.926978865 632.351991526 396.826180508 758.199155467 341 760 c 0
 274 762 249 702 202 624 c 2
 190 602 l 1
 168 616 l 1
 146 628 l 1
 158 650 l 2
 196 716 236 812 342 810 c 0
 464 808 450 651 497 650 c 0
 497.624970681 649.982639703 498.249338602 650.013801571 498.87342815 650.091785188 c 2
 502 654 l 1
 503.773307713 651.635589716 l 1
 537.506481279 668.44703367 572.902516648 808.748829079 661 805 c 0
 756 800 801 716 850 650 c 2
 864 630 l 1
 844 616 l 1
 824 601 l 1
 809 622 l 2
 754 696 721 753 659 755 c 0
 633.697554944 756.68682967 603.415669797 644.55788586 535.756399317 610.600992238 c 1
 546.893751635 596.888875675 l 1
 874 596 l 1
 926 596 l 1
 893 556 l 1
 738.252919119 361.29076087 l 1
 892 172 l 1
 926 131 l 1
 874 131 l 1
 555.57045959 131.432061792 l 1
 549.463501543 123.748032162 l 1
 626.061585395 94.4922598789 615.103196064 -27.2291353569 670 -29 c 0
 737 -31 761 29 808 107 c 2
 821 128 l 1
 842 115 l 1
706.790423096 321.703334555 m 1
 595.249403861 181.357766396 l 1
 821 181 l 1
 706.790423096 321.703334555 l 1
674.585639591 361.378820191 m 1
 524.345444797 546.470972397 l 1
 480.144806012 546.540910117 l 1
 336.681471671 366.292105433 l 1
 486.653873797 181.529867078 l 1
 530.925734359 181.459705651 l 1
 674.585639591 361.378820191 l 1
422.071649817 181.632216086 m 1
 304.711221945 326.124355777 l 1
 190 182 l 1
 422.071649817 181.632216086 l 1
416.401759409 546.641769368 m 1
 190 547 l 1
 304.415233611 406.043301539 l 1
 416.401759409 546.641769368 l 1
706.111917227 400.862209435 m 1
 822 546 l 1
 587.92624981 546.370369858 l 1
 706.111917227 400.862209435 l 1
EndSplineSet
Validated: 8912929
Ligature2: "ltligs1" W A
EndChar

StartChar: lt_WB
Encoding: 290 -1 59
Width: 999
VWidth: 0
Flags: W
HStem: -12 50<297.502 600.342>
VStem: 130 49<181.42 581.115> 379 51<447.296 527> 563 50<228 315.609> 828 50<201.44 616.953>
LayerCount: 2
Fore
SplineSet
210 672 m 0
 217 682 240 713 288 739 c 0
 324 759 396 776 488 784 c 0
 582 792 705 793 787 719 c 0
 900 617 877 491 878 389 c 0
 879 287 897 215 796 112 c 0
 658 -30 519 -4 347 -12 c 0
 280 -14 229 60 221 68 c 0
 115 175 131 294 130 396 c 0
 129 498 110 568 210 672 c 0
404 527 m 1
 430 527 l 1
 430 480 449 437 475 436 c 0
 501 435 512 551 550 557 c 0
 588 562 578 522 578 522 c 1
 553 456 548 415 523 377 c 1
 595 361 617 300 613 226 c 1
 588 227 l 1
 563 228 l 1
 567 296 549 320 511 328 c 0
 509 328 474 260 440 232 c 0
 433 227 400 232 398 258 c 0
 393 296 447 341 455 358 c 0
 460 368 464 376 470 386 c 1
 396 393 379 481 379 527 c 1
 404 527 l 1
236.241435517 651.987648596 m 2
 233.105803288 654.447546893 229.691991448 657.362863251 226 660 c 2
 230 656 l 1
 236.241435517 651.987648596 l 2
242.251948612 647.832034258 m 2
 240.800986311 648.622091377 239.272993823 649.676385032 237.667971151 650.888019233 c 2
 230 656 l 1
 248 638 l 1
 160 547 178 509 179 397 c 0
 180 287 167 192 256 102 c 0
 274 84 314 36 344 38 c 0
 526 46 641 26 761 148 c 0
 849 239 829 277 828 389 c 0
 827 501 846 599 754 682 c 0
 690 740 584 742 492 734 c 0
 404 726 335 708 313 696 c 0
 271 672 252 643 251 642 c 2
 242.251948612 647.832034258 l 2
EndSplineSet
Validated: 524325
Ligature2: "ltligs1" W B
EndChar

StartChar: lt_WC
Encoding: 291 -1 60
Width: 1004
VWidth: 0
Flags: W
HStem: -18 50<470.708 517.039> 122.882 50.5559<179 439.808 546.565 827> 612 50<179 459.943 565.452 827> 754 50<488.961 533.422>
LayerCount: 2
Fore
SplineSet
568 73 m 0
 572 41 562 -16 510 -18 c 0
 462 -22 425 16 420 58 c 0
 416.685719394 81.1999642423 424.355894724 105.620423589 439.808184247 123.171251533 c 1
 134 124 l 1
 88 124 l 1
 112 162 l 1
 291.001073167 392.006755307 l 1
 112 625 l 1
 88 662 l 1
 134 662 l 1
 459.94330318 662 l 1
 447.584543573 676.434980642 440.471365591 695.194713982 438 712 c 0
 434 744 444 802 496 804 c 0
 544 808 581 770 586 728 c 0
 589.366774742 704.432576809 581.398377323 679.605690044 565.451735776 662 c 1
 872 662 l 1
 918 662 l 1
 892 623 l 1
 714.623018365 394.327512865 l 1
 893 162 l 1
 918 122 l 1
 872 122 l 1
 546.564678343 122.881938541 l 1
 558.610636134 108.285932392 565.562693674 89.5736830136 568 73 c 0
518 67 m 0
 516 90 502 99 494 98 c 0
 480 97 467 83 469 65 c 0
 471 43 488 30 506 32 c 0
 512 32 520 43 518 67 c 0
488 720 m 0
 490 697 504 687 512 688 c 0
 526 689 538 703 536 721 c 0
 534 743 518 756 500 754 c 0
 494 754 486 744 488 720 c 0
683.569083186 354.293115351 m 1
 543.283016551 173.437834851 l 1
 827 173 l 1
 683.569083186 354.293115351 l 1
652.322710042 393.787754699 m 1
 505 580 l 1
 354.034437217 391.987673344 l 1
 502 206 l 1
 652.322710042 393.787754699 l 1
458.820271979 173.568178593 m 1
 321.829442143 351.879611994 l 1
 179 174 l 1
 458.820271979 173.568178593 l 1
462.209205021 612 m 1
 179 612 l 1
 322.163325977 432.048574778 l 1
 462.209205021 612 l 1
684.334106561 433.777376196 m 1
 827 612 l 1
 547.49790795 612 l 1
 684.334106561 433.777376196 l 1
EndSplineSet
Validated: 524321
Ligature2: "ltligs1" W C
EndChar

StartChar: lt_WD
Encoding: 292 -1 61
Width: 999
VWidth: 0
Flags: W
HStem: 774 20G<125 160 250 284 722 757 846 881>
LayerCount: 2
Fore
SplineSet
250 778 m 1
 268 794 l 1
 284 775 l 1
 503 505.265 l 1
 722 775 l 1
 738 794 l 1
 757 778 l 1
 776 762 l 1
 760 743 l 1
 534.99052774 465.863333333 l 1
 565 428.901666667 l 1
 846 775 l 1
 862 794 l 1
 881 778 l 1
 900 762 l 1
 884 743 l 1
 596.99052774 389.5 l 1
 884 36 l 1
 900 17 l 1
 881 1 l 1
 862 -14 l 1
 846 4 l 1
 565 350.098333333 l 1
 534.99052774 313.136666667 l 1
 760 36 l 1
 776 17 l 1
 757 1 l 1
 738 -14 l 1
 722 4 l 1
 503 273.735 l 1
 284 4 l 1
 268 -14 l 1
 250 1 l 1
 230 17 l 1
 246 36 l 1
 471.00947226 313.136666667 l 1
 441 350.098333333 l 1
 160 4 l 1
 145 -14 l 1
 125 1 l 1
 106 17 l 1
 122 36 l 1
 409.00947226 389.5 l 1
 122 743 l 1
 106 762 l 1
 125 778 l 1
 145 794 l 1
 160 775 l 1
 441 428.901666667 l 1
 471.00947226 465.863333333 l 1
 246 743 l 1
 230 762 l 1
 250 778 l 1
533.00947226 389.5 m 1
 503 426.461666667 l 1
 472.99052774 389.5 l 1
 503 352.538333333 l 1
 533.00947226 389.5 l 1
EndSplineSet
Validated: 524289
Ligature2: "ltligs1" W D
EndChar

StartChar: lt_WE
Encoding: 293 -1 62
Width: 999
VWidth: 0
Flags: W
HStem: -14 48.6877<108 175.16 225.333 292> 728.636 49.3644<291.573 482.404 654 721.637 770.779 838>
VStem: 175.16 50.1727<34.6877 240.714> 482 48<52.8125 115.803> 721.637 49.1425<528.42 728.636>
LayerCount: 2
Fore
SplineSet
839 752 m 1
 838 728 l 1
 814 728 l 1
 770.779203153 728.635599954 l 1
 778.304414961 576.679433695 816.677558038 465.115434193 809 325 c 0
 807 283 800 239 788 190 c 0
 759 80 678 -40 548 -18 c 0
 532 -16 516 -11 498 -6 c 0
 376 28 190 118 230 266 c 0
 249.54829377 338.150975188 301.183361256 371.898882623 367.080224176 384.709506997 c 1
 301.320091718 394.362804493 237.570726487 407.125713171 187 412 c 1
 185.072919893 294.448113453 218.425398316 185.251911822 225.332817568 34.3160532032 c 1
 268 34 l 1
 293 32 l 1
 293 8 l 1
 292 -18 l 1
 268 -17 l 1
 132 -14 l 1
 108 -14 l 1
 108 10 l 1
 108 35 l 1
 133 35 l 1
 175.160117021 34.6877028369 l 1
 167.558237666 186.050661159 130.344654479 298.28994424 138 438 c 0
 140 480 146 525 158 574 c 0
 187 684 268 803 398 781 c 0
 414 779 430 774 448 769 c 0
 570 735 756 646 716 498 c 0
 696.472481744 425.925705345 645.052413332 392.172893881 579.418489013 379.331408529 c 1
 645.406595436 369.673291474 709.357792905 356.88117655 760 352 c 1
 761.929933512 469.725944211 728.475755109 578.140280024 721.636673372 729.358284215 c 1
 678 730 l 1
 653 731 l 1
 654 756 l 1
 654 781 l 1
 679 780 l 1
 814 778 l 1
 839 778 l 1
 839 752 l 1
758 302 m 1
 558 321 316 395 278 252 c 0
 253 158 382 77 512 42 c 0
 528 38 544 34 558 32 c 0
 646 16 711 99 739 202 c 0
 749 237 756 270 758 302 c 1
412 545 m 0
 411 535 411 527 413 516 c 0
 414 512 424 501 440 503 c 0
 442 504 446 505 448 506 c 0
 494 535 513 565 502 578 c 0
 492 590 476 580 422 551 c 0
 420 549 414 547 412 545 c 0
367 572 m 1
 362 578 l 1
 368 580 l 1
 369 585 370 589 372 593 c 0
 384 630 400 659 410 697 c 2
 418 721 l 1
 442 714 l 1
 466 708 l 1
 458 684 l 2
 450 656 441 634 433 614 c 1
 461 628 506 651 540 610 c 0
 589 548 511 487 475 464 c 0
 465 458 456 456 446 454 c 0
 414 450 370 466 364 509 c 0
 362 532 363 553 367 572 c 1
190 462 m 1
 390 443 630 368 668 511 c 0
 693 605 564 686 434 721 c 0
 418 725 404 730 390 732 c 0
 302 748 236 665 208 562 c 0
 198 527 192 494 190 462 c 1
534 218 m 0
 535 228 535 237 533 248 c 0
 532 252 522 262 506 260 c 0
 504 259 500 258 498 257 c 0
 452 228 435 198 446 185 c 0
 456 173 469 183 523 212 c 0
 525 214 532 216 534 218 c 0
581 192 m 1
 583 186 l 1
 578 182 l 2
 577 177 577 174 575 170 c 0
 563 133 546 105 536 67 c 2
 530 42 l 1
 506 49 l 1
 482 55 l 1
 488 79 l 2
 496 107 506 129 514 149 c 1
 486 135 441 113 407 154 c 0
 358 216 436 276 472 299 c 0
 482 305 490 308 500 310 c 0
 532 314 576 297 582 254 c 0
 584 231 585 211 581 192 c 1
EndSplineSet
Validated: 8912929
Ligature2: "ltligs1" W E
EndChar

StartChar: lt_WF
Encoding: 294 -1 63
Width: 999
VWidth: 0
Flags: W
HStem: 22 21G<134 170> 311.185 58.5789<413.455 472.144 522.455 741.232> 415.742 59.9227<521.855 667.325> 765 20G<479 515.143 762 788>
VStem: 472.462 49.9935<62.1226 310.045 369.763 415.742 480.557 681.757> 762 50<595.75 781> 878 47<579.046 646>
LayerCount: 2
Fore
SplineSet
479 766 m 1
 498 785 l 1
 516 764 l 1
 706.764069741 543.429044362 l 1
 755.574415811 604.062924925 760.39573975 659.942254857 762 757 c 2
 762 782 l 1
 788 781 l 1
 812 781 l 1
 812 756 l 2
 810 634 799 550 696 458 c 0
 641.436754311 409.28281635 580.228089471 409.456930745 521.855141418 415.74160785 c 1
 522.119004523 369.763461857 l 1
 603.502030776 369.070641358 676.235771324 336.612194191 730 385 c 0
 822 468 838 524 878 646 c 2
 886 670 l 1
 910 662 l 1
 932 654 l 1
 925 630 l 1
 885 509 864 439 763 348 c 0
 686.664386512 279.843202243 598.250865414 305.98699082 522.455181895 311.184554855 c 1
 523.977356733 45.9455892197 l 1
 701 232 l 1
 719 214 l 1
 738 198 l 1
 522 -29 l 1
 503 -49 l 1
 485 -28 l 1
 296.880711964 188.385916808 l 1
 256.34227386 147.212340668 220.931691401 101.654152749 170 40 c 2
 154 22 l 1
 134 37 l 1
 116 52 l 1
 132 72 l 2
 226 184 271 252 398 335 c 0
 423.094236132 351.407769778 447.89037963 360.661316367 472.143878731 365.42913108 c 1
 471.820777793 421.729469607 l 1
 429.239841269 426.46300393 389.904064502 427.516694664 358 406 c 0
 237 327 197 267 102 152 c 2
 86 132 l 1
 68 148 l 1
 48 166 l 1
 62 184 l 1
 156 296 205 363 332 446 c 0
 380.396254774 477.643705045 427.406593882 482.816420862 471.483175915 480.556596771 c 1
 470.320565807 683.141408115 l 1
 300 505 l 1
 282 522 l 1
 263 539 l 1
 479 766 l 1
520.328513323 681.756553499 m 1
 521.511252411 475.664267429 l 1
 575.415470049 468.969642152 623.370886343 462.233797709 662 497 c 0
 676.680004606 510.228136019 689.174015617 522.805678706 699.81368417 535.106260354 c 2
 689 526 l 1
 670 508 l 1
 520.328513323 681.756553499 l 1
472.46172221 310.044904821 m 1
 456.168283342 307.546279233 440.904489737 302.377446567 427 293 c 0
 389.963252803 268.818983235 360.421734855 246.511773782 334.532651315 223.89887606 c 1
 473.884518967 62.1225699344 l 1
 472.46172221 310.044904821 l 1
EndSplineSet
Validated: 524321
Ligature2: "ltligs1" W F
EndChar

StartChar: lt_WG
Encoding: 295 -1 64
Width: 999
VWidth: 0
Flags: W
HStem: 376 52<430.331 517.675>
VStem: 178 50<98 159.578> 720 50<646.909 712>
LayerCount: 2
Fore
SplineSet
434 374 m 1
 408 361 380 342 354 317 c 1
 392 328 429 338 466 348 c 0
 470 349 486 356 488 358 c 0
 493 365 516 378 518 382 c 2
 472 376 l 2
 459 374 446 373 434 374 c 1
206 709 m 1
 184 691 167 669 154 646 c 0
 117 584 120 534 150 516 c 0
 192 491 240 481 293 482 c 1
 255 552 233 640 209 702 c 2
 206 709 l 1
388 438 m 1
 389 440 391 441 392 442 c 1
 390 442 387 442 385 442 c 1
 386 441 387 439 388 438 c 1
595 492 m 1
 557 481 519 471 482 461 c 0
 478 460 463 454 461 452 c 0
 456 445 432 432 430 428 c 2
 476 433 l 2
 489 435 502 435 514 434 c 1
 540 447 569 467 595 492 c 1
563 368 m 1
 562 369 561 370 560 371 c 1
 559 369 558 369 557 368 c 1
 559 368 561 368 563 368 c 1
298 248 m 1
 258 188 238 118 228 98 c 1
 228 98 208 88 194 88 c 0
 186 88 178 92 178 102 c 0
 178 120 180 117 182 119 c 0
 184 121 186 127 188 132 c 0
 204 170 222 203 238 232 c 1
 216 226 191 220 168 215 c 2
 146 211 l 1
 143 210 l 1
 142 212 l 1
 138 234 l 1
 132 257 l 1
 132 258 l 1
 134 259 l 1
 157 264 l 2
 195 272 234 282 272 293 c 1
 280 306 290 319 298 331 c 0
 320 359 340 381 358 403 c 1
 346 411 336 421 326 433 c 1
 254 428 186 436 125 472 c 0
 55 514 72 605 110 671 c 0
 136 714 174 755 221 780 c 0
 313 829 480 826 530 732 c 0
 540 714 544 692 542 670 c 0
 536 606 524 556 506 518 c 1
 554 530 602 548 652 562 c 1
 692 622 710 690 720 710 c 1
 720 712 l 1
 722 712 l 1
 722 712 740 720 754 720 c 0
 762 720 770 718 770 708 c 0
 770 690 768 692 766 690 c 0
 764 688 762 683 760 678 c 0
 744 640 728 606 712 577 c 1
 734 583 758 588 781 593 c 2
 803 598 l 1
 806 599 l 1
 806 598 l 1
 811 574 l 1
 816 552 l 1
 817 550 l 1
 814 550 l 1
 792 545 l 2
 754 537 714 526 676 515 c 1
 668 502 658 490 650 478 c 0
 628 450 608 428 590 406 c 1
 602 398 612 388 622 376 c 1
 694 381 762 372 823 336 c 0
 893 294 876 204 838 138 c 0
 812 95 775 53 728 28 c 0
 636 -21 469 -17 419 77 c 0
 409 95 406 116 408 138 c 0
 414 202 425 252 443 290 c 1
 395 278 348 262 298 248 c 1
655 326 m 1
 693 256 715 170 739 108 c 2
 742 100 l 1
 764 118 781 140 794 163 c 0
 831 225 828 274 798 292 c 0
 756 317 708 327 655 326 c 1
509 307 m 0
 507 303 505 300 503 298 c 0
 481 260 465 213 457 134 c 0
 455 121 458 110 463 100 c 0
 491 48 620 31 700 71 c 1
 694 89 l 1
 660 174 637 264 601 323 c 1
 577 321 552 316 526 310 c 0
 520 309 515 309 509 307 c 0
440 502 m 0
 442 506 443 509 445 511 c 0
 467 549 484 595 492 674 c 0
 494 687 491 698 486 708 c 0
 458 760 328 778 248 738 c 1
 256 719 l 2
 290 634 312 545 348 486 c 1
 372 488 396 492 422 498 c 0
 428 499 434 500 440 502 c 0
EndSplineSet
Validated: 33
Ligature2: "ltligs1" W G
EndChar

StartChar: lt_WH
Encoding: 296 -1 65
Width: 999
VWidth: 0
Flags: W
HStem: 760 20G<758 790>
LayerCount: 2
Fore
SplineSet
114 751 m 1
 137 762 l 1
 148 740 l 2
 174.808799065 686.382401871 200.567617549 634.864764903 226.417619712 591.913686566 c 1
 281.238948602 642.289030249 365.456597538 681.097409972 436.560069088 716.272122791 c 1
 451.213855485 749.984359614 474.493190532 774.564625264 514 778 c 0
 578.775420324 783.59787583 628.682126951 762.016382537 670.688184566 725.913105512 c 1
 700.839192984 741.029647787 730.85839833 755.217155402 758 769 c 2
 780 780 l 1
 791 758 l 1
 802 736 l 1
 780 724 l 2
 755.454338626 711.727169313 731.348771841 699.701891832 708.303708486 687.805559986 c 1
 753.013377315 635.637553379 789.709210187 568.673189366 830 508 c 2
 842 488 l 1
 822 473 l 1
 802 460 l 1
 788 481 l 2
 740.270816893 552.086017393 702.596514036 617.242233613 661.231680037 662.723237271 c 1
 569.441581737 611.832836761 505.662241771 561.78480874 520 503 c 0
 522.926430522 490.928474098 534.316497317 483.07203978 551.049695313 477.448259212 c 0
 552.670868744 477.669758982 554.320775749 477.853979862 556 478 c 0
 597.187252107 481.559392157 632.363063677 474.130129569 663.318741237 458.966145194 c 1
 736.263299582 448.67868814 810.811116294 430.172162621 817 359 c 0
 818.85895935 337.489184669 817.738233256 317.60044662 814.096683221 299.083284907 c 1
 833.297948981 269.08951877 852.008156621 238.147382856 871.555583767 208.669711731 c 0
 871.703674279 208.446390093 871.851812845 208.223152509 872 208 c 1
 872 209 871 209 872 208 c 1
 886 188 l 1
 865 173 l 1
 844 160 l 1
 830 181 l 2
 816.548347723 201.034375732 803.895352191 220.597748768 791.733309766 239.382415466 c 1
 743.971039101 155.441671055 639.141021381 102.523334511 548 42 c 2
 528 29 l 1
 514 50 l 1
 500 71 l 1
 521 84 l 1
 632.930665286 159.153446692 730.159550056 210.01699514 759.026434502 289.228765725 c 1
 729.134977156 333.563320029 700.634859783 370.737074758 668.146928939 395.37087647 c 1
 625.546124948 397.69289747 576.679300122 399.241395633 537.636092937 415.026401657 c 1
 521.203451876 394.545079237 520.750021916 350.75636672 517.789043425 303.396711501 c 0
 518.35111749 283.995693258 516.411168038 265.971030771 512.340491808 249.116237967 c 0
 505.073491715 203.428898528 488.908915692 161.39488857 447.116387966 140.87554233 c 1
 393.340509694 87.7993596367 317.190950238 46.8839116878 248.669702732 1.4444163626 c 0
 248.446387118 1.29632581981 248.223152527 1.14818722465 248 1 c 1
 249 1 249 2 248 1 c 1
 228 -13 l 1
 214 8 l 1
 200 28 l 1
 221 42 l 2
 271.345478582 75.803392762 318.71660278 104.563315048 358.230373848 133.162765605 c 1
 259.920326603 161.532295475 200.18092313 311.305259067 146 418 c 2
 134 440 l 1
 157 451 l 1
 170.270977415 457.635488707 l 1
 164.418878186 492.418649541 172.828943195 523.116070937 190.683262911 550.626869815 c 1
 157.402212243 604.101492838 129.30063761 666.207975169 103 718 c 2
 92 740 l 1
 114 751 l 1
219.131036587 382.169603373 m 1
 281.822130994 259.604449423 340.895833591 162.657520701 412 180 c 0
 413.265751593 180.306848871 414.485160666 180.707118376 415.660513739 181.197195931 c 0
 422.380814393 188.045374492 428.547919608 195.026437537 434.103221741 202.198992583 c 0
 446.838132895 230.712067864 449.685370021 281.811520986 457.278974674 332.371952189 c 1
 420.751666981 366.856477763 292.0570792 337.050788933 219.131036587 382.169603373 c 1
468.640760222 387.964724218 m 1
 474.657723099 409.27988548 482.793508345 428.685710681 494.423348835 444.008992319 c 1
 483.22782637 456.333390118 474.736066046 472.003276696 470 492 c 0
 467.573560105 502.464022047 466.435035021 512.560068434 466.458864781 522.312117626 c 1
 455.56759407 479.195135619 432.803860503 443.032493273 382 431 c 0
 317.1548144 415.963435223 265.999173114 450.165070158 223.241730521 503.931868575 c 1
 217.734629544 490.073902612 216.386735484 475.814384516 220 461 c 0
 232.042334737 411.325369211 387.403067735 433.026699612 468.640760222 387.964724218 c 1
255.165558175 548.139764617 m 1
 291.428369897 498.435035133 328.683153668 469.922720407 370 480 c 0
 406.179732073 488.770844139 404.496608402 573.868397475 418.322108584 650.952544104 c 1
 350.796491916 616.416822196 291.401475498 583.103594157 255.165558175 548.139764617 c 1
483.38060713 683.843967525 m 1
 477.058371451 651.834954061 478.49311528 606.399621587 473.500571134 562.606707403 c 1
 493.451364481 618.762116215 553.275881764 662.340287011 620.40903216 699.560247591 c 1
 590.976157687 720.224874571 558.115190419 730.646835493 518 727 c 0
 506.777899317 725.918351741 498.882880788 720.376219715 493.244716925 711.510566151 c 1
 502 694 l 1
 483.38060713 683.843967525 l 1
EndSplineSet
Validated: 524325
Ligature2: "ltligs1" W H
EndChar

StartChar: lt_WI
Encoding: 297 -1 66
Width: 999
VWidth: 0
Flags: W
HStem: 294.83 50.2394<450.594 573.48> 474.126 50.476<482.338 540.41>
VStem: 395.039 52.1133<169.204 306.459> 573.48 50.0034<176.599 294.83 347.379 468.092> 850 50<465.439 623.844>
LayerCount: 2
Fore
SplineSet
349 47 m 0
 395 35 439 39 474 62 c 0
 476.722302244 63.8715827931 479.401181074 65.8589613597 482.035405117 67.9645984429 c 1
 482.023603468 67.9763977189 482.011801762 67.988198238 482 68 c 0
 447 103 420 148 408 200 c 0
 399.372678618 236.515639339 395.092849294 276.613934172 395.039364707 318.275762448 c 1
 346.532574917 331.285264243 299.684650151 349.653472786 257.588577105 373.245376751 c 1
 224.315528209 347.833567021 191.892921536 317.718876608 160 283 c 0
 142 264 138 242 143 217 c 0
 151 183 288 63 349 47 c 0
101 184 m 0
 84 228 84 276 122 318 c 0
 151.143558496 349.57218837 181.099630067 377.713765976 211.967401426 402.294223987 c 1
 178.793142203 426.294640145 150.120871229 454.226384962 128 486 c 0
 114 508 104 530 102 552 c 0
 94 634 240 771 278 788 c 0
 325 808 375 809 419 768 c 0
 450.595280854 738.835125365 478.754930684 708.916822875 503.34815408 678.12476075 c 1
 527.643622402 711.663485884 555.902822253 740.653863594 588 763 c 0
 634 795 682 796 728 778 c 0
 782 756 902 630 900 558 c 0
 898.513091015 507.445094497 882.655342879 459.653811908 855.303234613 419.146333549 c 1
 860.649795461 412.98831617 865.548717257 406.600177861 870 400 c 0
 936 302 895 175 797 80 c 0
 779 62 782 68 766 56 c 0
 667.597420169 -24.4334130791 592.624569409 -21.398416345 519.153702478 35.0326538728 c 1
 513.629854191 30.3295988656 507.909357898 25.985380908 502 22 c 0
 452 -12 394 -18 336 -2 c 0
 262 20 117 142 101 184 c 0
465.94795569 467.810382953 m 1
 457.026355379 431.673917305 451.174495342 394.657026892 448.589957286 358.340365378 c 1
 491.321750843 349.552988682 534.75736312 345.023907192 576.34892742 345.068972152 c 1
 576.667956253 390.086902274 570.71655151 432.95421639 558.634780073 474.126131869 c 1
 526.708667297 475.112468961 495.865852938 472.990975086 465.94795569 467.810382953 c 1
785.711313342 413.7442077 m 1
 766.331948889 427.13547809 742.135554792 438.647586444 712 448 c 0
 676.852767047 458.402320067 642.997276441 465.699490261 610.280833666 469.938493509 c 1
 620.314372534 430.5676697 625.492148055 389.771323058 625.628390689 347.378545607 c 1
 644.492291148 349.178928717 662.70735241 352.041442118 680 356 c 0
 721.838465237 365.729875637 757.996701681 386.820208862 785.711313342 413.7442077 c 1
305.506100374 406.198052802 m 1
 334.282036183 392.171676303 365.217923191 380.423752208 397.171007131 371.095944271 c 1
 399.398411859 398.590862604 403.364088302 426.385936411 409.035499165 453.938877486 c 1
 373.363212829 442.643076179 338.953860043 426.69856124 305.506100374 406.198052802 c 1
508.400122335 586.163939261 m 1
 498.189384883 565.317689137 489.181966542 543.332497055 481.432262992 520.643528445 c 1
 500.755786992 523.067900037 520.409978242 524.393894792 540.409601323 524.602085634 c 1
 531.406160946 545.515792784 520.72958162 566.014463421 508.400122335 586.163939261 c 1
515.768382085 105.265910199 m 1
 529.149333182 125.157901787 540.653214686 149.882580656 550 180 c 0
 561.798302382 219.863961078 569.602116153 258.066214893 573.479991401 294.829549228 c 1
 532.263772297 294.65880054 489.500965713 298.563901289 447.152632303 306.459249622 c 1
 447.730126847 273.234963659 451.290880208 241.308260145 458 212 c 0
 467.732787519 170.14901367 488.832833383 133.034384985 515.768382085 105.265910199 c 1
553.191679844 71.9911807143 m 1
 605.614708737 33.1966004618 653.809140273 35.5903687315 731 98 c 0
 745 110 746 102 762 116 c 0
 850 200 874 304 828 372 c 0
 826.255295864 374.537751471 824.422542357 377.037767498 822.497749347 379.499050546 c 1
 787.579399914 344.76142314 743.751571482 319.942670342 692 308 c 0
 670.298341445 302.872685067 647.317049435 299.25249398 623.483357329 297.120777666 c 1
 619.8010231 255.011746021 611.362118819 211.355924441 598 166 c 0
 586.898367144 128.809529931 571.791231095 97.4732568358 553.191679844 71.9911807143 c 1
535.522770677 634.302467136 m 1
 559.6643411 598.320808692 579.113298019 561.13602649 593.677209249 522.57108292 c 1
 636.215770741 518.936138478 680.280126604 510.469340295 726 497 c 0
 762.137375104 486.21272385 792.747397187 471.352661263 817.83006625 453.204352812 c 1
 838.115091277 485.165555474 850 522.592368677 850 562 c 0
 850 620 749 718 707 732 c 0
 675 743 643 740 617 722 c 0
 585.888479526 700.175500563 558.604247765 669.94174705 535.522770677 634.302467136 c 1
475.273874537 634.374106273 m 1
 449.856082455 667.660230063 419.73185587 700.095155654 385 732 c 0
 359 756 325 756 289 738 c 0
 263 726 143 606 155 548 c 0
 157 536 161 525 169 515 c 0
 190.585417175 484.229298921 220.44958569 457.202491759 255.662198393 434.282839733 c 1
 308.617606895 469.718907607 364.239679118 495.071768044 422.989154751 509.735184609 c 1
 435.993481609 553.687689764 453.468656653 596.016248912 475.273874537 634.374106273 c 1
EndSplineSet
Validated: 524321
Ligature2: "ltligs1" W I
EndChar

StartChar: lt_WK
Encoding: 298 -1 67
Width: 999
VWidth: 0
Flags: W
HStem: 26 52<611 829> 719 51<149 368> 782 20G<837.333 912.902>
VStem: 170 44<253 279.188>
LayerCount: 2
Fore
SplineSet
274 540 m 1
 368 719 l 1
 149 714 l 1
 274 540 l 1
300 481 m 1
 281 445 l 1
 258 478 l 1
 82 724 l 1
 53 762 l 1
 101 763 l 1
 409 770 l 1
 452 770 l 1
 432 733 l 1
 300 481 l 1
563 434 m 1
 242 120 l 1
 368 151 l 1
 380 102 l 1
 349 94 l 1
 106 32 l 1
 170 288 l 1
 194 283 l 1
 218 278 l 1
 214 253 l 1
 188 134 l 1
 532 473 l 1
 781 716 l 1
 658 684 l 1
 644 732 l 1
 676 742 l 1
 918 802 l 1
 853 547 l 1
 829 552 l 1
 805 558 l 1
 810 582 l 1
 838 700 l 1
 563 434 l 1
704 257 m 1
 611 78 l 1
 829 82 l 1
 704 257 l 1
679 316 m 1
 698 352 l 1
 722 318 l 1
 898 72 l 1
 925 34 l 1
 878 34 l 1
 569 26 l 1
 528 26 l 1
 547 62 l 1
 679 316 l 1
EndSplineSet
Validated: 8388609
Ligature2: "ltligs1" W K
EndChar

StartChar: lt_WL
Encoding: 299 -1 68
Width: 999
VWidth: 0
Flags: W
HStem: -5 51.0167<487.812 568.641 653.058 776.482> 748.731 50.3129<207.001 339.235 421.321 509.561>
VStem: 366 50<140.398 386 442 715> 574 50<83 358 412 657.602>
LayerCount: 2
Fore
SplineSet
623 358 m 1
 621 272 616 185 618 83 c 1
 857 232 l 1
 623 358 l 1
574 402 m 2
 575 486 572 568 558 662 c 0
 549.151309649 716.566923833 495.171760705 739.596621179 421.321379832 748.731015423 c 1
 424.716468851 621.769621436 419.942803047 516.02575842 418 415 c 1
 416 409 l 1
 416 397 l 2
 415 313 418 230 432 136 c 0
 440.847181087 81.4423832953 494.809826722 59.49835542 568.640833354 50.9320279555 c 1
 565.454518913 177.09151273 572.065702125 281.4165105 574 382 c 2
 574 389 l 1
 574 402 l 2
367 442 m 1
 369 528 374 613 372 715 c 1
 133 566 l 1
 367 442 l 1
419.184002618 799.043943707 m 1
 505.738486042 790.756642909 593.698174301 764.090958549 608 670 c 0
 622 578 625 494 624 412 c 1
 919 254 l 1
 958 235 l 1
 920 212 l 1
 653.057729138 46.0166649127 l 2
 653.371669235 46.0110196888 653.685759951 46.0054650443 654 46 c 0
 750 44 772 63 854 128 c 1
 875 143 l 1
 890 122 l 1
 906 104 l 1
 887 88 l 2
 805 23 761 -7 653 -5 c 0
 629.236769843 -4.53857805521 603.025072259 -3.86424589929 576.526219007 -1.56478277926 c 1
 571 -5 l 1
 570.815997382 -1.04394370701 l 1
 484.261513958 7.24335709092 396.301825699 33.9090414512 382 128 c 0
 368 220 365 304 366 386 c 1
 71 542 l 1
 34 563 l 1
 70 586 l 1
 340.062193118 753.923286747 l 2
 338.710982056 753.950855039 337.356883188 753.976402032 336 754 c 0
 240 756 216 736 134 671 c 2
 115 655 l 1
 100 674 l 1
 84 694 l 1
 103 709 l 2
 185 774 229 805 337 803 c 0
 360.763230157 802.538578055 386.974927741 801.864245899 413.473780993 799.564782779 c 1
 419 803 l 1
 419.184002618 799.043943707 l 1
EndSplineSet
Validated: 524321
Ligature2: "ltligs1" W L
EndChar

StartChar: lt_WM
Encoding: 300 -1 69
Width: 999
VWidth: 0
Flags: W
HStem: 10 50<238 763> 214 49<504.772 763.657> 503.302 50.0887<238.723 419.74> 745 49<239 766>
VStem: 190 48.65<60 503.302 553.39 742> 763 51<64 213.227 262.755 745>
LayerCount: 2
Fore
SplineSet
814 38 m 1
 814 28 l 1
 814 14 l 1
 788 14 l 1
 778 14 l 1
 212 10 l 1
 187 10 l 1
 187 35 l 1
 190 766 l 1
 189 766 190 767 190 766 c 1
 190 778 l 1
 190 791 l 1
 214 791 l 1
 226 791 l 1
 790 794 l 1
 815 794 l 1
 815 770 l 1
 814 38 l 1
814 38 m 1
 815 38 814 37 814 38 c 1
238.650002509 503.301711009 m 1
 238 60 l 1
 763 64 l 1
 763.657389466 213.227408843 l 1
 754 214 l 2
 602 224 516 199 398 288 c 0
 388 296 380 306 378 319 c 0
 376 336 385 348 392 358 c 0
 420 394 468 425 472 438 c 1
 412.993905137 506.523206938 334.06121738 505.303338749 238.650002509 503.301711009 c 1
763.8755735 262.755184438 m 1
 766 745 l 1
 239 742 l 1
 238.723446386 553.390435014 l 1
 331.55943668 555.698033675 434.562254156 558.753407721 510 472 c 0
 516 465 520 456 522 446 c 0
 532 388 440 339 430 326 c 1
 530 252 595 273 758 263 c 2
 763.8755735 262.755184438 l 1
EndSplineSet
Validated: 8912933
Ligature2: "ltligs1" W M
EndChar

StartChar: lt_WN
Encoding: 301 -1 70
Width: 1002
VWidth: 0
Flags: W
HStem: 16 21G<70.6433 89.8202> 22 49.4876<308 684.657 743.751 848> 728 52<140 242.427 301.678 680>
VStem: 58 51<254.327 688> 71 47<139 506.673> 869 48<255.167 662> 878 51<113 588.833>
LayerCount: 2
Fore
SplineSet
406 372 m 1xa2
 71 16 l 1xaa
 58 745 l 1
 58 779 l 1
 82 779 l 1
 107 780 l 1
 797 786 l 1
 521.661862727 494.465501711 l 1
 582 430 l 1
 917 786 l 1xb4
 929 58 l 1
 931 22 l 1
 905 22 l 1
 881 22 l 1x62
 191 16 l 1
 466.055045872 307.234754452 l 1
 406 372 l 1xa2
118 139 m 1
 372 407 l 1
 109 688 l 1x30
 118 139 l 1
140 728 m 1
 406 443 l 1
 454.265656666 494.084089172 l 1
 238 725 l 1
 242.426991778 728.948398072 l 1
 140 728 l 1
869 662 m 1x24
 616 395 l 1
 878 113 l 1x22
 869 662 l 1x24
848 73 m 1
 582 358 l 1
 534.051823587 307.251930074 l 1
 749 77 l 1
 743.75100187 72.0347314988 l 1
 848 73 l 1
488.301695901 530.107634347 m 1
 680 733 l 1
 301.678094652 729.497019395 l 1
 488.301695901 530.107634347 l 1
487.643080218 458.445614348 m 1
 440 408 l 1
 500.259004379 343.450710519 l 1
 548 394 l 1
 487.643080218 458.445614348 l 1
684.656985478 71.4875646804 m 1x60
 499.726590757 270.922304086 l 1
 308 68 l 1
 684.656985478 71.4875646804 l 1x60
EndSplineSet
Validated: 8912897
Ligature2: "ltligs1" W N
EndChar

StartChar: lt_WO
Encoding: 302 -1 71
Width: 999
VWidth: 0
Flags: W
HStem: 430 48<470.955 515.037> 814 20G<188 219.826 493.786 510.276 775.818 808>
LayerCount: 2
Fore
SplineSet
808 821 m 1
 830 812 l 1
 821 788 l 1
 668.826251585 415.074202075 l 1
 822 28 l 1
 830 4 l 1
 808 -5 l 1
 784 -14 l 1
 775 10 l 1
 641.361529245 347.767563446 l 1
 517 43 l 1
 493 -14 l 1
 470 43 l 1
 353.976946465 337.580566433 l 1
 221 12 l 1
 212 -11 l 1
 188 -1 l 1
 166 8 l 1
 175 32 l 1
 327.215219557 405.528137465 l 1
 175 792 l 1
 166 816 l 1
 188 826 l 1
 212 834 l 1
 221 811 l 1
 354.622335771 472.783758176 l 1
 479 778 l 1
 502 834 l 1
 526 776 l 1
 642.100870876 482.609961434 l 1
 775 808 l 1
 784 830 l 1
 808 821 l 1
419 388 m 0
 415 420 426 476 478 478 c 0
 526 482 561 444 566 402 c 0
 572 360 543 314 496 312 c 0
 448 310 424 354 419 388 c 0
469 394 m 0
 471 371 484 361 492 362 c 0
 506 363 520 378 518 396 c 0
 516 418 499 432 481 430 c 0
 475 430 467 418 469 394 c 0
381.45677823 404.86214741 m 1
 494 120 l 1
 614.626070828 415.340700105 l 1
 502 700 l 1
 381.45677823 404.86214741 l 1
EndSplineSet
Validated: 524321
Ligature2: "ltligs1" W O
EndChar

StartChar: lt_WP
Encoding: 303 -1 72
Width: 999
VWidth: 0
Flags: W
HStem: 346 49<767.809 870.795>
VStem: 116 51<98.4688 234.149> 818 50<543.921 673.895>
LayerCount: 2
Fore
SplineSet
864 140 m 1
 882 122 l 1
 863 106 l 1
 864 107 862 106 863 106 c 1
 783 28 682 -25 554 -2 c 0
 528.081046339 3.03979654522 500.607018236 11.1897419742 473.817132491 22.8230390869 c 1
 448.542805083 10.6136770431 420.788048866 1.94087025488 390 -2 c 0
 288 -14 132 18 118 140 c 0
 117 142 116 149 116 151 c 0
 109.103131835 280.316278095 222.609702089 328.620366143 315.555620401 382.412955956 c 1
 118 396 l 1
 92 398 l 1
 94 422 l 1
 97 448 l 1
 121 446 l 1
 385.99481274 427.461268245 l 1
 475.634091405 483.542543642 550.273541942 503.618053026 592 578 c 0
 612 615 583 658 516 695 c 0
 513.83085887 696.259501301 511.642133253 697.48962587 509.437249101 698.690031073 c 0
 455.766088415 665.825872849 413.436380911 611.48624272 372 550 c 2
 358 528 l 1
 338 542 l 1
 317 556 l 1
 331 577 l 2
 366.154011271 629.164016725 405.487382222 682.292501068 455.744637071 721.438129086 c 1
 443.668877842 725.247285809 431.909855297 728.118990466 421 730 c 0
 314 750 228 707 154 636 c 1
 137 618 l 1
 119 637 l 1
 102 655 l 1
 120 672 l 1
 119 671 121 672 120 672 c 1
 200 750 302 803 430 780 c 0
 455.658005855 775.010943306 482.331958105 766.466074227 508.573681275 754.727436632 c 1
 534.011057747 767.184901432 561.964394811 776.027442536 593 780 c 0
 695 792 852 759 866 637 c 0
 867 635 868 628 868 626 c 0
 874.393116156 506.129072076 776.690524938 455.868157058 688.189849494 406.320051681 c 1
 850 395 l 1
 874 392 l 1
 872 368 l 1
 870 342 l 1
 845 346 l 1
 615.865391141 361.758913952 l 1
 517.876863594 296.039873226 435.620234229 279.540417539 391 200 c 0
 371 163 401 119 468 82 c 0
 469.969369854 80.8564949234 471.950847152 79.737204733 473.942380751 78.6423858833 c 0
 527.852033722 111.810443266 570.594997464 166.560318689 612 228 c 2
 625 248 l 1
 646 235 l 1
 667 221 l 1
 652 200 l 2
 616.739980077 147.678680114 577.275356339 94.7104981033 526.800405054 55.8105323076 c 1
 538.96940373 51.8774927966 550.854003968 48.9217234537 562 47 c 0
 669 27 755 71 829 142 c 2
 847 158 l 1
 864 140 l 1
417.477236437 53.6457516138 m 1
 359.581995179 92.9263645596 309.588372184 155.03366824 348 224 c 0
 391.6211748 300.713100511 460.13043022 331.043868959 528.853963641 367.743193697 c 1
 400.625772409 376.562188968 l 2
 396.389749159 373.793993377 392.179087723 370.944357259 388 368 c 0
 272 286 161 262 166 154 c 0
 166 152 167 148 167 146 c 0
 177 74 286 35 384 47 c 0
 395.618739649 48.3804443148 406.761072672 50.6210672609 417.477236437 53.6457516138 c 1
565.480516869 723.368741436 m 1
 623.605460101 683.898187476 674.430702237 621.000579016 636 552 c 0
 597.474697335 484.248605657 539.536566607 452.675663612 479.182995924 420.941930326 c 1
 602.203687151 412.33554452 l 1
 715.924044993 490.918533656 822.910788897 516.926959835 818 623 c 0
 818 625 817 628 817 630 c 0
 807 702 697 742 599 730 c 0
 587.352678959 728.616159876 576.197409994 726.381202647 565.480516869 723.368741436 c 1
EndSplineSet
Validated: 524325
Ligature2: "ltligs1" W P
EndChar

StartChar: lt_WQ
Encoding: 304 -1 73
Width: 999
VWidth: 0
Flags: W
HStem: 788 20G<672 697 796.231 822>
VStem: 170 51<-16 355.2 405.474 532> 314.68 50.6495<-16 343.559 398.11 421> 651.671 49.7599<370 392.964 446.468 806> 796 50<258 385.462 434.824 806>
LayerCount: 2
Fore
SplineSet
672 806 m 1
 697 808 l 1
 697 782 l 1
 700.868401487 442.354349442 l 1
 792.02470282 434.824046289 l 1
 796 782 l 1
 797 808 l 1
 822 806 l 1
 847 806 l 1
 846 782 l 1
 846 781 847 782 846 782 c 1
 839 227 l 1
 838 196 l 1
 808 202 l 1
 588 252 l 1
 564 257 l 1
 570 282 l 1
 575 306 l 1
 599 300 l 1
 790 258 l 1
 791.459485224 385.461709565 l 1
 701.430932928 392.964088923 l 1
 702 343 l 1
 702 316 l 1
 674 318 l 1
 365.942099889 343.559389092 l 1
 370 10 l 1
 370 -16 l 1
 346 -16 l 1
 320 -17 l 1
 320 8 l 1
 315.366969378 347.75557896 l 1
 225.638172298 355.200326316 l 1
 221 8 l 1
 221 -17 l 1
 196 -16 l 1
 170 -16 l 1
 170 10 l 1
 170 11 169 10 170 10 c 1
 178 564 l 1
 178 595 l 1
 208 588 l 1
 428 539 l 1
 452 534 l 1
 448 509 l 1
 442 485 l 1
 418 491 l 1
 228 532 l 1
 226.309769658 405.474185862 l 1
 314.680318544 398.109973455 l 1
 314 448 l 1
 314 475 l 1
 342 472 l 1
 651.071990704 446.467965985 l 1
 647 782 l 1
 647 806 l 1
 672 806 l 1
365.329815303 393.889182058 m 1
 652 370 l 1
 651.67098603 397.110751164 l 1
 365 421 l 1
 365.329815303 393.889182058 l 1
EndSplineSet
Validated: 8912901
Ligature2: "ltligs1" W Q
EndChar

StartChar: lt_WR
Encoding: 305 -1 74
Width: 999
VWidth: 0
Flags: W
HStem: 1 48<593.49 661.102> 752 50<278.5 371.962>
VStem: 79 51<161.347 273.678 559.212 662.714> 164.366 46.09<363.983 456.674> 758 50<353.13 444.957> 836 50<146.232 248.546 536.209 644.73>
LayerCount: 2
Fore
SplineSet
382 28 m 1
 373 4 l 1
 350 12 l 2
 244 50 80 84 78 232 c 0
 77.1913268681 283.350743878 116.600716147 318.843146074 164.365943349 343.699438402 c 1
 159.783746716 367.141879524 157.257385798 391.87534155 157 418 c 0
 156.761497322 441.134759741 158.713010445 463.003860999 162.596768771 483.714142905 c 1
 116.599994938 514.40122364 79 554.64370887 79 607 c 0
 79 741 254 776 348 802 c 2
 371 808 l 1
 378 782 l 1
 385 758 l 1
 361 752 l 1
 251 720 130 689 130 607 c 0
 130 579.442146581 150.436192566 559.218249366 179.575711049 541.952138333 c 1
 227.275912237 660.384520599 343.556365322 735.752940652 461 796 c 1
 465.107438017 798.347107438 l 1
 468 805 l 1
 472.763313609 802.721893491 l 1
 482 808 l 1
 488.740554156 795.080604534 l 1
 491 794 l 2
 625.477259698 731.345822186 738.35350781 648.258255033 785.021176078 521.98743873 c 1
 816.417418296 534.340833353 838.597748437 550.400194575 838 577 c 0
 836 679 719 707 598 749 c 1
 575 758 l 1
 583 782 l 1
 592 805 l 1
 614 797 l 2
 720 759 885 726 887 578 c 0
 887.810245033 526.549440401 848.410047983 490.854809128 800.71481552 465.796343028 c 1
 805.245937108 442.533957617 807.744130308 417.970773778 808 392 c 0
 808.240848521 368.637693497 806.24838866 346.53706121 802.288072143 325.595065955 c 1
 848.305120754 294.869249934 886 254.532326022 886 202 c 0
 886 68 712 34 618 8 c 2
 594 1 l 1
 587 25 l 1
 580 49 l 1
 604 56 l 2
 714 88 836 120 836 202 c 0
 836 229.833269841 815.069223459 250.185258107 785.344586033 267.564658365 c 1
 737.594661211 148.693482384 621.378274241 72.2135302925 504 12 c 2
 500.941176471 10.4705882353 l 1
 498 4 l 1
 492.545454545 6.27272727273 l 1
 482 1 l 1
 475.176470588 13.5098039216 l 1
 474 14 l 1
 339.840478901 76.5061405122 227.180013611 160.511336834 180.310726851 286.832886644 c 1
 149.279896665 274.503428602 127.405145343 258.471032225 128 232 c 0
 130 130 246 101 367 59 c 1
 390 50 l 1
 382 28 l 1
210.455978599 363.983388268 m 1
 268.405741109 385.753804438 324.241956112 395.362934168 328 401 c 1
 323.227119116 410.068473679 266.287140713 427.337888453 208.064814264 457.266096305 c 1
 206.540235637 444.647148106 205.833501795 431.569603717 206 418 c 0
 206.211640939 399.163956465 207.722246597 381.178958781 210.455978599 363.983388268 c 1
226.734863354 301.89384756 m 1
 267.28234835 193.781538414 364.206419965 121.246503112 490.652612949 62.4694887389 c 1
 605.37654205 122.151026098 702.180568847 189.771562139 740.463574746 289.86093955 c 1
 670.239772398 320.986620881 587 348.447089255 587 408 c 0
 587 469.634377365 667.893486046 487.145035069 737.83593626 506.815826655 c 1
 697.655749423 615.729585586 600.440444859 688.147028619 472.802946336 747.247153513 c 1
 358.226291426 687.587535568 261.605415944 619.962688752 223.445420113 519.900780902 c 1
 293.73775104 488.458822761 378 461.03823376 378 401 c 0
 378 339.062566652 296.631941442 321.683832039 226.734863354 301.89384756 c 1
755.911112811 352.535249169 m 1
 757.452321694 365.215589933 758.167372074 378.359175941 758 392 c 0
 757.792577388 410.460612455 756.348210754 428.093010216 753.736062488 444.957431496 c 1
 696.507144566 423.313421687 641.728663193 413.592994789 638 408 c 1
 642.730120111 399.012771789 698.473042902 381.970890524 755.911112811 352.535249169 c 1
EndSplineSet
Validated: 524321
Ligature2: "ltligs1" W R
EndChar

StartChar: lt_WS
Encoding: 306 -1 75
Width: 999
VWidth: 0
Flags: W
HStem: 290 50<86 418.467> 298.132 50.4906<370.949 418.467 469.56 586.507 637.285 696.536> 382 50<261.578 307.92> 448.518 49.8865<352.513 416.853 468.244 584.974> 463 51<635.671 968> 806 20G<414 447.6 582 632>
VStem: 419.005 50.5543<-8 111.119 205.198 298.132 349.87 449.98 501.474 710> 582 50<106 302.553 353.999 454.12 505.885 604.605 701.161 824>
LayerCount: 2
Fore
SplineSet
607 826 m 1x77
 632 826 l 1
 632 800 l 1
 633.415987102 667.074210809 l 1
 743 593 l 1
 762 577 l 1
 745 558 l 1
 728 540 l 1
 710 557 l 1
 634.0814416 604.604669817 l 1
 635.133050429 505.88489095 l 1
 943 514 l 1
 943 513 944 514 943 514 c 1
 968 514 l 1
 970 490 l 1
 970 464 l 1
 946.110592 463.004608 l 2
 946.073728 463.004608 946.036864 463 946 463 c 1
 947 463 946 464 946 463 c 1
 635.671302945 455.356436033 l 1
 636.751011522 353.998793387 l 1
 696.536024993 355.471330665 l 1
 696.040523044 399.051160894 710.522344424 416.012623288 755 422 c 0
 803 428 840 388 845 346 c 0
 851 304 820 258 773 256 c 0
 736.5628144 254.481783933 713.379263944 278.894593149 703.449348633 305.617088122 c 1
 637.2849436 303.875919568 l 1
 640 49 l 1
 642 0 l 1
 598 30 l 1
 471.192606048 111.119435837 l 1
 472 18 l 1
 472 -8 l 1
 448 -8 l 1
 422 -8 l 1
 422 17 l 1
 420.652996845 143.449921136 l 1
 326 204 l 1
 308 221 l 1
 324 239 l 1
 341 258 l 1
 359 241 l 1
 419.995222837 205.198456161 l 1
 419.005254677 298.131717228 l 1x6f
 110 290 l 1
 110 291 109 290 110 290 c 1
 86 290 l 1
 85 314 l 1
 84 340 l 1xa7
 108.893320437 340.995732817 l 2
 108.928880291 340.995732817 108.964440146 341 109 341 c 1
 108 341 109 340 109 341 c 1
 418.467405061 348.622349878 l 1
 417.387696484 449.979992524 l 1
 358.033332616 448.51806238 l 1
 354.6769306 418.075200117 338.920432291 383.535401242 299 382 c 0
 251 378 214 416 209 458 c 0
 203 500 234 546 281 548 c 0
 317.819006702 549.534125279 340.51677117 525.179306461 351.349934516 498.404611124 c 1
 416.853462285 500.131228001 l 1
 414 768 l 1
 414 812 l 1
 456 787 l 1
 582.988270314 701.161238882 l 1
 582 799 l 1
 582 824 l 1
 607 826 l 1x77
308 468 m 0
 306 491 292 499 284 498 c 0
 270 497 257 484 259 466 c 0
 261 444 277 430 295 432 c 0
 301 432 310 444 308 468 c 0
746 338 m 0
 748 315 762 305 770 306 c 0
 784 307 796 320 794 338 c 0
 792 360 776 374 758 372 c 0
 752 372 744 362 746 338 c 0
584.974113693 504.562744348 m 1
 583.644127817 636.231346082 l 1
 466 710 l 1
 467.808025896 501.474346646 l 1
 584.974113693 504.562744348 l 1
585.483633469 454.120286539 m 1
 468.243647958 451.232602166 l 1
 469.122514341 349.870012668 l 1
 586.507461944 352.761267536 l 1
 585.483633469 454.120286539 l 1
470.634606883 175.475339438 m 1
 589 106 l 1
 587.014615998 302.55301621 l 1
 469.559577218 299.462094137 l 1
 470.634606883 175.475339438 l 1
EndSplineSet
Validated: 8912933
Ligature2: "ltligs1" W S
EndChar

StartChar: lt_WT
Encoding: 307 -1 76
Width: 999
VWidth: 0
Flags: W
HStem: -10 51<480 538> 112 50<311 462.332 553.004 727> 640 50<286 459.316 550.267 701> 760 51<473 532>
VStem: 478.015 49.0086<160.077 641.878>
LayerCount: 2
Fore
SplineSet
504 714 m 1
 532 760 l 1
 473 760 l 1
 504 714 l 1
227 582 m 1
 204 593 l 1
 216 616 l 1
 248 677 l 1
 254 690 l 1
 270 690 l 1
 459.315964953 691.713266651 l 1
 406 770 l 1
 379 808 l 1
 426 809 l 1
 576 811 l 1
 620 812 l 1
 598 773 l 1
 550.267329786 692.536355926 l 1
 712 694 l 1
 725 694 l 1
 733 684 l 1
 779 623 l 1
 794 602 l 1
 774 588 l 1
 754 574 l 1
 739 593 l 1
 701 644 l 1
 529.838620146 642.35025176 l 1
 527.023796606 160.07715189 l 1
 727 162 l 1
 752 209 l 1
 763 232 l 1
 786 220 l 1
 808 208 l 1
 796 186 l 1
 764 125 l 1
 757 112 l 1
 742 112 l 1
 553.004486733 110.293494237 l 1
 607 32 l 1
 634 -7 l 1
 586 -8 l 1
 436 -10 l 1
 392 -10 l 1
 414 28 l 1
 462.332499904 109.474785552 l 1
 299 108 l 1
 287 108 l 1
 278 118 l 1
 232 178 l 1
 218 198 l 1
 238 214 l 1
 258 228 l 1
 272 208 l 1
 311 158 l 1
 478.015239273 159.605915762 l 1
 480.835543468 641.877932949 l 1
 286 640 l 1
 260 592 l 1
 248 570 l 1
 227 582 l 1
508 88 m 1
 480 41 l 1
 538 42 l 1
 508 88 l 1
EndSplineSet
Validated: 8912897
Ligature2: "ltligs1" W T
EndChar

StartChar: lt_WU
Encoding: 308 -1 77
Width: 999
VWidth: 0
Flags: W
HStem: -19 50<706.64 911.833> 17 50<450.951 795.219> 268.123 48.8769<339.203 371.88 426.945 530.047> 466 49<462.541 564.888 619.956 652.551> 715 51<196.4 541.03> 754 49<82 102>
LayerCount: 2
Fore
SplineSet
606 290 m 1x30
 684 278 758 262 850 248 c 1
 687.090775788 468.253271135 l 1
 672.970439635 466.415541811 657.799162005 465.574704759 641 466 c 0
 633.8849642 466.184806125 626.872388312 466.403765553 619.955960595 466.65530035 c 1
 627.210055363 409.266902519 627.967381809 348.965077487 606 290 c 1x30
913 2 m 1
 911 -22 l 1
 886 -19 l 2xb0
 752 -5 680 15 548 17 c 0
 434 19 369 0 250 -10 c 2
 188 -14 l 1
 229 32 l 2
 281.59572396 91.6084871545 332.078294311 115.677572706 378.426932073 135.108335221 c 1
 284.282239174 260.731748967 l 1
 254.052541413 252.399508291 225.524413529 237.687780717 181 220 c 2
 158 211 l 1
 148 234 l 1
 139 257 l 1
 162 266 l 2
 196.07478222 279.223049817 223.683253551 292.704752069 252.981213628 302.498752094 c 1
 66 552 l 1
 30 600 l 1
 89 592 l 2
 216 574 310 554 408 538 c 1
 447.667390335 614.580100786 495.226572386 635.917659559 546.831351711 656.36107605 c 1
 542.446542488 717.74840517 l 1
 512.264962137 715.412866328 479.981295642 714.221446408 443 715 c 0x78
 306 717 233 737 102 751 c 2
 77 754 l 1
 79 778 l 1
 82 803 l 1x34
 107 802 l 1
 241 788 312 768 444 766 c 0
 558 764 623 781 742 791 c 2
 804 796 l 1
 762 749 l 2
 709.306079734 689.280223699 659.118856693 665.42549999 613.131762974 646.192006662 c 1
 706.791604126 521.601292042 l 1
 737.78113873 529.577536561 766.861425089 544.068237364 812 562 c 2
 835 572 l 1
 844 548 l 1
 853 526 l 1
 830 516 l 2
 795.785536304 502.722745431 767.829729018 489.445490863 738.142407525 479.896982582 c 1
 926 230 l 1
 962 182 l 1
 902 190 l 2
 775 208 682 228 584 244 c 1
 544.475473497 167.69570578 496.814550145 146.236753291 445.152868225 125.859844845 c 1
 449.547994188 64.3280813732 l 1
 479.444262351 66.6130492186 511.424592477 67.7700085794 548 67 c 0x78
 685 65 759 45 890 31 c 2xb0
 916 28 l 1
 913 2 l 1
386 491 m 1
 308 503 234 519 142 533 c 1
 303.998101878 314.626558669 l 1
 318.055006026 316.538080291 333.189857352 317.425573232 350 317 c 0
 357.392893729 316.807976786 364.684386942 316.560644201 371.879789982 316.263312585 c 1
 364.779746457 372.978672797 364.199558979 432.483026733 386 491 c 1
379.471933237 266.817394384 m 1
 369.49252249 267.299374893 359.338725999 267.695919824 349 268 c 0
 345.395546115 268.110906273 341.898718992 268.151086388 338.49621798 268.123098163 c 2
 392 196 l 1
 388.404915623 218.597673227 383.754759272 242.316360425 379.471933237 266.817394384 c 1
547.564846434 718.156911244 m 1
 589.702909712 673.911944802 l 1
 618.788104809 686.937419646 648.759582818 704.058992889 679 734 c 1
 633.675263924 728.113670639 592.854881382 721.880852545 547.564846434 718.156911244 c 1
401.505149575 108.084845521 m 1
 372.296603361 95.0597676616 342.237933345 77.9385478666 312 48 c 1
 357.604994269 53.9227265285 398.649758899 60.1962399522 444.275799233 63.9118794803 c 1
 401.505149575 108.084845521 l 1
442.128946405 163.321567492 m 1
 475.709406545 181.032109948 506.012896654 205.293449391 532 252 c 1
 498.998043313 256.800284609 464.195873163 260.880483833 426.945374277 263.808520822 c 1
 432.380721352 233.772799018 438.312280239 201.095938712 442.128946405 163.321567492 c 1
418.539693655 313.594595997 m 1
 467.392286758 310.045860366 511.887657356 304.522930183 554 299 c 1
 581.593791878 363.2086311 581.310247339 413.61938862 573.321781224 468.910434448 c 1
 524.513680728 471.8676565 480.295327477 476.453071806 438 482 c 1
 410.566610012 418.164611758 410.687398181 368.245475111 418.539693655 313.594595997 c 1
652.615607028 514.863699298 m 2
 600 586 l 1
 603.540832636 563.743337717 608.105134313 540.335272763 612.333930313 516.131727087 c 1
 622.356333701 515.683938044 632.572346829 515.306695681 643 515 c 0
 646.288971099 514.898800889 649.490891488 514.853928709 652.615607028 514.863699298 c 2
564.888092 518.876645469 m 1
 559.521498325 548.646295415 553.698795398 580.979819606 549.919629259 618.191705117 c 1
 516.812147618 600.658030555 486.886872279 576.526405582 461 530 c 1
 493.847598472 525.222167495 528.12192716 521.514382651 564.888092 518.876645469 c 1
EndSplineSet
Validated: 8912929
Ligature2: "ltligs1" W U
EndChar

StartChar: lt_WV
Encoding: 309 -1 78
Width: 999
VWidth: 0
Flags: W
HStem: 768 46<396.737 413.286>
VStem: 210 50<302.21 540.387> 370 50<308.671 509.093> 589 49<287.092 485.523> 749 50<256.526 493.786>
LayerCount: 2
Fore
SplineSet
392 14 m 1
 402 26 l 2
 410.403960312 36.728459973 418.81591367 47.7846348063 427.165828401 59.0706230814 c 1
 288.602162201 144.652950242 215.940576654 274.228155727 210 422 c 0
 204.181309198 560.921242902 288.295706688 667.572377652 416.939843668 741.183855965 c 1
 408.330953671 750.348637513 399.354245587 759.304504102 390 768 c 2
 382 775 l 1
 401 814 l 1
 414 810 l 2
 443.646962315 801.631905798 471.593317474 791.877602401 497.835648482 780.848135322 c 1
 523.517189827 791.616266756 550.323723337 801.334996887 578 810 c 2
 590 814 l 1
 617 782 l 1
 607 770 l 2
 598.738181045 759.452997079 590.468637141 748.589271235 582.257906257 737.501839832 c 1
 720.545975479 651.6330268 793.065481812 521.621139931 799 374 c 0
 804.809108389 235.30753721 720.453816977 129.306260313 591.879281139 55.9961693081 c 1
 600.543291779 46.7724558081 609.580223026 37.7564123988 619 29 c 2
 626 22 l 1
 608 -17 l 1
 595 -13 l 2
 565.176558566 -4.58209314376 537.074030918 5.22411390853 510.695895307 16.3090592048 c 1
 484.837401141 5.48926667339 457.850599041 -4.28041964546 430 -13 c 2
 418 -17 l 1
 392 14 l 1
473.835326485 670.672440369 m 1
 466.538781908 681.179217484 458.853286749 691.592593473 450.767153453 701.850693033 c 1
 326.840359155 633.386354219 254.857742312 539.843755021 260 425 c 0
 265.256890097 291.825450877 328.854110898 177.841800012 456.844728984 100.535684192 c 1
 462.973980366 109.386419049 469.019577544 118.301453881 474.951178163 127.238371316 c 1
 402.080218608 242.495241161 371.714245801 359.430028253 370 422 c 0
 368.382658442 486.693662303 415.157500591 580.161055457 473.835326485 670.672440369 c 1
508.074095666 721.374714768 m 1
 504.950834272 722.895149208 501.79613685 724.396590051 498.609938756 725.878836512 c 0
 497.873960489 725.542581201 497.139407272 725.205580947 496.406282728 724.867835609 c 1
 498.879092853 721.630304462 501.314867883 718.383027676 503.713959827 715.127369233 c 1
 505.164240729 717.214496463 506.61777796 719.297082909 508.074095666 721.374714768 c 1
513.721924545 71.6589124813 m 1
 511.10524454 75.0654344551 508.529053073 78.4816799584 505.992973073 81.906123619 c 1
 504.653606948 79.9728892188 503.311111118 78.0434866256 501.965852 76.11824399 c 1
 505.456275067 74.4286573729 508.985793842 72.7622776273 512.554497558 71.1193624811 c 0
 512.944043441 71.2989967995 513.333185941 71.4788467796 513.721924545 71.6589124813 c 1
504.792548048 173.984639624 m 1
 554.470296577 255.091702304 590.235224465 331.855204894 589 372 c 0
 587.667946658 419.95392031 562.825542415 521.138823793 504.42769849 622.374828677 c 1
 454.635449805 541.135171426 418.762950832 464.204097973 420 424 c 0
 421.33372674 375.985837366 446.236911449 275.051570989 504.792548048 173.984639624 c 1
558.715364435 94.4724376517 m 1
 682.346458899 163.124007649 754.135580135 257.305376975 749 372 c 0
 743.756204971 504.842807407 680.46237218 619.354023941 553.110557558 696.842268057 c 1
 546.854264032 687.82766838 540.683247669 678.743975343 534.629641419 669.636109504 c 1
 606.82747231 554.28218428 636.290766248 436.387031954 638 374 c 0
 639.61423191 309.43072361 593.673623803 216.198255977 535.405738655 125.849668423 c 1
 542.775605448 115.276619548 550.541480326 104.796599446 558.715364435 94.4724376517 c 1
EndSplineSet
Validated: 524321
Ligature2: "ltligs1" W V
EndChar

StartChar: lt_WX
Encoding: 310 -1 79
Width: 999
VWidth: 0
Flags: W
HStem: 752 20G<902 928.769>
VStem: 85 49<183.85 756> 95 50<1 587.591> 190 48<651.05 713.244> 359.047 49.8699<158.311 373.155> 641.084 49.8415<402.025 613.442> 878 51<184.409 770> 889 49<14 601.591>
LayerCount: 2
Fore
SplineSet
716 697 m 0x9c
 718.943648864 673.450809087 714.305362672 636.362448431 690.925864168 617.61856734 c 1
 691.756542555 547.753316514 718.120447121 483.958961312 680 402 c 0
 612 256 493 280 518 178 c 0
 544 74 618 75 756 52 c 0
 760 51 766 51 772 52 c 0
 798 57 813 78 811 95 c 2
 806 119 l 1
 832 124 l 1
 856 128 l 1
 860 104 l 2
 870 50 824 10 781 2 c 0
 770 0 760 0 748 2 c 0
 630 24 506 18 469 166 c 0
 434 308 597 342 635 424 c 0
 663.280899696 484.21094774 643.290271107 527.776540899 641.084352117 606.326942421 c 1
 601.50862487 611.261403262 572.394555709 645.08573204 568 682 c 0
 562 724 593 770 640 772 c 0
 688 774 711 731 716 697 c 0x9c
667 690 m 0
 665 713 651 723 643 722 c 0
 629 721 616 706 618 688 c 0
 620 666 636 653 654 655 c 0
 660 655 669 666 667 690 c 0
120 0 m 1
 95 0 l 1
 95 25 l 1xbc
 85 731 l 1
 84 756 l 1
 109 757 l 1
 134 757 l 1
 134 732 l 1xdc
 145 26 l 1
 145 1 l 1xbc
 120 0 l 1
334 74 m 0
 331.057489606 97.5400831511 335.691050703 135.150013357 359.047017849 154.186953705 c 1
 357.793699827 223.34793553 332.20817725 286.747581102 370 368 c 0
 438 514 551 485 526 587 c 0
 500 691 431 696 293 719 c 0
 289 720 284 720 278 719 c 0
 252 714 236 694 238 677 c 2
 242 652 l 1
 218 648 l 1
 194 643 l 1
 190 668 l 2
 180 722 226 760 269 768 c 0
 280 770 290 770 302 768 c 0
 420 746 537 747 574 599 c 0
 609 457 453 430 415 348 c 0
 386.713595462 287.777332273 406.717513024 244.206499754 408.916933999 165.627184387 c 1
 448.283872943 160.486647537 476.606996099 125.901232765 481 89 c 0
 487 47 457 2 410 0 c 0
 362 -2 339 40 334 74 c 0
383 82 m 0
 385 59 399 49 407 50 c 0
 421 51 434 64 432 82 c 0
 430 104 413 118 395 116 c 0
 389 116 381 106 383 82 c 0
902 770 m 1
 928 772 l 1
 929 746 l 1x9e
 938 40 l 1
 938 14 l 1
 914 14 l 1
 889 14 l 1
 889 40 l 1x9d
 878 746 l 1
 878 770 l 1x9e
 902 770 l 1
EndSplineSet
Validated: 8912929
Ligature2: "ltligs1" W X
EndChar

StartChar: lt_WY
Encoding: 311 -1 80
Width: 999
VWidth: 0
Flags: W
HStem: 112 50<422.381 602.891> 634 49<450.945 573.585> 786 20G<491 523>
VStem: 192 50<290.487 502.868> 797 50<294.056 510.201>
LayerCount: 2
Fore
SplineSet
508 634 m 0
 463.200535212 634.617923652 421.073877904 627.026510044 384.126907211 611.697642308 c 1
 348 574 l 1
 330 556 l 1
 316.427384666 569.572615334 l 1
 271.859361741 529.67925183 243.919456032 471.899057231 242 398 c 0
 240 252 357 164 499 162 c 0
 568.570559591 161.146373502 632.129524047 173.95546322 682.523674656 201.67130719 c 1
 694 212 l 1
 696.061631702 209.680664336 l 1
 756.013790479 247.794446369 794.329940435 309.422046282 797 397 c 0
 799.497484186 477.918487641 768.06336407 536.63173423 715.658432442 575.382953906 c 1
 701 559 l 1
 682 574 l 1
 641.798036332 613.040057204 l 1
 601.815439635 626.576789649 556.313377506 633.407197822 508 634 c 0
449.045754313 679.439047979 m 1
 467.994526086 682.01253273 487.682245847 683.224505571 508 683 c 0
 530.787099939 682.76013579 553.056386326 681.196970279 574.595675723 678.300153055 c 1
 509 742 l 1
 449.045754313 679.439047979 l 1
667.073818324 655.786839692 m 1
 776.591813792 615.195881779 850.488177263 528.946006902 847 395 c 0
 844.14312734 286.438838922 792.968864021 208.892219145 713.996168908 162.73321265 c 1
 709 158 l 1
 532 -23 l 1
 517 -38 l 1
 499 -25 l 1
 310 155 l 1
 290 170 l 1
 296.364921242 177.488142638 l 1
 230.173209834 228.321183332 189.785537811 305.885356963 192 400 c 0
 194.759946559 519.367688692 257.982251639 609.694402031 356.373191549 653.570174362 c 1
 491 792 l 1
 506 806 l 1
 523 793 l 1
 667.073818324 655.786839692 l 1
604.462808645 121.855163969 m 1
 570.958449528 114.900451686 535.199953194 111.610471694 498 112 c 0
 469.843457129 112.321789061 442.722396259 115.594701823 417.04916078 121.5688332 c 1
 514 28 l 1
 604.462808645 121.855163969 l 1
EndSplineSet
Validated: 524321
Ligature2: "ltligs1" W Y
EndChar

StartChar: lt_WZ
Encoding: 312 -1 81
Width: 999
VWidth: 0
Flags: W
HStem: 22 21G<266 301> 778 20G<202 206 241 276 678.667 712 757.664 798>
VStem: 401 50<281.816 509.18> 528 50<285.607 513.31>
LayerCount: 2
Fore
SplineSet
427.390417541 254.785098925 m 1
 481.546859145 223.398979359 l 1
 503.500291574 235.457917178 525.453554643 247.517024357 547.402268809 259.580680439 c 1
 536.246964657 293.353798925 529.37263942 330.624594318 528 374 c 0
 525.990360571 438.710389605 534.642758815 491.789465386 551.814509601 540.44444096 c 1
 497.72191018 571.742752132 l 1
 475.696766436 559.587360867 453.671622693 547.431814955 431.646478949 535.271628919 c 1
 442.773061688 501.537547135 449.629361139 464.312188005 451 421 c 0
 453.001629258 356.547537878 444.42604654 303.47359167 427.390417541 254.785098925 c 1
408.527424786 209.205728253 m 1
 402.684904136 196.957578196 396.304680566 184.857950475 389.425198212 172.779862939 c 1
 403.434326164 180.483031983 417.445881745 188.183773399 431.45872566 195.88322648 c 1
 423.842235808 200.308277329 416.194743081 204.751277642 408.527424786 209.205728253 c 1
412.248268409 582.876147738 m 1
 446.190948954 601.558883668 l 1
 379.058209028 640.402300449 l 1
 391.421150334 621.681347181 402.591784868 602.73507239 412.248268409 582.876147738 c 1
368.049151659 558.548062468 m 1
 344.95956456 606.688331792 310.969930922 649.997164285 269.668173148 703.696048924 c 1
 181 755 l 1
 189 769 198 784 206 798 c 1
 206 798 217.455688757 791.356189037 237.641412073 779.648988451 c 1
 241 782 l 1
 262 798 l 1
 276 778 l 2
 285.665201998 765.183101699 295.175887713 752.862862877 304.46364664 740.893186618 c 1
 356.085309144 710.953020927 423.71238287 671.72884995 496.729040781 629.376068665 c 1
 650.269859765 713.888032055 l 1
 659.145674307 726.264119899 668.400768743 738.928706374 678 752 c 2
 692 773 l 1
 712 758 l 1
 720.013289037 752.276222117 l 1
 794 793 l 1
 802 779 810 763 818 749 c 1
 773.335789264 724.13973176 728.671578527 699.368235847 684.00736795 674.648106823 c 1
 655.010104031 633.634784249 631.495503448 597.771476603 614.022635753 561.338473647 c 1
 718.62767176 500.658749986 822.938303032 440.142949133 899 396 c 1
 610.640825693 237.099979473 l 1
 633.714235045 188.744905885 667.781473537 145.32441104 709.216247796 91.4542200275 c 1
 798 40 l 1
 790 26 780 12 772 -2 c 1
 772 -2 761.350615035 4.18938613377 742.495827109 15.1470789766 c 1
 738 12 l 1
 718 -2 l 1
 703 17 l 2
 693.07261001 30.164582378 683.308233135 42.8051940282 673.780999277 55.0801462891 c 1
 622.360352968 84.9618734037 555.013480931 124.096627673 482.270424033 166.361604292 c 1
 330.632580462 82.801729653 l 1
 321.179119685 69.5610225223 311.287175114 56.0080682399 301 42 c 2
 287 22 l 1
 266 37 l 1
 258.170921795 42.8718086536 l 1
 184 2 l 1
 176 16 168 32 160 46 c 1
 205.964631749 71.584087483 252.02328038 97.0741580841 298.135177237 122.510980661 c 1
 326.264270897 162.626653497 349.003510284 197.998918053 365.904525266 233.967452497 c 1
 261.051974363 294.879550255 156.351700266 355.688745382 80 400 c 1
 368.049151659 558.548062468 l 1
386.716981373 510.457994326 m 1
 318.477987582 472.756946796 250.238993791 434.98208145 182 397 c 1
 384.046930454 279.904619851 l 1
 397.029123907 320.617335792 402.87283853 364.687682622 401 419 c 0
 399.76950235 453.453934203 394.844541 483.244365049 386.716981373 510.457994326 c 1
548.127222256 599.56251157 m 1
 555.718207282 595.159290429 563.339297436 590.738576881 570.979460209 586.306767927 c 1
 576.903118974 598.598115994 583.37257463 610.742825719 590.34838981 622.873550058 c 1
 576.274667292 615.101089776 562.200944774 607.331133697 548.127222256 599.56251157 c 1
532.348538735 193.957096869 m 1
 599.742954003 154.898969839 l 1
 587.329726222 173.71800217 576.122761329 192.768388368 566.44886088 212.748043618 c 1
 532.348538735 193.957096869 l 1
592.355333816 284.300221702 m 1
 661.022155123 322.081548556 729.61512906 359.936722779 798 398 c 1
 595.411756453 515.218805423 l 1
 582.154517483 474.559646997 576.120395314 430.508535884 578 376 c 0
 579.234142858 341.443999972 584.184670686 311.579174414 592.355333816 284.300221702 c 1
EndSplineSet
Validated: 524321
Ligature2: "ltligs1" W Z
EndChar

StartChar: lt_DN
Encoding: 313 -1 82
Width: 999
VWidth: 999
Flags: W
HStem: 19.2902 51.119<226 486.19 537.472 766> 357.184 50.3617<762.457 791.635 842.693 947.186> 371.127 50.9407<343.137 439.798 560.605 697.639> 389 50<51.95 254.819> 766 20G<816.18 835.357>
VStem: 469 49<543.237 840.587> 480.016 50.0411<98.4276 324.849 458.49 721.568> 488 50<-28.5227 19.2902 70.8725 254.731> 792.552 50.1411<296 355.176 407.546 662>
LayerCount: 2
Fore
SplineSet
50 414 m 1x9980
 53 439 l 1x9980
 78 437 l 1
 439.798208787 422.067290911 l 1
 157 725 l 1
 193 758 l 1
 477.329023776 454.221759614 l 1
 469 815 l 1
 467 840 l 1
 492 842 l 1
 516 845 l 1
 518 821 l 1xac80
 526.809475824 458.490069831 l 1
 835 786 l 1
 841.795081449 405.475438855 l 1
 926 402 l 1
 952 400 l 1
 949 374 l 1
 947 350 l 1
 922 352 l 1
 842.693285624 355.176005052 l 1
 848 58 l 1
 848 22 l 1
 822 22 l 1
 799 22 l 1
 537.472032958 19.7258437649 l 1
 538 -2 l 1
 541 -28 l 1
 516 -30 l 1
 491 -32 l 1
 488 -8 l 1
 487.369971689 19.2901736669 l 1
 109 16 l 1
 444.397351828 371.126607818 l 1xa980
 73 386 l 1
 48 389 l 1
 50 414 l 1x9980
791.634868294 407.545730672 m 1xc880
 787 662 l 1
 555.137190729 417.306837647 l 1
 791.634868294 407.545730672 l 1xc880
792.552203813 357.184010684 m 1
 560.605134591 366.472821465 l 1
 797 113 l 1
 792.552203813 357.184010684 l 1
536.229101053 70.8724916764 m 1
 766 73 l 1
 530.057129242 324.849131708 l 1x8a80
 536.229101053 70.8724916764 l 1
486.189824865 70.409165045 m 1
 480.015986863 337.833832199 l 1
 226 68 l 1
 486.189824865 70.409165045 l 1
EndSplineSet
Validated: 8912897
Ligature2: "ltligs1" D N
EndChar

StartChar: lt_DK
Encoding: 314 -1 83
Width: 999
VWidth: 999
Flags: W
HStem: 26 52<611 829> 352 50<731.264 915.591> 367.72 50.0346<262.225 392.698 512.841 611.19> 389 50<20.6 221.126> 772 20G<795.29 868.844>
VStem: 437 50<578.387 840.548> 446.488 48.5666<472.108 784.631> 448.186 49.2788<-5.3565 354.706> 458 50<-28.6731 305.063>
LayerCount: 2
Fore
SplineSet
18 414 m 1x99
 22 439 l 1
 46 437 l 1
 442.489850381 420.654717593 l 1
 446.488011531 424.568325487 l 1x9a
 437 815 l 1x9c
 434 840 l 1
 458 842 l 1x9880
 484 845 l 1
 487 821 l 1x9c
 495.054618425 472.107844017 l 1
 734 706 l 1
 611 674 l 1
 599 722 l 1
 630 730 l 1
 874 792 l 1
 808 536 l 1
 782 542 l 1
 758 547 l 1
 766 572 l 1
 791 689 l 1
 512.841182062 417.754486016 l 1xaa
 895 402 l 1
 920 400 l 1
 918 374 l 1
 914 350 l 1
 890 352 l 1xca
 497.464546378 367.719912159 l 1xa9
 506 -2 l 1
 508 -28 l 1
 482 -30 l 1
 458 -32 l 1xa880
 457 -8 l 1
 448.185759502 354.705996474 l 1
 107 22 l 1
 88 5 l 1
 71 22 l 1
 53 41 l 1
 72 58 l 1
 392.697649565 371.915524046 l 1
 41 386 l 1
 16 389 l 1
 18 414 l 1x99
704 257 m 1
 611 78 l 1
 829 82 l 1
 704 257 l 1
679 316 m 1
 698 352 l 1xc8
 722 318 l 1
 898 72 l 1
 925 34 l 1
 878 34 l 1
 569 26 l 1
 528 26 l 1
 547 62 l 1
 679 316 l 1
EndSplineSet
Validated: 8912897
Ligature2: "ltligs1" D K
EndChar

StartChar: lt_DA
Encoding: 315 -1 84
Width: 999
VWidth: 999
Flags: W
HStem: 19.8561 50.1439<283.765 715.235 820.488 821> 565 49<474.011 524.038> 724 50<277.241 372.889 640.038 713.588> 759 20G<184 218 781 816>
LayerCount: 2
Fore
SplineSet
184 763 m 1xd0
 203 779 l 1xd0
 218 760 l 1
 238.851697719 734.352411806 l 1
 264.793151778 758.488030332 297.609083506 774.837564462 342 774 c 0xe0
 464 772 450 615 497 614 c 0
 533 613 567 773 661 769 c 0
 699.95165611 766.949912836 730.497597462 751.618796356 756.360032809 729.692840355 c 1
 781 760 l 1
 797 779 l 1
 816 763 l 1
 835 748 l 1
 818 728 l 1
 790.706906036 694.384005934 l 1
 812.046771039 668.743951112 830.713541727 639.97767849 850 614 c 2
 864 595 l 1
 844 580 l 1
 824 565 l 1
 809 586 l 2
 790.195032199 611.301229405 773.961895773 634.615134565 758.262141535 654.42287099 c 1
 583.76218647 439.497093002 l 1
 892 60 l 1
 926 19 l 1
 874 19 l 1
 820.488283638 19.0726074849 l 1
 835 2 l 1
 816 -14 l 1
 797 -30 l 1
 781 -11 l 1
 756.513332586 19.1594120318 l 1
 243.052316123 19.8561026918 l 1
 218 -11 l 1
 203 -30 l 1
 184 -14 l 1
 166 2 l 1
 179.456794307 19.9423924094 l 1
 137 20 l 1
 85 20 l 1
 118 61 l 1
 417.375451955 436.864235009 l 1
 241.175583249 653.883739965 l 1
 228.959048502 634.509902751 216.530968053 612.115223577 202 588 c 2
 190 566 l 1
 168 578 l 1
 146 592 l 1
 158 614 l 2
 172.669885562 639.479274923 187.637839742 669.42957912 206.586079399 696.486478874 c 1
 181 728 l 1
 166 748 l 1
 184 763 l 1xd0
482 518 m 1
 502 542 l 1
 520 518 l 1
 552.110577133 478.466009874 l 1
 724.790622278 690.862465401 l 1
 705.422014717 707.889205021 684.703039152 718.170869705 659 719 c 0
 629 721 592 563 494 565 c 0
 379 567 403 722 341 724 c 0xe0
 311.476900868 724.881286541 290.108794398 713.724250582 271.419958474 694.293451076 c 1
 448.718896454 476.215757361 l 1
 482 518 l 1
499.5 413.755 m 1
 520.37045017 439.425653709 l 1
 502 462 l 1
 481.359802001 436.067443539 l 1
 499.5 413.755 l 1
467.797562627 374.761002031 m 1
 450.006028753 396.674241253 l 1
 190 70 l 1
 220.024390244 70 l 1
 467.797562627 374.761002031 l 1
531.202437373 374.761002031 m 1
 778.975609756 70 l 1
 821 70 l 1
 552.073695006 400.46743435 l 1
 531.202437373 374.761002031 l 1
499.5 335.714166667 m 1
 283.764546685 70 l 1
 715.235453315 70 l 1
 499.5 335.714166667 l 1
EndSplineSet
Validated: 8912929
Ligature2: "ltligs1" D A
EndChar

StartChar: lt_DG
Encoding: 316 -1 85
Width: 999
VWidth: 999
Flags: W
HStem: 2.7085 53.6554<519.941 716.338> 356.111 47.8892<852.798 928.888> 364.14 54.3465<548.412 766.599> 374.325 51.6384<198.733 360.925> 392 50<33.9904 170.805> 798 20G<170 202.182 718.5 724>
VStem: 459.146 50.2078<486.187 836.841> 462.922 49.4714<75.418 300.96> 472 50<-26.0938 2.7085 75.418 292.812> 724 52<722.68 786>
LayerCount: 2
Fore
SplineSet
32 416 m 1x8cc0
 35 442 l 1x8cc0
 60 438 l 1
 360.925049878 425.962998005 l 1x94c0
 238.225790527 471.185606999 202.817669168 661.373205755 157 778 c 2
 148 802 l 1
 170 810 l 1
 194 818 l 1
 203 796 l 2
 268 629 300 441 438 460 c 0
 444.851699791 461.038136332 451.91894499 462.625913456 459.145794218 464.729766544 c 1
 451 818 l 1
 448 842 l 1
 473 845 l 1
 498 848 l 1
 502 822 l 1
 509.353579103 486.186554315 l 1
 558.369776847 513.331136381 608.802965717 558.532914085 646 613 c 0
 694 681 713 764 724 786 c 1
 724 786 776 807 776 782 c 0
 776 762 772 774 770 766 c 0
 768 764 766 758 764 752 c 0
 722 654 680 583 642 530 c 0
 608.178929645 483.496028261 575.787690289 449.145620023 547.848682862 418.486052686 c 1xa640
 910 404 l 1
 934 402 l 1
 932 377 l 1
 928 352 l 1
 904 354 l 1
 852.798401146 356.110784405 l 1xc640
 908.734138197 307.810682162 889.560816647 218.104257109 851 152 c 0
 823 104 782 60 730 32 c 0
 673.67468319 1.8854741806 591.225116761 -10.1908792832 519.940689773 2.70850036394 c 1
 520 0 l 1
 522 -25 l 1
 498 -28 l 1
 472 -30 l 1
 470 -6 l 1
 469.468593081 17.0462790126 l 1
 434.9062897 31.065560187 406.40673079 53.009508507 390 84 c 0
 380 103 376 128 378 152 c 0
 385 226 397 280 419 324 c 1
 321 298 217 264 108 240 c 2
 83 234 l 1
 78 258 l 1
 72 283 l 1
 97 288 l 2
 204.586668274 311.705537077 310.510755222 347.049143435 410.982608608 374.324627443 c 1x94c0
 55 389 l 1
 30 392 l 1
 32 416 l 1x8cc0
683.583055679 363.086682039 m 2
 658.044165078 364.139522052 l 2
 613.031937865 364.633393232 564.426466426 358.324201743 512.393445664 347.365981356 c 1xa540
 518.765755001 56.3638549403 l 1
 577.58917405 42.5643916362 652.850238165 47.334959909 706 76 c 0
 748 98 784 137 808 178 c 0
 849 248 845 304 810 326 c 0
 772.073516165 348.200868586 729.868572556 359.705587737 683.583055679 363.086682039 c 2
462.922042944 300.959821801 m 1
 445.516535127 263.015600854 433.227977859 214.507756451 427 146 c 0
 425 130 428 119 434 108 c 0
 440.704883021 95.2188167419 452.634081766 84.2815096219 468.122642174 75.4180446708 c 1
 462.922042944 300.959821801 l 1
EndSplineSet
Validated: 8912929
Ligature2: "ltligs1" D G
EndChar

StartChar: lt_DZ
Encoding: 317 -1 86
Width: 999
VWidth: 999
Flags: W
HStem: 774 20G<130 134 230 266 667.714 702 828 862>
LayerCount: 2
Fore
SplineSet
230 778 m 1
 251 794 l 1
 266 775 l 1
 348.187202963 673.772761684 l 1
 409.673394605 638.109466757 478.761433764 598.035447145 547.510985433 558.154762644 c 1
 573.765757706 623.254919838 615.413524719 681.754586852 667 752 c 2
 682 773 l 1
 702 758 l 1
 722 743 l 1
 708 722 l 2
 654.592138524 648.138063916 614.419721408 593.322255082 590.600783224 533.158538313 c 1
 599.946311336 527.737138727 609.254313509 522.337442943 618.504411547 516.971266888 c 1
 828 775 l 1
 842 794 l 1
 862 778 l 1
 882 762 l 1
 866 743 l 1
 661.998895321 491.738639403 l 1
 723.308715461 456.169878735 780.445638443 423.018156261 827 396 c 1
 652.005740175 299.569596684 l 1
 866 36 l 1
 882 17 l 1
 862 1 l 1
 842 -14 l 1
 828 4 l 1
 607.801643599 275.210975634 l 1
 587.423796258 263.981784232 l 1
 615.061793832 190.965524286 667.094532483 134.000945821 732 47 c 1
 746 26 l 1
 727 12 l 1
 707 -2 l 1
 692 17 l 2
 630.283027507 98.842072219 574.866360509 160.433162489 543.561575929 239.811553729 c 1
 387.744610168 153.948778191 l 1
 266 4 l 1
 251 -14 l 1
 230 1 l 1
 212 17 l 1
 228 36 l 1
 271.962532322 90.1471856431 l 1
 112 2 l 1
 104 16 96 32 88 46 c 1
 177.469400646 95.7990060201 267.116906794 145.241801037 356.792188325 194.629045287 c 1
 515.00947226 389.5 l 1
 315.354786245 635.408021608 l 1
 109 755 l 1
 117 769 126 784 134 798 c 1
 134 798 170.165096715 777.025786127 227.20649034 743.942292722 c 1
 212 762 l 1
 230 778 l 1
578.99052774 389.5 m 1
 619.578473083 339.509180652 l 1
 654.740359639 358.963365268 689.883898454 378.454245366 725 398 c 1
 630.40312866 452.823186799 l 1
 578.99052774 389.5 l 1
586.894512297 478.038407646 m 1
 575.390488665 484.705512251 l 1
 573.320460254 475.851600539 571.572908777 466.778026793 570.155863712 457.421972139 c 1
 586.894512297 478.038407646 l 1
436.196328996 565.374854786 m 1
 521.321586128 460.528913086 l 1
 523.765677709 477.807336555 527.1547206 494.286067013 531.422811318 510.186779805 c 1
 436.196328996 565.374854786 l 1
472.50781119 258.348787449 m 1
 491.019276148 268.545747192 509.529169256 278.745850635 528.03616798 288.951742848 c 1
 525.67877504 298.746024255 523.664688902 308.854391299 522.018603277 319.329579703 c 1
 472.50781119 258.348787449 l 1
575.416657802 315.098483141 m 2
 572.026177409 319.274424825 l 2
 572.365896299 317.44023273 572.718791345 315.619147513 573.084739216 313.810675841 c 1
 573.862052447 314.239930869 574.639358675 314.669199903 575.416657802 315.098483141 c 2
EndSplineSet
Validated: 524289
Ligature2: "ltligs1" D Z
EndChar

StartChar: lt_DU
Encoding: 318 -1 87
Width: 999
VWidth: 999
Flags: W
HStem: 362 51<633.441 792.556> 715 51<342.405 709.305> 754 49<116 134> 774 20G<272.309 293.12 862 896>
LayerCount: 2
Fore
SplineSet
896 778 m 1xd0
 914 762 l 1
 899 743 l 1
 632.526047593 414.792915285 l 1
 646.97264231 414.045106261 661.786093694 413.447467833 677 413 c 0
 742 411 773 431 846 460 c 2
 869 469 l 1
 878 446 l 1
 888 422 l 1
 864 414 l 2
 797 388 753 360 674 362 c 0
 659.85379125 362.367433994 646.146357653 363.004883466 632.815691169 363.850340377 c 1
 899 36 l 1
 914 17 l 1
 896 1 l 1
 877 -14 l 1
 862 4 l 1
 580.5 350.714166667 l 1
 455.043279724 196.193306194 l 1
 462.362153293 151.301426955 473.370015553 102.294336199 478 40 c 2
 484 -44 l 1
 422 19 l 1
 368.892741633 90.0845601118 l 1
 299 4 l 1
 283 -14 l 1
 264 1 l 1
 245 17 l 1
 262 36 l 1
 338.711280455 130.482727093 l 1
 100 450 l 1
 64 498 l 1
 122 490 l 2
 249 472 344 452 442 436 c 1
 451.219837372 453.79940826 460.866013562 470.287004773 470.890233796 485.716862042 c 1
 269.977187743 733.174763764 l 1
 228.45146842 739.072272348 185.471122079 745.499269396 134 751 c 2
 110 754 l 1
 113 778 l 1
 116 803 l 1xa0
 142 802 l 2
 192.213078211 796.7538575 233.439377278 790.665204456 272.308792764 784.996878117 c 1
 283 794 l 1
 293.120035494 781.982457851 l 1
 350.034389056 773.831382011 404.372335604 767.115570673 478 766 c 0
 592 764 657 781 776 791 c 2
 838 796 l 1
 797 749 l 2
 696.495483927 635.094881784 603.707130024 580.113183782 532.735104565 487.116262878 c 1
 580.5 428.285833333 l 1
 862 775 l 1
 877 794 l 1
 896 778 l 1xd0
421 389 m 1
 343 401 270 418 178 432 c 1
 370.50204107 169.638347251 l 1
 406.329970025 213.766413081 l 1
 399.452274316 270.631057929 399.135883186 330.3121075 421 389 c 1
416.457949333 148.669040928 m 1
 400.399738909 128.890678423 l 1
 426 94 l 1
 423.20054407 111.596580129 419.801321291 129.872896022 416.457949333 148.669040928 c 1
340.4709993 723.921552529 m 1
 500.379745966 526.967279552 l 1
 563.080436765 606.987431643 637.195248224 658.945790321 713 734 c 1
 636 724 573 713 478 715 c 0xc0
 425.340407167 715.76875318 381.693281474 719.196922893 340.4709993 723.921552529 c 1
448.018707491 265.113041393 m 1
 536.01361394 373.493434503 l 1
 514.058744155 376.296332765 492.854059607 379.265041363 472 382 c 1
 453.427164102 338.782439545 447.483793106 301.688256012 448.018707491 265.113041393 c 1
520.668817562 424.406239703 m 1
 503.925666256 445.028221062 l 1
 500.551275811 439.498372005 497.242047643 433.826923467 494 428 c 1
 502.758763949 426.725997971 511.644331114 425.528077872 520.668817562 424.406239703 c 1
EndSplineSet
Validated: 8912929
Ligature2: "ltligs1" D U
EndChar

StartChar: ltd10
Encoding: 319 -1 88
Width: 999
VWidth: 0
Flags: W
HStem: 26 50<552.408 760.196>
VStem: 136 50<173.98 584.043> 768 49<76.5814 161.425>
LayerCount: 2
Fore
SplineSet
778 662 m 1
 756 648 l 1
 742 668 l 2
 720 698 687 744 670 743 c 0
 472 731 360 747 251 635 c 0
 168 550 185 514 186 398 c 0
 187 279 174 190 260 104 c 0
 368 -5 510 64 752 76 c 1
 759 88 766 126 768 144 c 2
 772 169 l 1
 797 166 l 1
 821 160 l 1
 817 136 l 2
 816 128 818 28 760 26 c 0
 534 15 361 -68 224 70 c 0
 122 173 137 285 136 397 c 0
 135 509 115 568 215 670 c 0
 351 809 485 785 671 793 c 0
 721 795 760 728 782 698 c 2
 797 677 l 1
 778 662 l 1
EndSplineSet
Validated: 33
EndChar

StartChar: ltd11
Encoding: 320 -1 89
Width: 999
VWidth: 0
Flags: W
HStem: 565 49<474.011 524.038> 724 50<277.896 372.889 640.038 712.466>
LayerCount: 2
Fore
SplineSet
168 578 m 1
 146 592 l 1
 158 614 l 2
 196 680 236 776 342 774 c 0
 464 772 450 615 497 614 c 0
 533 613 567 773 661 769 c 0
 756 764 801 680 850 614 c 2
 864 595 l 1
 844 580 l 1
 824 565 l 1
 809 586 l 2
 754 660 721 717 659 719 c 0
 629 721 592 563 494 565 c 0
 379 567 403 722 341 724 c 0
 274 726 249 666 202 588 c 2
 190 566 l 1
 168 578 l 1
EndSplineSet
Validated: 33
EndChar

StartChar: ltd12
Encoding: 321 -1 90
Width: 999
VWidth: 0
Flags: W
HStem: -14 48.6928<172 239.16 289.333 358>
VStem: 239.16 50.1729<34.6928 240.716>
LayerCount: 2
Fore
SplineSet
172 10 m 1
 172 35 l 1
 198 35 l 1
 239.159859163 34.6928368719 l 1
 231.557396178 186.053199177 194.344741032 298.291523839 202 438 c 0
 204 480 210 525 222 574 c 0
 251 684 332 803 462 781 c 0
 478 779 494 774 512 769 c 0
 634 735 820 646 780 498 c 0
 725 295 417 396 251 412 c 1
 249.072929934 294.448725973 282.425050741 185.253049785 289.33270959 34.318412615 c 1
 332 34 l 1
 358 32 l 1
 358 8 l 1
 358 -18 l 1
 332 -17 l 1
 197 -14 l 1
 172 -14 l 1
 172 10 l 1
253 462 m 1
 453 443 694 368 732 511 c 0
 757 605 629 686 499 721 c 0
 483 725 468 730 454 732 c 0
 366 748 299 665 271 562 c 0
 261 527 255 494 253 462 c 1
EndSplineSet
Validated: 524321
EndChar

StartChar: ltd13
Encoding: 322 -1 91
Width: 999
VWidth: 0
Flags: W
HStem: 1 48<709.562 769.367> 785 20G<702.043 732>
VStem: 878 51<123.271 257.803 529.903 673.19>
LayerCount: 2
Fore
SplineSet
701 782 m 1
 709 805 l 1
 732 797 l 2
 838 759 928 726 930 578 c 0
 932 451 762 420 754 408 c 1
 764 389 929 334 929 202 c 0
 929 68 828 34 734 8 c 2
 710 1 l 1
 704 25 l 1
 698 49 l 1
 721 56 l 2
 831 88 878 120 878 202 c 0
 878 298 704 305 704 408 c 0
 704 517 882 488 880 577 c 0
 878 679 837 707 716 749 c 2
 692 758 l 1
 701 782 l 1
EndSplineSet
Validated: 33
EndChar

StartChar: lt_OA
Encoding: 323 -1 92
Width: 999
VWidth: 0
Flags: W
HStem: -2 50<190 821> 330 50<476.968 521.422> 565 49<474.011 524.038> 724 50<277.896 372.889 640.038 712.466>
LayerCount: 2
Fore
SplineSet
168 578 m 1
 146 592 l 1
 158 614 l 2
 196 680 236 776 342 774 c 0
 464 772 450 615 497 614 c 0
 533 613 567 773 661 769 c 0
 756 764 801 680 850 614 c 2
 864 595 l 1
 844 580 l 1
 824 565 l 1
 809 586 l 2
 754 660 721 717 659 719 c 0
 629 721 592 563 494 565 c 0
 379 567 403 722 341 724 c 0
 274 726 249 666 202 588 c 2
 190 566 l 1
 168 578 l 1
502 440 m 1
 190 48 l 1
 821 47 l 1
 502 440 l 1
482 496 m 1
 502 520 l 1
 520 496 l 1
 892 38 l 1
 926 -2 l 1
 874 -2 l 1
 137 -2 l 1
 85 -2 l 1
 118 38 l 1
 482 496 l 1
427 288 m 0
 423 320 432 378 484 380 c 0
 532 384 569 344 574 302 c 0
 580 260 549 216 502 214 c 0
 454 212 432 254 427 288 c 0
476 295 m 0
 478 272 491 262 499 263 c 0
 513 264 526 280 524 298 c 0
 522 320 506 332 488 330 c 0
 482 330 474 319 476 295 c 0
EndSplineSet
Validated: 33
Ligature2: "ltligs1" O A
EndChar

StartChar: lt_OB
Encoding: 324 -1 93
Width: 999
VWidth: 0
Flags: W
HStem: 26 50<552.408 760.196> 288 50<626.968 671.422>
VStem: 136 50<173.98 584.043> 360 49<461.269 584.4> 768 49<76.5814 161.425>
LayerCount: 2
Fore
SplineSet
778 662 m 1
 756 648 l 1
 742 668 l 2
 720 698 687 744 670 743 c 0
 472 731 360 747 251 635 c 0
 168 550 185 514 186 398 c 0
 187 279 174 190 260 104 c 0
 368 -5 510 64 752 76 c 1
 759 88 766 126 768 144 c 2
 772 169 l 1
 797 166 l 1
 821 160 l 1
 817 136 l 2
 816 128 818 28 760 26 c 0
 534 15 361 -68 224 70 c 0
 122 173 137 285 136 397 c 0
 135 509 115 568 215 670 c 0
 351 809 485 785 671 793 c 0
 721 795 760 728 782 698 c 2
 797 677 l 1
 778 662 l 1
385 587 m 1
 409 590 l 1
 412 565 l 2
 423 485 428 438 462 440 c 0
 500 444 501 519 499 580 c 2
 499 586 l 1
 548 582 l 2
 555 581 561 517 563 503 c 0
 586 405 585 338 523 253 c 0
 511 236 492 231 476 232 c 0
 436 234 381 275 385 322 c 2
 388 348 l 1
 412 346 l 1
 438 342 l 1
 434 318 l 2
 435 310 468 280 482 282 c 1
 520 336 534 405 529 457 c 1
 517 439 494 392 468 390 c 0
 371 380 370 506 362 558 c 2
 360 583 l 1
 385 587 l 1
577 247 m 0
 573 279 582 336 634 338 c 0
 682 342 719 304 724 262 c 0
 730 220 699 174 652 172 c 0
 604 170 582 213 577 247 c 0
626 253 m 0
 628 230 641 221 649 222 c 0
 663 223 676 236 674 254 c 0
 672 276 656 290 638 288 c 0
 632 288 624 277 626 253 c 0
EndSplineSet
Validated: 33
Ligature2: "ltligs1" O B
EndChar

StartChar: lt_OC
Encoding: 325 -1 94
Width: 999
VWidth: 0
Flags: W
HStem: 4 50<172 820> 332 50<469.747 516.422> 754 50<480.724 527.037>
LayerCount: 2
Fore
SplineSet
498 580 m 1
 172 54 l 1
 820 53 l 1
 498 580 l 1
431 712 m 0
 427 744 438 802 490 804 c 0
 538 808 573 770 578 728 c 0
 583.540056435 689.219604958 559.240449385 647.028962661 518.483693779 639.213997609 c 1
 886 42 l 1
 910 2 l 1
 865 2 l 1
 127 4 l 1
 82 4 l 1
 106 42 l 1
 478 640 l 1
 479.530885466 642.602505291 l 1
 450.282200226 654.250059417 434.890228009 685.546449542 431 712 c 0
481 720 m 0
 483 697 496 687 504 688 c 0
 518 689 531 703 529 721 c 0
 527 743 511 756 493 754 c 0
 487 754 479 744 481 720 c 0
422 292 m 0
 418 324 427 380 479 382 c 0
 527 386 564 348 569 306 c 0
 575 264 545 219 498 217 c 0
 450 215 427 258 422 292 c 0
470 298 m 0
 472 275 486 265 494 266 c 0
 508 267 520 282 518 300 c 0
 516 322 500 334 482 332 c 0
 476 332 468 322 470 298 c 0
EndSplineSet
Validated: 524321
Ligature2: "ltligs1" O C
EndChar

StartChar: lt_OD
Encoding: 326 -1 95
Width: 999
VWidth: 0
Flags: W
HStem: 218 50<477.968 524.292> 774 20G<184 218 781 816>
LayerCount: 2
Fore
SplineSet
184 778 m 1
 203 794 l 1
 218 775 l 1
 499.5 428.285833333 l 1
 781 775 l 1
 797 794 l 1
 816 778 l 1
 835 762 l 1
 818 743 l 1
 530.99052774 389.5 l 1
 818 36 l 1
 835 17 l 1
 816 1 l 1
 797 -14 l 1
 781 4 l 1
 499.5 350.714166667 l 1
 218 4 l 1
 203 -14 l 1
 184 1 l 1
 166 17 l 1
 181 36 l 1
 468.00947226 389.5 l 1
 181 743 l 1
 166 762 l 1
 184 778 l 1
428 178 m 0
 424 210 433 266 485 268 c 0
 533 272 570 234 575 192 c 0
 581 150 551 104 504 102 c 0
 456 100 433 144 428 178 c 0
478 184 m 0
 480 161 494 151 502 152 c 0
 516 153 528 168 526 186 c 0
 524 208 508 220 490 218 c 0
 484 218 476 208 478 184 c 0
EndSplineSet
Validated: 524321
Ligature2: "ltligs1" O D
EndChar

StartChar: lt_OE
Encoding: 327 -1 96
Width: 999
VWidth: 0
Flags: W
HStem: -14 48.6928<172 239.16 289.333 358> 586 50<516.968 561.422>
VStem: 239.16 50.1729<34.6928 240.716> 546 48<52.8125 117.339>
LayerCount: 2
Fore
SplineSet
172 10 m 1
 172 35 l 1
 198 35 l 1
 239.159859163 34.6928368719 l 1
 231.557396178 186.053199177 194.344741032 298.291523839 202 438 c 0
 204 480 210 525 222 574 c 0
 251 684 332 803 462 781 c 0
 478 779 494 774 512 769 c 0
 634 735 820 646 780 498 c 0
 725 295 417 396 251 412 c 1
 249.072929934 294.448725973 282.425050741 185.253049785 289.33270959 34.318412615 c 1
 332 34 l 1
 358 32 l 1
 358 8 l 1
 358 -18 l 1
 332 -17 l 1
 197 -14 l 1
 172 -14 l 1
 172 10 l 1
253 462 m 1
 453 443 694 368 732 511 c 0
 757 605 629 686 499 721 c 0
 483 725 468 730 454 732 c 0
 366 748 299 665 271 562 c 0
 261 527 255 494 253 462 c 1
598 218 m 0
 599 228 600 237 598 248 c 0
 597 252 587 262 571 260 c 0
 569 259 564 258 562 257 c 0
 516 228 498 198 509 185 c 0
 519 173 534 183 588 212 c 0
 590 214 596 216 598 218 c 0
644 192 m 1
 648 186 l 1
 642 182 l 2
 641 177 640 174 638 170 c 0
 626 133 610 105 600 67 c 2
 594 42 l 1
 570 49 l 1
 546 55 l 1
 552 79 l 2
 560 107 570 129 578 149 c 1
 550 135 504 113 470 154 c 0
 421 216 500 276 536 299 c 0
 546 305 553 308 563 310 c 0
 595 314 641 297 647 254 c 0
 649 231 648 211 644 192 c 1
467 544 m 0
 463 576 472 634 524 636 c 0
 572 640 609 601 614 559 c 0
 620 517 589 472 542 470 c 0
 494 468 472 510 467 544 c 0
516 552 m 0
 518 529 531 519 539 520 c 0
 553 521 566 534 564 552 c 0
 562 574 546 588 528 586 c 0
 522 586 514 576 516 552 c 0
EndSplineSet
Validated: 524321
Ligature2: "ltligs1" O E
EndChar

StartChar: lt_OF
Encoding: 328 -1 97
Width: 999
VWidth: 0
Flags: W
HStem: 17 21G<474 524> 22 21G<134 170> 236 50<600.735 647.037> 311.185 58.5789<415.887 472.144 522.455 741.232> 415.742 59.9227<521.855 667.325> 765 20G<479 515.143 762 788>
VStem: 474 50<18 310.045 369.763 415.742 480.557 681.757> 762 50<595.75 781> 878 47<579.046 646>
LayerCount: 2
Fore
SplineSet
479 766 m 1x7f80
 498 785 l 1
 516 764 l 1
 706.764069741 543.429044362 l 1
 755.574415811 604.062924925 760.39573975 659.942254857 762 757 c 2
 762 782 l 1
 788 781 l 1
 812 781 l 1
 812 756 l 2
 810 634 799 550 696 458 c 0
 641.436754311 409.28281635 580.228089471 409.456930745 521.855141418 415.74160785 c 1
 522.119004523 369.763461857 l 1
 603.502030776 369.070641358 676.235771324 336.612194191 730 385 c 0
 822 468 838 524 878 646 c 2
 886 670 l 1
 910 662 l 1
 932 654 l 1
 925 630 l 1
 885 509 864 439 763 348 c 0
 686.664386512 279.843202243 598.250865414 305.98699082 522.455181895 311.184554855 c 1
 524 42 l 1
 524 18 l 1
 499 17 l 1
 474 17 l 1xbf80
 474 42 l 1
 472.46172221 310.044904821 l 1
 456.168283342 307.546279233 440.904489737 302.377446567 427 293 c 0
 306 214 265 155 170 40 c 1
 154 22 l 1
 134 37 l 1
 116 52 l 1
 132 72 l 2
 226 184 271 252 398 335 c 0
 423.094236132 351.407769778 447.89037963 360.661316367 472.143878731 365.42913108 c 1
 471.820777793 421.729469607 l 1
 429.239841269 426.46300393 389.904064502 427.516694664 358 406 c 0
 237 327 197 267 102 152 c 2
 86 132 l 1
 68 148 l 1
 48 166 l 1
 62 184 l 1
 156 296 205 363 332 446 c 0
 380.396254774 477.643705045 427.406593882 482.816420862 471.483175915 480.556596771 c 1
 470.320565807 683.141408115 l 1
 300 505 l 1
 282 522 l 1
 263 539 l 1
 479 766 l 1x7f80
552 194 m 0
 548 226 558 284 610 286 c 0
 658 290 693 251 698 209 c 0
 704 167 675 122 628 120 c 0
 580 118 557 160 552 194 c 0
601 202 m 0
 603 179 616 169 624 170 c 0
 638 171 651 184 649 202 c 0
 647 224 631 238 613 236 c 0
 607 236 599 226 601 202 c 0
520.328513323 681.756553499 m 1
 521.511252411 475.664267429 l 1
 575.415470049 468.969642152 623.370886343 462.233797709 662 497 c 0
 676.680004606 510.228136019 689.174015617 522.805678706 699.81368417 535.106260354 c 2
 689 526 l 1
 670 508 l 1
 520.328513323 681.756553499 l 1
EndSplineSet
Validated: 524321
Ligature2: "ltligs1" O F
EndChar

StartChar: lt_OG
Encoding: 329 -1 98
Width: 999
VWidth: 0
Flags: W
HStem: 289 49<530.955 575.037> 798 20G<170 202.182 718.5 724>
VStem: 724 52<722.68 786>
LayerCount: 2
Fore
SplineSet
486 341 m 0
 484 339 481 333 479 331 c 0
 453 289 435 234 427 146 c 0
 425 130 428 119 434 108 c 0
 466 47 617 28 706 76 c 0
 748 98 784 137 808 178 c 0
 849 248 845 304 810 326 c 0
 728 374 626 372 506 346 c 0
 499 344 493 343 486 341 c 0
97 288 m 2
 215 314 331 354 440 382 c 0
 445 384 464 390 466 394 c 0
 470 400 496 414 500 420 c 0
 504 426 497 422 502 428 c 1
 490 424 458 420 446 418 c 0
 252 392 212 638 157 778 c 2
 148 802 l 1
 170 810 l 1
 194 818 l 1
 203 796 l 2
 268 629 300 441 438 460 c 0
 504 470 590 531 646 613 c 0
 694 681 713 764 724 786 c 1
 724 786 776 807 776 782 c 0
 776 762 772 774 770 766 c 0
 768 764 766 758 764 752 c 0
 722 654 680 583 642 530 c 0
 602 475 564 437 533 402 c 1
 642 421 747 420 836 368 c 0
 912 324 893 224 851 152 c 0
 823 104 782 60 730 32 c 0
 629 -22 444 -18 390 84 c 0
 380 103 376 128 378 152 c 0
 385 226 397 280 419 324 c 1
 321 298 217 264 108 240 c 2
 83 234 l 1
 78 258 l 1
 72 283 l 1
 97 288 l 2
479 248 m 0
 475 280 486 336 538 338 c 0
 586 342 621 304 626 262 c 0
 632 220 603 174 556 172 c 0
 508 170 484 214 479 248 c 0
529 254 m 0
 531 231 544 221 552 222 c 0
 566 223 580 238 578 256 c 0
 576 278 559 291 541 289 c 0
 535 289 527 278 529 254 c 0
EndSplineSet
Validated: 33
Ligature2: "ltligs1" O G
EndChar

StartChar: lt_OH
Encoding: 330 -1 99
Width: 999
VWidth: 0
Flags: W
HStem: 551 50<330.974 375.808> 762 20G<752 785>
LayerCount: 2
Fore
SplineSet
487 718 m 1
 498 696 l 1
 475 684 l 2
 327 610 195 545 215 463 c 0
 231 397 500 457 512 319 c 0
 525.97559319 157.282421657 370.543406519 87.244347709 242.669698162 2.44441642803 c 0
 242.446381037 2.29632283594 242.223147963 2.14818422208 242 2 c 1
 243 2 243 3 242 2 c 1
 222 -11 l 1
 209 10 l 1
 194 31 l 1
 216 44 l 1
 356 138 473 193 462 314 c 0
 454 397 203 300 167 452 c 0
 135 590 324 665 452 730 c 1
 475 740 l 1
 487 718 l 1
786 760 m 1
 798 738 l 1
 775 727 l 2
 627 653 495 588 515 506 c 0
 531 440 800 500 812 362 c 0
 826 200 670 131 542 46 c 1
 522 31 l 1
 508 52 l 1
 494 72 l 1
 516 86 l 1
 656 180 773 237 762 358 c 0
 754 441 503 342 467 494 c 0
 435 632 624 707 752 772 c 1
 775 782 l 1
 786 760 l 1
282 509 m 0
 278 541 286 599 338 601 c 0
 386 605 425 566 430 524 c 0
 436 482 405 436 358 434 c 0
 310 432 287 475 282 509 c 0
331 517 m 0
 333 494 346 484 354 485 c 0
 368 486 381 500 379 518 c 0
 377 540 361 553 343 551 c 0
 337 551 329 541 331 517 c 0
EndSplineSet
Validated: 524325
Ligature2: "ltligs1" O H
EndChar

StartChar: lt_OI
Encoding: 331 -1 100
Width: 999
VWidth: 0
Flags: W
HStem: 398 50<480.735 527.037>
LayerCount: 2
Fore
SplineSet
134 578 m 1
 112 588 l 1
 122 612 l 2
 136 644 162 678 190 710 c 0
 251 777 350 842 432 768 c 0
 455.894172868 745.94384043 477.840656472 723.456776155 497.778353009 700.486760898 c 1
 517.85028914 724.628651428 540.274112389 745.785774448 565 763 c 0
 665 833 780 750 841 664 c 0
 843 662 845 657 847 655 c 2
 862 634 l 1
 840 620 l 1
 818 607 l 1
 805 628 l 2
 803 630 802 633 800 635 c 0
 742 717 654 764 593 722 c 0
 569.844366506 705.756495907 548.808861032 684.85468236 530.048285683 660.532976195 c 1
 636.525642933 518.251470652 668.339776921 357.237834339 612 166 c 0
 598.942222117 122.256444093 580.343013429 86.6119024392 557.037282851 59.0663750394 c 1
 633.326995718 24.2360526879 731.52042957 34.7551236368 818 122 c 2
 838 142 l 1
 854 122 l 1
 872 106 l 1
 854 88 l 2
 746.851187184 -19.9667426849 615.618040636 -30.2581319037 517.756840152 23.1992671316 c 0
 517.173098476 22.7959648667 516.587482542 22.3962091562 516 22 c 0
 400 -56 241 14 146 156 c 2
 132 178 l 1
 154 191 l 1
 174 205 l 1
 188 184 l 2
 270.967466792 60.491611934 391.268510926 13.4281679475 473.477669618 53.7044571093 c 1
 468.14910498 58.2468241071 462.985274363 63.0147256375 458 68 c 0
 423 103 398 148 386 200 c 0
 353.291400804 338.441047762 382.494220411 528.378509295 467.886775454 659.780012108 c 1
 447.15046043 684.234876462 423.839046994 708.26413125 398 732 c 0
 352 774 286 744 226 677 c 0
 201 649 180 616 168 590 c 2
 158 568 l 1
 134 578 l 1
432 358 m 0
 428 390 438 446 490 448 c 0
 538 452 573 414 578 372 c 0
 584 330 555 284 508 282 c 0
 460 280 437 324 432 358 c 0
481 364 m 0
 483 341 496 331 504 332 c 0
 518 333 531 348 529 366 c 0
 527 388 511 400 493 398 c 0
 487 398 479 388 481 364 c 0
514.166646231 85.1509494026 m 1
 534.345523619 107.60797852 551.196563962 138.744483878 564 180 c 0
 614.396008453 350.277422501 591.327952129 490.236342079 501.028651952 617.239617023 c 1
 432.457796877 499.853154892 406.199039963 333.44629911 434 212 c 0
 444 169 466 131 494 103 c 0
 500.369109582 96.6308904179 507.104936066 90.6685032173 514.166646231 85.1509494026 c 1
EndSplineSet
Validated: 524321
Ligature2: "ltligs1" O I
EndChar

StartChar: lt_OK
Encoding: 332 -1 101
Width: 999
VWidth: 0
Flags: W
HStem: 26 52<611 829> 292 50<488.961 535.292> 772 20G<795.29 868.844>
LayerCount: 2
Fore
SplineSet
808 536 m 1
 782 542 l 1
 758 547 l 1
 766 572 l 1
 791 689 l 1
 107 22 l 1
 88 5 l 1
 71 22 l 1
 53 41 l 1
 72 58 l 1
 734 706 l 1
 611 674 l 1
 599 722 l 1
 630 730 l 1
 874 792 l 1
 808 536 l 1
704 257 m 1
 611 78 l 1
 829 82 l 1
 704 257 l 1
679 316 m 1
 698 352 l 1
 722 318 l 1
 898 72 l 1
 925 34 l 1
 878 34 l 1
 569 26 l 1
 528 26 l 1
 547 62 l 1
 679 316 l 1
438 250 m 0
 434 282 444 340 496 342 c 0
 544 346 581 307 586 265 c 0
 592 223 562 178 515 176 c 0
 467 174 443 216 438 250 c 0
488 258 m 0
 490 235 504 225 512 226 c 0
 526 227 540 240 538 258 c 0
 536 280 518 294 500 292 c 0
 494 292 486 282 488 258 c 0
EndSplineSet
Validated: 33
Ligature2: "ltligs1" O K
EndChar

StartChar: lt_OL
Encoding: 333 -1 102
Width: 999
VWidth: 0
Flags: W
HStem: -5 51<537.541 827.482> 598 50<318.873 365.422> 783 20G<438.696 470.93>
VStem: 418 49<140.398 386 442 715>
LayerCount: 2
Fore
SplineSet
418 442 m 1
 420 528 424 613 422 715 c 1
 309.040167449 644.281449369 l 2
 314.629906492 646.419616182 320.926356717 647.727936797 328 648 c 0
 376 652 413 612 418 570 c 0
 424 528 394 484 347 482 c 0
 345.521060222 481.938377509 344.064904433 481.918525664 342.631386381 481.938923456 c 2
 418 442 l 1
467 397 m 2
 466 313 468 230 482 136 c 0
 494 62 591 48 706 46 c 0
 802 44 825 63 907 128 c 2
 926 143 l 1
 942 122 l 1
 958 104 l 1
 938 88 l 2
 856 23 812 -7 704 -5 c 0
 601 -3 452 3 433 128 c 0
 419 220 417 304 418 386 c 1
 122 542 l 1
 84 563 l 1
 121 586 l 1
 434 780 l 1
 470 803 l 1
 472 760 l 2
 476 628 470 519 468 415 c 1
 467 409 l 1
 467 397 l 2
270 556 m 0
 267.17421202 578.606303843 271.335367035 614.188358963 292.355274816 633.835865326 c 1
 184 566 l 1
 288.117098975 510.826836441 l 1
 278.10037173 524.469525598 272.204109075 541.012058289 270 556 c 0
319 562 m 0
 321 539 335 529 343 530 c 0
 357 531 370 546 368 564 c 0
 366 586 350 600 332 598 c 0
 326 598 317 586 319 562 c 0
EndSplineSet
Validated: 524321
Ligature2: "ltligs1" O L
EndChar

StartChar: lt_OM
Encoding: 334 -1 103
Width: 999
VWidth: 0
Flags: W
HStem: 14 50<238 812> 202 50<326.961 371.037> 214 49<504.772 779> 503.301 50.0886<238.699 419.731> 771 20G<190 239>
VStem: 187 51<60 503.301 553.39 791>
LayerCount: 2
Fore
SplineSet
214 791 m 1xbc
 239 791 l 1
 239 766 l 1
 239 767 240 766 239 766 c 1
 238.698852442 553.389823701 l 1
 331.541244741 555.697493354 434.55559248 558.761068648 510 472 c 0
 516 465 520 456 522 446 c 0
 532 388 440 339 430 326 c 1
 530 252 595 273 758 263 c 2
 782 262 l 1
 781 238 l 1
 779 212 l 1
 754 214 l 2
 602 224 516 199 398 288 c 0
 388 296 380 306 378 319 c 0
 376 336 385 348 392 358 c 0
 420 394 468 425 472 438 c 1
 412.989349964 506.528496816 334.049030315 505.30314999 238.62790545 503.301247428 c 1
 238 60 l 1
 788 64 l 1
 812 64 l 1
 814 38 l 1
 814 14 l 1
 788 14 l 1
 212 10 l 1
 187 10 l 1
 187 35 l 1
 190 766 l 1
 189 766 190 767 190 766 c 1
 190 791 l 1
 214 791 l 1xbc
276 160 m 0
 272 192 282 250 334 252 c 0xdc
 382 256 417 217 422 175 c 0
 428 133 399 88 352 86 c 0
 304 84 281 126 276 160 c 0
325 168 m 0
 327 145 340 135 348 136 c 0
 362 137 375 150 373 168 c 0
 371 190 356 204 338 202 c 0
 332 202 323 192 325 168 c 0
EndSplineSet
Validated: 8912933
Ligature2: "ltligs1" O M
EndChar

StartChar: lt_ON
Encoding: 335 -1 104
Width: 1002
VWidth: 0
Flags: W
HStem: 22 51<226 766> 240 50<472.961 517.422> 766 20G<816.18 835.357>
VStem: 787 48<296 662> 797 51<113 548>
LayerCount: 2
Fore
SplineSet
500 430 m 1xe8
 835 786 l 1xf0
 848 58 l 1
 848 22 l 1
 822 22 l 1
 799 22 l 1
 109 16 l 1
 466 394 l 1
 157 725 l 1
 193 758 l 1
 500 430 l 1xe8
787 662 m 1
 534 395 l 1
 797 113 l 1xe8
 787 662 l 1
766 73 m 1
 499 358 l 1
 226 68 l 1
 766 73 l 1
422 198 m 0
 418 230 428 288 480 290 c 0
 528 294 565 256 570 214 c 0
 576 172 546 126 499 124 c 0
 451 122 427 164 422 198 c 0
472 205 m 0
 474 182 488 172 496 173 c 0
 510 174 522 188 520 206 c 0
 518 228 502 242 484 240 c 0
 478 240 470 229 472 205 c 0
EndSplineSet
Validated: 8388641
Ligature2: "ltligs1" O N
EndChar

StartChar: lt_OP
Encoding: 336 -1 105
Width: 999
VWidth: 0
Flags: W
HStem: 581 50<465.968 512.292>
VStem: 230 51<98.4688 234.557>
LayerCount: 2
Fore
SplineSet
233 637 m 1
 216 655 l 1
 233 672 l 1
 232 671 234 672 233 672 c 1
 313 750 414 803 542 780 c 0
 578 773 618 759 654 739 c 0
 721 702 794 631 750 552 c 0
 707.156156336 476.653930107 640.303341994 446.051851022 572.819661208 410.212988177 c 1
 772 392 l 1
 768 342 l 1
 499.771926989 366.431626805 l 1
 384.582989836 285.689145373 275.032021802 261.308329081 280 154 c 0
 280 152 281 148 281 146 c 0
 291 74 400 35 498 47 c 0
 599 59 663 136 725 228 c 2
 739 248 l 1
 760 235 l 1
 781 221 l 1
 767 200 l 2
 705 108 629 14 504 -2 c 0
 402 -14 244 18 230 140 c 0
 229 142 230 149 230 151 c 0
 223.457780374 273.666617992 325.254674769 323.438400007 415.073382901 374.146416674 c 1
 252 389 l 1
 258 439 l 1
 485.564068439 418.191612419 l 1
 581.599495862 481.560253265 662.053747264 499.661027732 706 578 c 0
 726 615 697 658 630 695 c 0
 599 713 563 725 534 730 c 0
 427 750 342 707 268 636 c 2
 250 618 l 1
 233 637 l 1
416 539 m 0
 412 571 421 629 473 631 c 0
 521 635 558 596 563 554 c 0
 569 512 539 468 492 466 c 0
 444 464 421 505 416 539 c 0
466 547 m 0
 468 524 480 514 488 515 c 0
 502 516 516 530 514 548 c 0
 512 570 496 583 478 581 c 0
 472 581 464 571 466 547 c 0
EndSplineSet
Validated: 524325
Ligature2: "ltligs1" O P
EndChar

StartChar: lt_OQ
Encoding: 337 -1 106
Width: 999
VWidth: 0
Flags: W
HStem: 516 50<614.961 659.422> 788 20G<746 772>
VStem: 246 50<-16 355.176 405.537 532> 722 50<370 806>
LayerCount: 2
Fore
SplineSet
746 806 m 1
 772 808 l 1
 772 782 l 1
 778 343 l 1
 778 316 l 1
 750 318 l 1
 299.97529718 355.175953711 l 1
 296 8 l 1
 296 -17 l 1
 271 -16 l 1
 246 -16 l 1
 246 10 l 1
 246 11 245 10 246 10 c 1
 253 564 l 1
 253 595 l 1
 283 588 l 1
 503 539 l 1
 528 534 l 1
 522 509 l 1
 517 485 l 1
 492 491 l 1
 302 532 l 1
 300.551954242 405.537337146 l 1
 727 370 l 1
 722 782 l 1
 722 806 l 1
 746 806 l 1
564 474 m 0
 560 506 570 564 622 566 c 0
 670 570 707 532 712 490 c 0
 718 448 688 402 641 400 c 0
 593 398 569 440 564 474 c 0
614 482 m 0
 616 459 630 449 638 450 c 0
 652 451 664 464 662 482 c 0
 660 504 644 518 626 516 c 0
 620 516 612 506 614 482 c 0
EndSplineSet
Validated: 8912933
Ligature2: "ltligs1" O Q
EndChar

StartChar: lt_OR
Encoding: 338 -1 107
Width: 999
VWidth: 0
Flags: W
HStem: 1 48<593.49 661.102> 466 50<210.974 255.808> 788 20G<382 413.565 584.174 614>
VStem: 78 50<296.348 533.196> 836 50<146.232 247.902 535.226 644.73>
LayerCount: 2
Fore
SplineSet
415 785 m 1
 427 763 l 1
 404 752 l 1
 250 673 126 581 128 418 c 0
 130 240 248 138 418 60 c 1
 439 49 l 1
 428 26 l 1
 418 4 l 1
 396 14 l 2
 220 96 80 215 78 418 c 0
 76 612 228 717 382 796 c 1
 404 808 l 1
 415 785 l 1
583 782 m 1
 592 805 l 1
 614 797 l 2
 720 759 885 726 887 578 c 0
 889 451 646 420 638 408 c 1
 648 389 886 334 886 202 c 0
 886 68 712 34 618 8 c 2
 594 1 l 1
 587 25 l 1
 580 49 l 1
 604 56 l 2
 714 88 836 120 836 202 c 0
 836 298 587 305 587 408 c 0
 587 517 840 488 838 577 c 0
 836 679 719 707 598 749 c 1
 575 758 l 1
 583 782 l 1
162 424 m 0
 158 456 166 514 218 516 c 0
 266 520 305 481 310 439 c 0
 316 397 285 352 238 350 c 0
 190 348 167 390 162 424 c 0
211 432 m 0
 213 409 226 399 234 400 c 0
 248 401 261 414 259 432 c 0
 257 454 241 468 223 466 c 0
 217 466 209 456 211 432 c 0
EndSplineSet
Validated: 33
Ligature2: "ltligs1" O R
EndChar

StartChar: lt_OS
Encoding: 339 -1 108
Width: 999
VWidth: 0
Flags: W
HStem: 324 50<143 476.111> 333.812 49.6188<526.349 758.643> 406 50<805.08 851.037> 526 49<594.961 639.422> 806 20G<472 493.538>
VStem: 480 50<-8 332.589 383.431 710>
LayerCount: 2
Fore
SplineSet
505 -8 m 1x7c
 480 -8 l 1
 480 17 l 1
 476.638194793 332.589463806 l 1
 168 325 l 1
 168 326 167 325 168 325 c 1
 143 324 l 1
 143 349 l 1
 142 374 l 1
 168 374 l 1
 167 374 168 373 168 374 c 1xbc
 476.110556268 382.121530313 l 1
 472 768 l 1
 472 826 l 1
 514 787 l 1
 768 557 l 1
 787 540 l 1
 769 521 l 1
 752 502 l 1
 734 518 l 1
 522 710 l 1
 525.775368183 383.430652209 l 1
 754.965562178 389.471909382 l 1
 758.319609389 419.917214161 774.075184224 454.464430162 814 456 c 0
 862 460 897 421 902 379 c 0
 908 337 879 292 832 290 c 0
 795.179829793 288.465826241 772.481794316 312.822232821 761.649038515 339.597927177 c 1
 526.348995832 333.811860553 l 1
 530 18 l 1
 530 -8 l 1
 505 -8 l 1x7c
805 372 m 0
 807 349 820 339 828 340 c 0
 842 341 855 354 853 372 c 0
 851 394 835 408 817 406 c 0
 811 406 803 396 805 372 c 0
544 482 m 0
 540 514 550 573 602 575 c 0
 650 579 687 540 692 498 c 0
 698 456 669 411 622 409 c 0
 574 407 549 448 544 482 c 0
594 490 m 0
 596 467 610 457 618 458 c 0
 632 459 644 474 642 492 c 0
 640 514 624 528 606 526 c 0
 600 526 592 514 594 490 c 0
EndSplineSet
Validated: 8912933
Ligature2: "ltligs1" O S
EndChar

StartChar: lt_OT
Encoding: 340 -1 109
Width: 999
VWidth: 0
Flags: W
HStem: 544 49<598.961 645.292> 640 50<286 459.316 550.267 701> 760 51<473 532>
VStem: 470 51<-10 535.818> 480.528 49.0922<120.057 641.875>
LayerCount: 2
Fore
SplineSet
504 714 m 1xe0
 532 760 l 1
 473 760 l 1
 504 714 l 1xe0
227 582 m 1
 204 593 l 1
 216 616 l 1
 248 677 l 1
 254 690 l 1
 270 690 l 1
 459.315964953 691.713266651 l 1
 406 770 l 1
 379 808 l 1
 426 809 l 1
 576 811 l 1
 620 812 l 1
 598 773 l 1
 550.267329786 692.536355926 l 1
 712 694 l 1
 725 694 l 1
 733 684 l 1
 779 623 l 1
 794 602 l 1
 774 588 l 1
 754 574 l 1
 739 593 l 1
 701 644 l 1
 529.620630116 642.348150652 l 1xe8
 521 14 l 1
 521 -10 l 1
 496 -10 l 1
 470 -10 l 1
 470 14 l 1xf0
 480.528391306 641.874972446 l 1xe8
 286 640 l 1
 260 592 l 1
 248 570 l 1
 227 582 l 1
548 502 m 0
 544 534 554 591 606 593 c 0
 654 597 691 559 696 517 c 0
 702 475 672 430 625 428 c 0
 577 426 553 468 548 502 c 0
598 509 m 0
 600 486 614 477 622 478 c 0
 636 479 649 493 647 511 c 0
 645 533 628 546 610 544 c 0
 604 544 596 533 598 509 c 0
EndSplineSet
Validated: 8912929
Ligature2: "ltligs1" O T
EndChar

StartChar: lt_OU
Encoding: 341 -1 110
Width: 999
VWidth: 0
Flags: W
HStem: 362 51<531.58 826.489> 582 50<393.961 440.083> 715 51<263.749 743.305> 754 49<150 169>
LayerCount: 2
Fore
SplineSet
455 389 m 1xc0
 377 401 303 418 211 432 c 1
 460 94 l 1
 446 182 417 287 455 389 c 1xc0
148 778 m 1
 150 803 l 1xd0
 175 802 l 1
 309 788 380 768 512 766 c 0
 626 764 691 781 810 791 c 2
 872 796 l 1
 830 749 l 2
 710 613 603 561 529 428 c 1
 584 420 642 415 710 413 c 0
 775 411 807 431 880 460 c 2
 902 469 l 1
 912 446 l 1
 922 422 l 1
 898 414 l 2
 831 388 788 360 709 362 c 0
 632 364 567 374 506 382 c 1
 454 261 501 188 512 40 c 2
 518 -44 l 1
 457 19 l 1
 134 450 l 1
 98 498 l 1
 158 490 l 2
 285 472 380 452 478 436 c 1
 550 575 647 634 748 734 c 1
 671 724 607 713 512 715 c 0xe0
 375 717 300 737 169 751 c 2
 144 754 l 1xd0
 148 778 l 1
343 540 m 0
 339 572 349 630 401 632 c 0
 449 636 486 596 491 554 c 0
 497 512 467 468 420 466 c 0
 372 464 348 506 343 540 c 0
394 548 m 0
 396 525 410 515 418 516 c 0
 432 517 444 530 442 548 c 0
 440 570 424 584 406 582 c 0
 400 582 392 572 394 548 c 0
EndSplineSet
Validated: 8388641
Ligature2: "ltligs1" O U
EndChar

StartChar: lt_OV
Encoding: 342 -1 111
Width: 999
VWidth: 0
Flags: W
HStem: 449 49<361.817 407.605> 794 20G<647 673.625>
LayerCount: 2
Fore
SplineSet
683 782 m 1
 673 770 l 1
 579 650 485 489 487 424 c 0
 489 352 544 161 686 29 c 1
 694 22 l 1
 674 -17 l 1
 662 -13 l 1
 414 57 285 223 277 422 c 0
 269 613 433 743 647 810 c 1
 658 814 l 1
 683 782 l 1
362 414 m 0
 364 391 378 381 386 382 c 0
 400 383 412 398 410 416 c 0
 408 438 392 451 374 449 c 0
 368 449 360 438 362 414 c 0
334.284750143 356.607413256 m 1
 359.574949834 235.070161923 440.734367367 134.288551378 582 70 c 1
 503.028281065 172.198695093 460.622159581 283.388930542 444.571372313 362.265550525 c 1
 431.950044312 345.125071876 412.622175086 333.00519894 389 332 c 0
 364.942753844 330.997614743 346.914164902 341.550155815 334.284750143 356.607413256 c 1
441.906961686 465.655960963 m 1
 459.278283794 543.121085126 519.907015634 644.103346604 584 734 c 1
 442.848669129 673.752480726 349.106495204 587.578078746 329.551141868 479.302174507 c 1
 338.665309886 489.940259491 351.744418413 497.297862298 370 498 c 0
 399.953687906 500.496140659 425.623757057 486.636646073 441.906961686 465.655960963 c 1
EndSplineSet
Validated: 524321
Ligature2: "ltligs1" O V
EndChar

StartChar: lt_OW
Encoding: 343 -1 112
Width: 999
VWidth: 0
Flags: W
HStem: 131 50<169 383.558 473.605 564.795 651.992 844> 545 50<466.974 511.422> 602 51<170 361.878 450.205 541.174 632.606 846> 802 20G<480.571 504.941>
LayerCount: 2
Fore
SplineSet
472 787 m 1
 492 822 l 1
 514 788 l 1
 600.324156165 653.621338766 l 1
 890 654 l 1
 934 654 l 1
 912 616 l 1
 773.306396965 384.344198175 l 1
 911 170 l 1
 936 132 l 1
 890 132 l 1
 622.01680779 131.649695174 l 1
 542 -2 l 1
 522 -37 l 1
 502 -2 l 1
 415.822558827 131.380160208 l 1
 125 131 l 1
 82 131 l 1
 103 169 l 1
 241.570311113 401.077106418 l 1
 104 614 l 1
 79 653 l 1
 125 653 l 1
 392.198841662 653.349279532 l 1
 472 787 l 1
418 503 m 0
 414 535 422 593 474 595 c 0
 522 599 559 560 564 518 c 0
 570 476 539 432 492 430 c 0
 444 428 423 469 418 503 c 0
466 510 m 0
 468 487 482 477 490 478 c 0
 504 479 516 494 514 512 c 0
 512 534 496 547 478 545 c 0
 472 545 464 534 466 510 c 0
473.604874781 131.455692647 m 1
 521 58 l 1
 564.794580283 131.574894876 l 1
 473.604874781 131.455692647 l 1
269.480002586 447.820166932 m 1
 361.877792965 602.567685778 l 1
 170 602 l 1
 269.480002586 447.820166932 l 1
299.826159057 400.787947216 m 1
 441.377506795 181.403522232 l 1
 594.589585172 181.630503089 l 1
 714.6760812 383.375816417 l 1
 573.508560902 603.19381231 l 1
 420.035565592 602.739750194 l 1
 299.826159057 400.787947216 l 1
632.606218434 603.368657451 m 1
 743.17345287 431.251400822 l 1
 846 604 l 1
 632.606218434 603.368657451 l 1
651.99150631 181.715542972 m 1
 844 182 l 1
 744.718746262 336.595095107 l 1
 651.99150631 181.715542972 l 1
450.205419717 653.425105124 m 1
 541.173566593 653.544017734 l 1
 494 727 l 1
 450.205419717 653.425105124 l 1
271.981379998 354.008718396 m 1
 169 181 l 1
 383.557614405 181.317863132 l 1
 271.981379998 354.008718396 l 1
EndSplineSet
Validated: 524321
Ligature2: "ltligs1" O W
EndChar

StartChar: lt_OX
Encoding: 344 -1 113
Width: 999
VWidth: 0
Flags: W
HStem: 606 50<368.961 415.292> 752 20G<838 862>
VStem: 150 50<651.095 713.51> 320.012 49.9082<157.989 367.976> 812 50<128.25 770> 822 50<14 657.75>
LayerCount: 2
Fore
SplineSet
294 74 m 0xf0
 291.017386039 97.8609116891 295.818759864 136.177800695 320.012436796 154.954886433 c 1
 318.380645359 223.817631904 291.406797079 287.048403627 330 368 c 0
 398 514 563 496 538 598 c 0
 512 702 392 694 254 719 c 0
 250 720 245 720 239 719 c 0
 213 714 198 694 200 677 c 2
 204 652 l 1
 179 648 l 1
 155 643 l 1
 150 668 l 2
 140 722 187 760 230 768 c 0
 241 770 251 770 263 768 c 0
 381 746 549 758 586 610 c 0
 621 468 414 430 376 348 c 0
 347.697849985 287.743809646 367.739798135 244.15799797 369.920590325 165.495929563 c 1
 408.983568551 159.923917716 437.642725053 125.601109556 442 89 c 0
 448 47 418 2 371 0 c 0
 323 -2 299 40 294 74 c 0xf0
344 82 m 0
 346 59 360 49 368 50 c 0
 382 51 394 64 392 82 c 0
 390 104 376 118 358 116 c 0
 352 116 342 106 344 82 c 0
838 770 m 1
 862 772 l 1
 862 746 l 1xf8
 872 40 l 1
 872 14 l 1
 848 14 l 1
 822 14 l 1
 822 40 l 1xf4
 812 746 l 1
 812 770 l 1xf8
 838 770 l 1
318 564 m 0
 314 596 324 654 376 656 c 0
 424 660 461 620 466 578 c 0
 472 536 442 492 395 490 c 0
 347 488 323 530 318 564 c 0
368 572 m 0
 370 549 384 539 392 540 c 0
 406 541 420 554 418 572 c 0
 416 594 398 608 380 606 c 0
 374 606 366 596 368 572 c 0
EndSplineSet
Validated: 8912929
Ligature2: "ltligs1" O X
EndChar

StartChar: lt_OY
Encoding: 345 -1 114
Width: 999
VWidth: 0
Flags: W
HStem: -2 49<404.486 616.737> 557 50<491.968 536.422> 634 49<447.358 575.018> 786 20G<491 523>
VStem: 192 50<220.91 449.5> 797 50<227.969 460.051>
LayerCount: 2
Fore
SplineSet
508 634 m 0
 363 636 246 492 242 338 c 0
 240 192 357 49 499 47 c 0
 662 45 792 172 797 336 c 0
 799.732756739 424.54131833 761.839814383 504.718522141 700.300725739 559.552058627 c 1
 682 574 l 1
 679.398246343 576.526558465 l 1
 631.473029589 611.934075584 572.220147507 633.21202273 508 634 c 0
442 515 m 0
 438 547 447 605 499 607 c 0
 547 611 584 572 589 530 c 0
 595 488 565 444 518 442 c 0
 470 440 447 481 442 515 c 0
491 522 m 0
 493 499 506 490 514 491 c 0
 528 492 541 505 539 523 c 0
 537 545 521 559 503 557 c 0
 497 557 489 546 491 522 c 0
446.431106888 676.710720231 m 1
 466.181522034 681.042894668 486.746044254 683.23485034 508 683 c 0
 531.912742606 682.74828692 555.25524994 680.073073934 577.782315221 675.205612964 c 1
 509 742 l 1
 446.431106888 676.710720231 l 1
731.746613062 597.63801866 m 1
 804.537093045 533.727049514 849.745915733 439.443164133 847 334 c 0
 842 144 689 -4 498 -2 c 0
 323 0 188 168 192 338 c 0
 194.155310585 431.217182807 233.183195685 524.724700847 297.037725257 590.832559085 c 1
 296 592 l 1
 314 610 l 1
 491 792 l 1
 506 806 l 1
 523 793 l 1
 708.540629032 616.294639017 l 2
 714.788116319 611.703233277 720.872981367 606.905546241 726.78484578 601.911365665 c 2
 732 598 l 1
 731.746613062 597.63801866 l 1
EndSplineSet
Validated: 524321
Ligature2: "ltligs1" O Y
EndChar

StartChar: lt_OZ
Encoding: 346 -1 115
Width: 999
VWidth: 0
Flags: W
HStem: 438 50<583.263 597.523> 778 20G<158 162 635.667 670>
VStem: 485 50<285.82 388.091>
LayerCount: 2
Fore
SplineSet
670 758 m 1
 690 743 l 1
 674 722 l 2
 629.056746848 659.84443713 594.171825992 611.176183476 570.547509174 561.458680712 c 1
 675.374445399 500.738678541 779.888076823 440.172098272 856 396 c 1
 567.72493166 236.92384184 l 1
 596.80886584 176.057975618 643.313010721 122.984687756 700 47 c 2
 715 26 l 1
 695 12 l 1
 674 -2 l 1
 660 17 l 2
 605.523948029 89.2399819614 555.956563749 145.702103487 523.54698174 212.545533341 c 1
 142 2 l 1
 134 16 126 32 118 46 c 1
 246.784507017 117.681942585 375.569014034 188.62583563 504.353521051 259.728371081 c 1
 493.226938312 293.462452865 486.370638861 330.687811995 485 374 c 0
 482.994341785 438.582194515 491.608518839 491.579114191 508.712555176 540.155223705 c 1
 138 755 l 1
 146 769 154 784 162 798 c 1
 162 798 339.237663575 695.428415974 527.906983985 586.156318857 c 1
 554.072175562 640.494167848 590.905298436 691.956151062 635 752 c 2
 649 773 l 1
 670 758 l 1
583 403 m 0
 585 380 599 371 607 372 c 0
 621 373 634 388 632 406 c 0
 630 428 613 440 595 438 c 0
 589 438 581 427 583 403 c 0
549.283018627 284.542005674 m 1
 572.375330525 297.300170765 595.467642424 310.066789245 618.559954935 322.847029578 c 1
 615.771595995 322.409959656 612.916604705 322.124111971 610 322 c 0
 566.114980059 320.171457502 542.29136611 355.958051239 534.707997941 388.091256111 c 1
 534.761774303 384.117676294 534.8590263 380.088251255 535 376 c 0
 536.23049765 341.546065797 541.155459 311.755634951 549.283018627 284.542005674 c 1
552.038472571 515.045885215 m 1
 545.010883155 493.162794768 540.064695158 470.29472971 537.290947991 445.340953238 c 1
 544.480369813 467.593757609 560.160471195 486.85232597 590 488 c 0
 592.784250409 488.232020867 595.53821937 488.315999107 598.257027769 488.260131634 c 2
 552.038472571 515.045885215 l 1
662.888960919 347.398627376 m 1
 693.259307124 364.232546998 723.629653329 381.095751537 754 398 c 1
 667.833407957 447.937456752 l 1
 675.431709133 436.378921023 680.417906995 423.289581243 682 410 c 0
 685.223445929 387.4358785 677.767660324 364.294501242 662.888960919 347.398627376 c 1
EndSplineSet
Validated: 524321
Ligature2: "ltligs1" O Z
EndChar

StartChar: ltd14
Encoding: 347 -1 116
Width: 999
VWidth: 0
Flags: W
HStem: 352 108
LayerCount: 2
Fore
SplineSet
137 460 m 1
 878 402 l 1
 874 352 l 1
 132 410 l 1
 137 460 l 1
EndSplineSet
Validated: 1
EndChar

StartChar: lt_RX
Encoding: 348 -1 117
Width: 999
VWidth: 999
Flags: W
HStem: -2 50<272.378 311.084> 1 48<709.562 769.367> 785 20G<702.043 732>
VStem: 245.985 49.8532<142.704 337.279> 584 50<54.6389 696> 593 50<12 653.361> 878 51<123.271 257.803 529.903 673.19>
LayerCount: 2
Fore
SplineSet
701 782 m 1x72
 709 805 l 1
 732 797 l 2
 838 759 928 726 930 578 c 0
 932 451 762 420 754 408 c 1
 764 389 929 334 929 202 c 0
 929 68 828 34 734 8 c 2
 710 1 l 1
 704 25 l 1
 698 49 l 1
 721 56 l 2
 831 88 878 120 878 202 c 0
 878 298 704 305 704 408 c 0
 704 517 882 488 880 577 c 0
 878 679 837 707 716 749 c 2
 692 758 l 1
 701 782 l 1x72
222 67 m 0
 219.051646116 87.6384771884 223.709484029 122.946038558 245.985007103 140.88590535 c 1
 244.111847478 201.929347761 218.486553742 259.10397874 254 332 c 0
 316 466 464 449 442 538 c 0
 420 629 316 624 190 646 c 0
 188 647 181 647 176 646 c 0
 154 642 140 623 142 610 c 2
 146 588 l 1
 146 586 l 1
 144 584 l 1
 122 580 l 1
 100 576 l 1
 98 576 l 1
 97 578 l 1
 92 600 l 2
 82 650 129 686 167 694 c 0
 177 696 187 696 198 694 c 0
 304 675 456 686 490 550 c 0
 522 420 332 383 300 312 c 0
 274.81261818 259.826137659 293.321444216 220.599299868 295.838229529 151.373063869 c 1
 331.60037249 145.662463049 355.715044022 114.565665434 360 82 c 0
 365 42 337 0 294 -2 c 0xb2
 248 -4 226 37 222 67 c 0
272 73 m 0
 274 53 285 48 290 48 c 0
 302 49 313 60 311 74 c 0
 309.2939431 89.3545121036 298.855995757 100.343078986 287.134708943 102 c 2
 281 102 l 2
 279 102 270 95 272 73 c 0
610 697 m 1
 632 697 l 1
 634 697 l 1
 634 694 l 1
 634 672 l 1x3a
 643 37 l 1
 643 14 l 1
 643 12 l 1
 641 12 l 1
 618 11 l 1
 596 11 l 1
 593 11 l 1
 593 12 l 1
 593 13 l 1
 593 36 l 1x36
 584 671 l 1
 584 694 l 1
 584 696 l 1x3a
 587 696 l 1
 610 697 l 1
EndSplineSet
Validated: 8912929
Ligature2: "ltligs1" R X
EndChar

StartChar: lt_SP
Encoding: 349 -1 118
Width: 999
VWidth: 999
Flags: W
HStem: 324 50<58 339.513> 406 50<853.089 899.037>
VStem: 230 51<98.4688 232.881>
LayerCount: 2
Fore
SplineSet
56 349 m 1
 55 374 l 1
 80 374 l 1
 79 374 80 373 80 374 c 1
 427.963460943 381.493156629 l 1
 443.398007941 390.393977178 458.290433465 399.431865023 472 409 c 0
 574 480 660 496 706 578 c 0
 726 615 697 658 630 695 c 0
 599 713 563 725 534 730 c 0
 427 750 342 707 268 636 c 2
 250 618 l 1
 233 637 l 1
 216 655 l 1
 233 672 l 1
 232 671 234 672 233 672 c 1
 313 750 414 803 542 780 c 0
 578 773 618 759 654 739 c 0
 721 702 794 631 750 552 c 0
 697.146254639 459.050309882 607.754218688 434.194706772 525.714471846 383.598158209 c 1
 802.976276913 389.568802733 l 1
 806.353060301 419.990465141 822.117532277 454.466058934 862 456 c 0
 910 460 945 421 950 379 c 0
 956 337 927 292 880 290 c 0
 843.146906668 288.464454444 820.441214254 312.865810573 809.62000832 339.669758232 c 1
 446.899254121 332.356839801 l 1
 353.306349216 276.11150193 275.803876041 244.636277513 280 154 c 0
 280 152 281 148 281 146 c 0
 291 74 400 35 498 47 c 0
 599 59 663 136 725 228 c 2
 739 248 l 1
 760 235 l 1
 781 221 l 1
 767 200 l 2
 705 108 629 14 504 -2 c 0
 402 -14 244 18 230 140 c 0
 229 142 230 149 230 151 c 0
 225.288018112 239.349660398 276.77680617 289.8852225 339.512859378 330.19179152 c 1
 82 325 l 1
 82 326 81 325 82 325 c 1
 58 324 l 1
 56 349 l 1
852 372 m 0
 854 349 869 339 877 340 c 0
 891 341 903 354 901 372 c 0
 899 394 883 408 865 406 c 0
 859 406 850 396 852 372 c 0
EndSplineSet
Validated: 8912933
Ligature2: "ltligs1" S P
EndChar

StartChar: lt_PS
Encoding: 350 -1 119
Width: 999
VWidth: 999
Flags: W
HStem: 359 50<143 475.733> 368.215 50.6158<525.951 758.852> 442 49<805.162 851.037> 806 20G<472 493.538>
VStem: 480 50<-8 240.624 294.925 367.075 418.831 710>
LayerCount: 2
Fore
SplineSet
505 -8 m 1x78
 480 -8 l 1
 480 17 l 1
 477.577065515 244.452974752 l 1
 132 271 l 1
 137 322 l 1
 477.039410524 294.925337084 l 1
 476.270838153 367.075068417 l 1
 168 360 l 1
 168 361 167 360 168 360 c 1
 143 359 l 1
 143 384 l 1
 142 409 l 1xb8
 167.896966926 409.996037189 l 2
 167.931311284 409.996037189 167.965655642 410 168 410 c 1
 167 410 168 409 168 410 c 1
 475.732574231 417.604594091 l 1
 472 768 l 1
 472 826 l 1
 514 787 l 1
 768 557 l 1
 787 540 l 1
 769 521 l 1
 752 502 l 1
 734 518 l 1
 522 710 l 1
 525.366114184 418.831123085 l 1
 755.067102386 424.507424276 l 1
 758.628804759 455.008960865 774.464031823 489.479385839 814 491 c 0
 862 495 897 456 902 414 c 0
 908 372 879 327 832 325 c 0
 795.230613435 323.467942226 772.544432998 347.168295434 761.693928959 373.625762304 c 1
 525.951268497 368.215275015 l 1
 526.844395862 290.959757954 l 1
 878 263 l 1
 874 214 l 1
 527.426316939 240.623584817 l 1
 530 18 l 1
 530 -8 l 1
 505 -8 l 1x78
805 407 m 0
 807 384 820 373 828 374 c 0
 842 375 855 390 853 408 c 0
 851 430 835 444 817 442 c 0
 811 442 803 431 805 407 c 0
EndSplineSet
Validated: 8912933
Ligature2: "ltligs1" P S
EndChar

StartChar: lt_PH
Encoding: 351 -1 120
Width: 999
VWidth: 999
Flags: W
HStem: 762 20G<752 785>
VStem: 456.769 50.8864<211.401 252.636 306.521 342.634> 762 50<284.998 385.634>
LayerCount: 2
Fore
SplineSet
487 718 m 1
 498 696 l 1
 475 684 l 2
 327 610 195 545 215 463 c 0
 231 397 500 457 512 319 c 0
 512.482276598 313.419370797 512.762816349 307.947916829 512.849713375 302.581264 c 1
 750.779859962 283.957851717 l 1
 760.354299701 306.105671835 764.510341825 330.38623993 762 358 c 0
 754 441 503 342 467 494 c 0
 435 632 624 707 752 772 c 1
 775 782 l 1
 786 760 l 1
 798 738 l 1
 775 727 l 2
 627 653 495 588 515 506 c 0
 531 440 800 500 812 362 c 0
 814.628970267 331.579058343 811.263285469 304.437545634 803.214052516 279.853690896 c 1
 878 274 l 1
 874 224 l 1
 779.637250294 231.376063993 l 1
 728.93935621 154.157316969 629.001764401 103.774609173 542 46 c 1
 522 31 l 1
 508 52 l 1
 494 72 l 1
 516 86 l 2
 599.462863123 142.039350954 674.751280379 184.928506384 719.617556452 236.067630358 c 1
 507.655402778 252.636100592 l 1
 480.393882426 136.143135129 351.543143605 74.6442517969 242.669698162 2.44441642803 c 0
 242.446381037 2.29632283594 242.223147963 2.14818422208 242 2 c 1
 243 2 243 3 242 2 c 1
 222 -11 l 1
 209 10 l 1
 194 31 l 1
 216 44 l 1
 331.794032224 121.747421636 431.853884261 172.815146433 456.768985427 256.613745074 c 1
 132 282 l 1
 137 332 l 1
 462.521876106 306.520554907 l 2
 462.402868562 308.98567591 462.229226587 311.478507547 462 314 c 0
 454 397 203 300 167 452 c 0
 135 590 324 665 452 730 c 1
 475 740 l 1
 487 718 l 1
EndSplineSet
Validated: 524325
Ligature2: "ltligs1" P H
EndChar

StartChar: lt_PG
Encoding: 352 -1 121
Width: 999
VWidth: 999
Flags: W
HStem: 798 20G<170 202.182 718.5 724>
VStem: 724 52<722.68 786>
LayerCount: 2
Fore
SplineSet
486 341 m 0
 484 339 481 333 479 331 c 0
 453 289 435 234 427 146 c 0
 425 130 428 119 434 108 c 0
 466 47 617 28 706 76 c 0
 748 98 784 137 808 178 c 0
 849 248 845 304 810 326 c 0
 728 374 626 372 506 346 c 0
 499 344 493 343 486 341 c 0
97 288 m 2
 215 314 331 354 440 382 c 0
 445 384 464 390 466 394 c 0
 470 400 496 414 500 420 c 0
 504 426 497 422 502 428 c 1
 490 424 458 420 446 418 c 0
 361.543543788 406.681093497 306.27365154 446.91248179 266.246557502 507.50633378 c 1
 132 518 l 1
 137 568 l 1
 237.004234517 560.172408095 l 1
 203.235404859 631.417525863 181.620614848 715.329344023 157 778 c 2
 148 802 l 1
 170 810 l 1
 194 818 l 1
 203 796 l 2
 235.927704304 711.401128941 260.386837614 621.413167249 294.447438913 555.67617887 c 1
 575.793184099 533.654514605 l 1
 601.544250683 556.405702306 625.736196188 583.328001561 646 613 c 0
 694 681 713 764 724 786 c 1
 724 786 776 807 776 782 c 0
 776 762 772 774 770 766 c 0
 768 764 766 758 764 752 c 0
 722 654 680 583 642 530 c 0
 641.648694911 529.516955503 641.297544091 529.035222293 640.946550928 528.554790886 c 2
 878 510 l 1
 874 460 l 1
 603.678464263 481.130254815 l 1
 577.9601818 450.534794804 553.890636727 425.586202756 533 402 c 1
 642 421 747 420 836 368 c 0
 912 324 893 224 851 152 c 0
 823 104 782 60 730 32 c 0
 629 -22 444 -18 390 84 c 0
 380 103 376 128 378 152 c 0
 385 226 397 280 419 324 c 1
 321 298 217 264 108 240 c 2
 83 234 l 1
 78 258 l 1
 72 283 l 1
 97 288 l 2
512.970152281 488.220661951 m 1
 329.287990096 502.578566812 l 1
 357.035390241 470.698279112 391.500122981 453.597843019 438 460 c 0
 461.238140608 463.520930395 486.955671386 473.364305723 512.970152281 488.220661951 c 1
EndSplineSet
Validated: 524321
Ligature2: "ltligs1" P G
EndChar

StartChar: lt_PQ
Encoding: 353 -1 122
Width: 999
VWidth: 999
Flags: W
HStem: 788 20G<746 772>
VStem: 246 50<-16 355.176 405.537 439.771 493.221 532> 722 50<370 401.902 456.181 806>
LayerCount: 2
Fore
SplineSet
746 806 m 1
 772 808 l 1
 772 782 l 1
 776.507108393 452.229902578 l 1
 869 445 l 1
 864 395 l 1
 777.194957343 401.902287758 l 1
 778 343 l 1
 778 316 l 1
 750 318 l 1
 299.97529718 355.175953711 l 1
 296 8 l 1
 296 -17 l 1
 271 -16 l 1
 246 -16 l 1
 246 10 l 1
 246 11 245 10 246 10 c 1
 251.480019734 443.704418916 l 1
 122 454 l 1
 127 503 l 1
 252.105678609 493.22084992 l 1
 253 564 l 1
 253 595 l 1
 283 588 l 1
 503 539 l 1
 528 534 l 1
 522 509 l 1
 517 485 l 1
 492 491 l 1
 302 532 l 1
 301.511743363 489.35892033 l 1
 725.954108194 456.181484804 l 1
 722 782 l 1
 722 806 l 1
 746 806 l 1
726.563978141 405.928201199 m 1
 300.943946223 439.771303467 l 1
 300.551954242 405.537337146 l 1
 727 370 l 1
 726.563978141 405.928201199 l 1
EndSplineSet
Validated: 8912901
Ligature2: "ltligs1" P Q
EndChar

StartChar: lt_PE
Encoding: 354 -1 123
Width: 999
VWidth: 999
Flags: W
HStem: -14 48.6928<172 239.16 289.333 358>
VStem: 202 49<270.656 412 460.063 573.985> 239.16 50.1729<34.6928 211.066> 546 48<52.8125 117.339> 599.086 48.9<238.224 247.84>
LayerCount: 2
Fore
SplineSet
172 10 m 1xb8
 172 35 l 1
 198 35 l 1
 239.159859163 34.6928368719 l 1xb8
 235.808599373 101.414358173 226.703618721 160.533859098 218.22446609 217.755406884 c 1
 77 229 l 1
 82 278 l 1
 211.044095154 268.073531142 l 1
 203.691182102 323.165257183 198.715280381 378.053866957 202 438 c 0
 204 480 210 525 222 574 c 0
 251 684 332 803 462 781 c 0
 478 779 494 774 512 769 c 0
 634 735 820 646 780 498 c 0
 725 295 417 396 251 412 c 1xd8
 250.187946961 362.464764634 255.640480232 314.413247078 262.738979178 264.097001602 c 1
 476.072547454 247.686727119 l 1
 494.161525597 270.2835973 519.562891362 288.498513926 536 299 c 0
 546 305 553 308 563 310 c 0
 595 314 641 297 647 254 c 0
 647.587329642 247.245709122 647.915942202 240.750135324 647.985837682 234.462627871 c 1
 823 221 l 1
 818 170 l 1
 644.69801085 183.7986739 l 1
 642 182 l 2
 641 177 640 174 638 170 c 0
 626 133 610 105 600 67 c 2
 594 42 l 1
 570 49 l 1
 546 55 l 1
 552 79 l 2
 560 107 570 129 578 149 c 1
 550 135 504 113 470 154 c 0
 457.927135538 169.275869319 453.624583116 184.430327513 454.534706093 198.939881701 c 1
 270.106603149 213.624440505 l 1
 278.129628079 159.09378441 286.292465499 100.748754466 289.33270959 34.318412615 c 1
 332 34 l 1
 358 32 l 1
 358 8 l 1
 358 -18 l 1
 332 -17 l 1
 197 -14 l 1
 172 -14 l 1
 172 10 l 1xb8
253 462 m 1
 453 443 694 368 732 511 c 0
 757 605 629 686 499 721 c 0
 483 725 468 730 454 732 c 0
 366 748 299 665 271 562 c 0
 261 527 255 494 253 462 c 1
549.526753355 191.376412351 m 1
 505.877204784 194.85188248 l 2
 505.731945694 190.969280306 506.770100556 187.635335707 509 185 c 0
 516.050754921 176.539094095 525.58716709 179.01508008 549.526753355 191.376412351 c 1
541.530692944 242.651485158 m 1
 599.085875 238.224163462 l 2
 598.954043859 241.34942976 598.622193897 244.577933569 598 248 c 0
 597 252 587 262 571 260 c 0
 569 259 564 258 562 257 c 0
 554.413882182 252.217447463 547.589284752 247.407697769 541.530692944 242.651485158 c 1
EndSplineSet
Validated: 524321
Ligature2: "ltligs1" P E
EndChar

StartChar: lt_PU
Encoding: 355 -1 124
Width: 999
VWidth: 999
Flags: W
HStem: 362 51<531.58 826.489> 715 51<263.749 743.305> 754 49<150 169>
LayerCount: 2
Fore
SplineSet
455 389 m 1x80
 377 401 303 418 211 432 c 1
 460 94 l 1
 446 182 417 287 455 389 c 1x80
148 778 m 1
 150 803 l 1xa0
 175 802 l 1
 309 788 380 768 512 766 c 0
 626 764 691 781 810 791 c 2
 872 796 l 1
 830 749 l 2
 781.989458546 694.588053019 736.059830786 653.622009901 693.491960219 615.534911757 c 1
 902 599 l 1
 898 550 l 1
 643.071041576 569.557134092 l 1
 599.870927662 528.655302179 561.293199862 486.040480832 529 428 c 1
 584 420 642 415 710 413 c 0
 775 411 807 431 880 460 c 2
 902 469 l 1
 912 446 l 1
 922 422 l 1
 898 414 l 2
 831 388 788 360 709 362 c 0
 632 364 567 374 506 382 c 1
 454 261 501 188 512 40 c 2
 518 -44 l 1
 457 19 l 1
 134 450 l 1
 98 498 l 1
 158 490 l 2
 285 472 380 452 478 436 c 1
 507.425805241 492.808151784 541.027333929 536.253988536 577.371055773 574.597375264 c 1
 155 607 l 1
 158 658 l 1
 624.691892624 620.990831096 l 1
 664.062411302 657.396472814 705.680068188 692.099077414 748 734 c 1
 671 724 607 713 512 715 c 0xc0
 375 717 300 737 169 751 c 2
 144 754 l 1xa0
 148 778 l 1
EndSplineSet
Validated: 8912929
Ligature2: "ltligs1" P U
EndChar

StartChar: lt_MA
Encoding: 356 -1 125
Width: 999
VWidth: 0
Flags: W
HStem: -2 50<190 821> 98 50<506.296 671.705> 242 51.2224<385.177 486.776> 565 49<474.011 524.038> 724 50<277.896 372.889 640.038 712.466>
LayerCount: 2
Fore
SplineSet
168 578 m 1
 146 592 l 1
 158 614 l 2
 196 680 236 776 342 774 c 0
 464 772 450 615 497 614 c 0
 533 613 567 773 661 769 c 0
 756 764 801 680 850 614 c 2
 864 595 l 1
 844 580 l 1
 824 565 l 1
 809 586 l 2
 754 660 721 717 659 719 c 0
 629 721 592 563 494 565 c 0
 379 567 403 722 341 724 c 0
 274 726 249 666 202 588 c 2
 190 566 l 1
 168 578 l 1
482 496 m 1
 502 520 l 1
 520 496 l 1
 892 38 l 1
 926 -2 l 1
 874 -2 l 1
 137 -2 l 1
 85 -2 l 1
 118 38 l 1
 482 496 l 1
385.177020626 293.22241053 m 1
 432.323752647 295.283863652 490.567164155 298.147896908 533 248 c 0
 537 243 541 237 542 229 c 0
 547 199 517 178 505 168 c 1
 512 164 515 160 521 158 c 0
 552 146 585 152 649 148 c 1
 662 148 l 1
 674 146 l 1
 673 134 l 1
 672 122 l 1
 672 109 l 1
 671 97 l 1
 658 98 l 1
 646 98 l 2
 588 100 548 95 502 113 c 0
 488 119 475 127 461 138 c 0
 454 143 447 151 446 162 c 0
 444 175 451 186 455 191 c 0
 465 204 480 215 488 222 c 1
 462 245 429 244 382 242 c 2
 370 242 l 1
 358 242 l 1
 356 254 l 1
 356 256.564102564 l 1
 190 48 l 1
 821 47 l 1
 502 440 l 1
 385.177020626 293.22241053 l 1
EndSplineSet
Validated: 524321
Ligature2: "ltligs1" M A
EndChar

